<svg id="Capa_1" data-name="Capa 1" xmlns="http://www.w3.org/2000/svg" xmlns:xlink="http://www.w3.org/1999/xlink" viewBox="0 0 1024 200"><defs><style>.cls-1{fill:none;}.cls-2{clip-path:url(#clip-path);}.cls-3{clip-path:url(#clip-path-2);}.cls-4{font-size:40.65px;}.cls-4,.cls-5{font-family:HelveticaNeue-Bold, Helvetica Neue;font-weight:700;}.cls-5{font-size:24.02px;}</style><clipPath id="clip-path"><rect class="cls-1" x="719.87" y="15" width="472.85" height="336.77"/></clipPath><clipPath id="clip-path-2"><rect class="cls-1" x="719.87" y="15" width="472.85" height="336.77"/></clipPath></defs><title>Mesa de trabajo 1</title><g class="cls-2"><g class="cls-3"><text class="cls-4" transform="translate(723.68 49.84) scale(1.01 1)">P</text><text class="cls-4" transform="translate(749.54 49.84) scale(1.01 1)">ETI</text><text class="cls-4" transform="translate(813.34 49.84) scale(1.01 1)">T</text><text class="cls-4" transform="translate(838.01 49.84) scale(1.01 1)">P</text><text class="cls-4" transform="translate(862.31 49.84) scale(1.01 1)">A</text><text class="cls-4" transform="translate(890.43 49.84) scale(1.01 1)">L</text><text class="cls-4" transform="translate(916.01 49.84) scale(1.01 1)">A</text><text class="cls-4" transform="translate(942.08 49.84) scale(1.01 1)">C</text><text class="cls-4" transform="translate(971.68 49.84) scale(1.01 1)">E</text></g><text class="cls-5" transform="translate(723.68 74.23) scale(1.01 1)">H</text><text class="cls-5" transform="translate(740.93 74.23) scale(1.01 1)">O</text><text class="cls-5" transform="translate(758.35 74.23) scale(1.01 1)">T</text><text class="cls-5" transform="translate(772.69 74.23) scale(1.01 1)">EL</text><text class="cls-5" transform="translate(802.79 74.23) scale(1.01 1)">I</text><text class="cls-5" transform="translate(809.46 74.23) scale(1.01 1)">TY</text></g></svg>