<svg id="Capa_1" data-name="Capa 1" xmlns="http://www.w3.org/2000/svg" viewBox="0 0 1024 200"><defs><style>.cls-1{fill:#234648;}.cls-2{opacity:0.07;}.cls-3{fill:#fff;}</style></defs><title>Sin título-2</title><rect class="cls-1" width="1024" height="200"/><g id="WIP" class="cls-2"><path id="Trazado_71" data-name="Trazado 71" class="cls-3" d="M679.49,139c0,1-6.23,2-7.22,1-2.74-1-5.48.25-8.22,0-3-.25-6.48-.5-9.47.25-3.49.75-3.24-3.73-4.49-5.72s0-3.24-.75-5-1.74-3.23-1.74-5a10.82,10.82,0,0,0-1.74-5.22c-1-1.74-1-4-1.25-5.73-.75-2.24-1-4.72-2-6.72-1-1.74-.25-4-1-6s-2-3.73-2-6c.25-2-.75-4-1.5-6-.75,1.74-1.5,2-1.24,3.73,0,1-.75,2-1.5,3.23-.75,2.24-2,4.23-2.74,7-1,2.24-1.25,5-2,7.22-1,2.74-2.74,4.23-3.74,7a17.34,17.34,0,0,1-1.24,4c-.75,1.25.25,2.24-.5,3.48-.75,1.75-1.75,1.75-1.5,3.73a4.49,4.49,0,0,1-1,3.49c-1,2.74-2.24,4-3.24,6.72-.75,2-6.73,1.24-8.72,1.24-1.74,0-4-.5-6,.25-1.74.75-1.74-.5-3.49-.5s-2,1.25-3.73.5a4.23,4.23,0,0,0-2.49,0c-2.25.75-.5-1-2.25-1-.75,0,.25-2.24.25-3-.25-1,1-1.25,1.25-2.24-.25-1,0-2.24-.75-3.24-.25-.74-.75-1-1-1.74-.25-1.74.25-3.48-.5-5.23-.25-.74-1-1.24-1.25-2.24,0-.74-.24-1.74-.24-2.48-.75-1.75-.25-2.25-1.5-4-.75-1-.5-3.23-.75-4.48s-1.25-2.24-1.5-3.48c-1-3.24-1-6.47-2-9.71C584,94,582,91.71,582.28,88.47c.25-2.24-1.5-6-2.24-8.21-.25-1,.25-2.24-.75-3.23-.74-.75-1.24-1-1-2.24.75-2.24-.74-3-1.5-5.23-.74-2-.5-5.23-1.49-7a11.74,11.74,0,0,1-1.5-3.73c-.25-1,.25-1.74,0-2.74-.75-2.24-1.49-4.73-2.24-7l-1.75-7.46c-.74-2-.74-4.48-2-6.23-1.25-2.24-1-5.47-1.74-8.21s-1.75-4.73-2.49-7-.25-4.23-2-6c-1-1-3.24-2.74-2.49-4,1-2.74,7.23-1.25,10-1.49,1.74-.26,3.24,1.24,5,.5s3.49.74,4.73,0c3-1.75,7.48-.25,10.72-.5,2-.26,3.74,1.24,2,3.23l-1.24,1.49c-.75.75-1.25.5-2,1.25l2.24,7.71c.25.75,1,1.25,1.25,2.24.25.75-.5,1.49-.25,2.49s1.25,1.25,1.25,2.24a10.93,10.93,0,0,1,1,3.48,21.29,21.29,0,0,0,.24,4c.25.74,1,1.24,1.25,2.24.75,2.73.75,5.72,1.74,8.46.75,2,.75,4.73,2,6.72s.75,4.23,1.5,6.47c.75,2,2.24,3.23,2,6-.25,1.74.75,1.5,1.5,3.24s-.25,2.49.5,3.73c1.24,2.24.25,5,1.49,7s1.5,4,2.24,6.22l1.75,7,.75-2c.74-1.74.74-3,1.5-4.73.74-1.25.5-2.49,1.24-3.49,1.25-2.73.75-5.22,2-7.21.75-1.25.5-2.49,1.25-3.74.25-.74,1.25-1.24,1.5-2,.25-1-.25-1.74,0-2.73a5.08,5.08,0,0,1,1.5-2c.24-1.75-.25-2.49.5-3.74s.24-2.49,1-3.73c.74-2.24,1.74-4.23,2.49-7,1.24-4,3.73-9.21,1-13.19-1-1.74-.25-2.49-1-4.23,0-.75-.75-1.25-1-2.24l-2-7.22c-.74-2.24-.74-4.48-1.49-7.22-.75-2-1.75-2.24-3-3.48-3.74-3.73.5-5.72,4.48-5a7.62,7.62,0,0,0,5.24-.24c1.74-.75,3.48.74,5.23,0,2.24-.75,4,.74,6.23.74,1.74,0,3.48-.5,5.23-.5.75,0,10-.74,6.23,3-1.25,1.74-3,2-2.24,4.23s.25,5.23,1.24,7c1.25,2,.5,3.73,1.75,5.72a3,3,0,0,1-.25,2.49c-.25,1.24.75,2.24,1,3.48,1,4.73,3,8.47,3.24,13.19.75,5,2,9,3,13.69l6.72,29.62c1-2,0-4.23,1-6.23a16.39,16.39,0,0,0,1.25-4.72,14.73,14.73,0,0,1,1.5-5c1.74-1.74.25-3,1-5,.75-1.24,2.24-3,2-4.73,0-1.74,1.75-3,1.5-4.72-.75-1.75-.25-1.75,1-3.49.74-1,.5-3.48.74-4.73A22,22,0,0,1,675,47.16c.25-1.74,0-3.49.75-5.23.75-3.23,2.74-6.22,3.49-9.45.74-1.75-.25-3.49.5-5.23s1.24-3,2-4.73l.75-2.24c.25-1-.5-1.74-.25-2.74.75-1.74,1.5-2.24-.25-4-.75-1-3.49-2.49-1.75-4.23a6.64,6.64,0,0,1,5.74,0c1.24.75,2-.5,3.23-.5s2.49.25,3.74.25a74.65,74.65,0,0,0,7.48,0,16,16,0,0,1,7.72.25c1.25.75,4.48-.75,4.73,1,.75,1.24-1.5,3.23-2.24,4.23-1.24,1.74-1.24,3-2,4.73-1.75,3.73-2,6.72-3,10.45-1,3.23-1.5,6.72-2.24,10-.25,1,0,2.49-1,3.24a5.13,5.13,0,0,0-1.25,2.24c-.75,1.74-.5,3.23-.75,5-1,3.23-2.74,6-2.74,9.7s-2.49,6.47-3.24,10.2c-.25,1.74,0,3.24-1,5-.75,1.24-.75,3-1.49,4.73l-1,3.23c-.25,1,.5,1.75.25,2.74-.75,1.74-1.75,2.74-2,4.48-1,3.23-1.24,6.72-2.24,10-.75,1.75-1.25,3.49-2,5.48-.25,1.74,0,4-.75,5-1.75,1.75-.75,3-1.49,4.73a12.69,12.69,0,0,0-1.5,5c0,2-1.5,3.48-1.25,5.48a11.79,11.79,0,0,1-1,5c-.75,1.75-1.74,2.74-1,4.48.75,1,3,2,2,3.74C679.74,139.24,679.74,139.24,679.49,139Z"/><path id="Trazado_72" data-name="Trazado 72" class="cls-3" d="M734.05,134c.75-2-.74-3.49-.74-5.23,0-3.73.74-6.22.74-9.95s-.74-6.48-.74-10.21.24-6.47.24-10.2c0-3.23.25-6.22.25-10v-5c0-1.74-.5-3.48-.5-5.23s.75-3.23.75-5c0-1-1-1.5-1-2.49s.75-1.5.75-2.49.25-1.74.25-2.49c0-1-.5-1.74-.5-2.49,0-1.74-.5-3.48-.5-5.22s.5-3.24.5-5-.25-3.24-.25-5,.75-3.23.75-5-1-2.48-.75-4.23c.25-2.73,1.24-7.21.25-10a6.37,6.37,0,0,1,.25-5.23c.74-1.24-.5-3.23-.25-5s.74-3.49-1-4.48c-.75-.25-2.49-3.24-2.24-4,.74-1.74,4.73-1.24,6.47-1.24,1,0,2.25-.75,3.24,0,1.25.25,1.75.75,3,0,2.24-.75,4.74,0,7.48-.25,2-.25,5.23-.5,7.22.25,2.74.25,3.49-.25,5.23,1.49,1,.75-.74,2-1,2.74-.74,1-1.74,1-2,2-.75,1-.25,1.75-.25,2.49,0,1.74-.25,3.49-.25,5.23,0,3.23.5,6.72.5,9.95,0,2,.25,4,.25,6s-.75,3.23-.75,5c.25,3-1.24,7.47,0,10.2,1,2.24-.5,3.49.25,5.73.75,1.74-.25,3.23.5,5,.75,3.23-1,6.47-.25,10.2s-.5,7.21-.5,10.95c0,1,.5,1.49.5,2.49s-.5,1.49-.5,2.48.75,1.5.75,2.49-.5,1.75-.5,2.49c0,1.25,1,2.24.25,3.49-.25.74-.75.74-.75,1.74,0,1.74.5,3.23.5,5,0,3.23-.25,6.71-.25,9.95,0,2,1,4.23.25,6-.75,2,1,3.49.25,5.23s.75,3,0,4.73c-1,2.74.25,1.49,1.5,3.23,1,1,3,4.48,0,4.48-.75,0-1.5.75-2.49.75-.75,0-1.5-.5-2.49-.5-3.24,0-6.48-.5-9.72-.5-1.25,0-2.24,1.24-3.49.5a4.42,4.42,0,0,0-2.49-.25c-1.74.75-3.24-.75-5,0-1.25,0-8.72.25-5.48-3C731.56,135.51,733.31,135.76,734.05,134Z"/><path id="Trazado_73" data-name="Trazado 73" class="cls-3" d="M808.29,113.11c0,1.25-1,2.24-.25,3.49a3.67,3.67,0,0,1,0,3.23c-.75,2.24,1.25,4.73.5,7-.74,2.74.25,4.48.25,6.72-.25.25-.25.25-.5.25l1.25.75c1.25.74,3.24,2.48,2.49,4.23-.75,1-3.49,1.24-4.48,1.24-3.24,0-6.23-.25-10-.25-1.74,0-4.48-1-5.73-.25-1.75,1-3.24-.25-5,.5-2,.75-3-.74-5-.5-1.24.25-3.24.25-3.24-1.49-.25-1.74,2-2.49,2.74-3.74,1-1.74.25-3,1-4.72,1-2.74-.25-7.22-.25-10.2,0-1.25-.5-2.24-.5-3.24s.75-1.74.75-2.74-.75-1.49-.75-2.49c0-.74.5-1.49.5-2.49,0-3.23-.5-6.72-.5-9.95,0-3.73,1.75-7.47.5-11.2-.75-1.74,0-3.24.25-5s-.74-2.24-.74-4c0-1,1-1.49,1-2.74,0-.74-.25-1.49-.25-2.49,0-1.74-.5-3.23-.5-5,0-3.73.25-6.72.25-10,0-3.73-.75-7.46,0-11.2.24-1.74-.5-3.23-.5-5V37c0-1.74,1.24-3.24,1-5a9.34,9.34,0,0,1-.5-5.23c.74-3.23-.75-7,.24-9.95.75-2.24-1.24-3-3-4a1.86,1.86,0,0,1-.74-2.52,1.88,1.88,0,0,1,1.74-1c1,0,1.75-.74,2.49-.74,1.75,0,2.74.5,4,.25,2.74-.75,5.23.25,8,0,5.24-.25,10,.25,15.7.25,2,0,4.74-1.25,6.73-.25,2,.74,3.49,0,5.48-.25,1.75,0,2,1,3.74,1,.75,0,1.5-.5,2.49-.5.75,0,1.5.74,2.24,1,1,0,1.75-.5,2.49-.25,1,.25,1.5,1.24,2.25,1.49s1.74-.25,2.49,0c1.74.75,3,2.24,5,3,2.74.74,4.23,2.49,6.23,4.23,1.74,1.24,1.25,3.23,3.24,4.48,1.24.74,1.24,3.23,2.24,4.48,1.25,1.74-.25,3.23,1.5,5,1,1,1,3.49.75,4.73-.25,1.74.5,2.49.5,3.73.25,1.75-.25,2.24,0,4a8.77,8.77,0,0,1,.74,4c0,.74-.74,1.49-.74,2.49s.5,1.74.5,2.49c0,1.74-1.5,4.72-.75,6,2,4,.25,10-.5,14.18a24.13,24.13,0,0,1-1,7.22,25.82,25.82,0,0,0-1.75,6.22c0,2.24-2,4-3.73,5.73s-2.49,3.73-4.24,5c-1.74,1.75-3.74,2.25-5.48,3.49-2.24,1.74-4.73,1-7.47,2.24-3,1.24-5.49,1-8.73,1-2,.24-4.48-.75-6.47,0-2.74.74-7.48-1.25-9.72.74C806.55,107.39,808.29,110.87,808.29,113.11ZM812,80.51a6.34,6.34,0,0,1,2.49-.25c1.74-.25,3,.25,4.73-.5s2.74.5,4-.25c1-.74,1-1.49,2.74-2.24,1.75-.24,1.75-1.24,2.49-2.49.75-1,2.24-.74,2-2.48s.5-2.24.74-4l.75-2.24c0-.75-.25-1.75-.25-2.49,0-2,.5-3.74-.25-6-.25-1.74.75-2,1-3.73,0-1.24-.75-2.24-.75-3.48s.5-2.74.5-3.74c-.25-1-1.24-1.24-1.49-2.24a13.19,13.19,0,0,0-.5-2.24,17.49,17.49,0,0,0-2.49-4,1.8,1.8,0,0,0-.25-1.24c-.75-.75-1.25-.5-2.24-1.25a15.23,15.23,0,0,0-4.74-1.49c-2-.75-4-.25-6-.5-1.74-.25-3,.75-4.73.5-2.24-.75-1.74,4.23-1.74,5.47,1,4.73.24,9,.24,13.69s0,9.21-.24,13.94c0,2.24.5,4.73.24,6.72a10.64,10.64,0,0,0,.25,6.22c1.75,0,1.75,1,3.49.25Z"/><path id="Trazado_74" data-name="Trazado 74" class="cls-3" d="M875.56,37.46c0,.24,0,.24-.25.24-3.23-1.24.5-8-.74-10.45a6,6,0,0,1,.25-5.47c.74-1.25-.5-4.23-.5-6s-.75-4.47.24-5.72c1-1.74,6-1,8-1a33.17,33.17,0,0,0,5,.25c1.25,0,2.49-.5,3.74-.5.74,0,1.49.75,2.49.75,1.24,0,2-.75,3.74-.75,3,.25,5.73.25,8.72.25,1.74,0,3.24.5,5,.5,1,0,1.49-.75,2.49-.75,2.74,0,4.74.25,7.48.25,1.24,0,2.24,1,3.23.25a4.73,4.73,0,0,1,3-.5h8.71c1.25,0,2.5.74,3.74.74a20.63,20.63,0,0,1,3.74-.74c1.25.25,2.24.5,2.49.5l2.49-.5c1.25,0,2.74-.25,3.74.5,2.74.75,4.48-1,7.22-.25,2.5.75,0,8.21.75,10.2a33.19,33.19,0,0,1,0,10c0,1.75.25,3.74.25,5.48a2.66,2.66,0,0,1-1.25,2.74c-1,.24-1.49-.5-2.24-1.25-1.74-.25-1.74-2.74-3.49-2.49s-2,.75-3.73-.25c-1.25-.74-2.25.75-3.49.75-.75,0-1.75-.25-2.74-.25-1.75,0-3.49-.25-5.24-.25-1,0-1.49.5-2.49.5s-1.74-.25-2.74-.25c-1.24,0-4-1.24-3.23,1.5.74,2,.5,3.73.5,6,0,1.74.24,3.24.24,5v10c0,2,.5,4,.25,6a11.54,11.54,0,0,0-.5,5c0,1.74.25,3.23.25,5s-1.24,3.73-.5,5c1.75,3.74-.5,7,.25,10.7.75,2-.75,3,.25,5,.75,1.74-.75,3.24,0,5,.75,2-.5,4-.5,6,0,1,.75,1.5.75,2.49,0,.75-.25,1.49-.25,2.49,0,3.24-.25,6.22-.25,10,0,2-.25,4-.25,6,0,1.74.75,3.23.75,5s-1,3-.25,4.72c.75,1,3.24,2.24,3,3.24-.25,2.74-1.75,2.49-3.74,2.49-1,0-1.74-.5-2.49-.5-1,0-1.74.25-2.49.25-1.74,0-3.24-.5-5-.5s-3.24.25-5,.25h-10.7c-1.75,0-2.25.25-3-1-.25-1,1-4,2-4.23,2.24-.75,1.74-3,1-4.73s1-3.23.25-5c-.75-3.24.75-7-.25-10.2-.25-1.25.5-2,.5-3.24,0-1-.25-1.74-.25-2.49,0-1.74-.25-3.23-.25-5,0-3.74-.25-6.72-.25-10,0-3.73-.25-7.22.5-11,.25-1.74-.75-3.23,0-5,.75-2-.5-3.23-.5-5,0-3.74.5-7,.5-10.7,0-3.24-1-7-.25-10,.75-3.73.5-7.22.5-11,0-1.74-.5-3.23-.5-5,0-2.24,1.74-2.73-1.5-2.49-5.73.75-11.21-.5-16.94-.5a24.23,24.23,0,0,0-6.48,1.25c-1.25.75-2,3-3.74,2.24Z"/><path id="Trazado_75" data-name="Trazado 75" class="cls-3" d="M1009.6,141.73c-1.74.75-3-1.49-4.73-.75a13.36,13.36,0,0,1-6.23-.74c-2-.25-3.74-.75-5-1-3.24-1-8.72-2-10.72-5-1-1.74-2.74-2.49-4.48-3.73L976,127.79a27,27,0,0,0-1.75-2.74c-.74-.24-.74-.5-1.5-1.24-.74-1.74-.24-3-1-4.73s-2-2.74-2.24-4.48l-.5-5c-.25-3.73.5-7.22-.25-11a20.53,20.53,0,0,1-.74-3.73l.74-2.49c0-1.74-.5-3.24-.5-5s1-2,0-4c-.74-1.74.5-4.23.5-6V56.37c0-1.74-.74-3.23-.74-5l1-3.73c0-1-.75-1.74-.75-2.49a10.67,10.67,0,0,0,.5-2.74c.25-1-.5-2.24.25-3.23a6.55,6.55,0,0,0,.5-1.74A48.56,48.56,0,0,1,972.23,28c.24-1-.5-2,.24-2.74l1.5-2c.75-1,2-1.74,2.74-2.74a20,20,0,0,1,6.23-5.72c1.75-1.25,3.74-3.24,5.73-3.24,2,.25,4.49-2,6.48-2.73a6.05,6.05,0,0,1,3,0c1.25.24,2-.75,3.24-.75,2.74-.75,4.73-.25,7.47-.5,2.25,0,4.49-1.25,6.73-.25,1.75.75,5.23.75,7,.5,4.73-.75,9.72,1,13.7,2.24,2.74,1,4.23,2.24,7,3.48.75.75,1.75,0,2.5.75s1,1.25,1.74,2a15.46,15.46,0,0,1,4.49,4.48c1.74,1.74,1.49,3.73,2.74,5.47a22,22,0,0,1,3,8c.25,1-.24,2.24.5,3.23a3.77,3.77,0,0,1,.5,2.74c-.24,2.74.5,4.73.26,7.47,0,2.24-.5,4.73-.5,7.47a48.9,48.9,0,0,1,.74,8.46v7.46c0,4.73-.25,9-.5,13.69-.74,5.72.5,10.7.25,16.43a68.79,68.79,0,0,1-.25,7.46c-.24,1.75-1,2.49-.74,3.73a22.17,22.17,0,0,1-.25,4c-.75,2.73-3.49,4.73-3.74,7.46-.25,2.24-1.74,2.49-2.49,4.23-1.75,4.23-6.23,5.73-10,7.72a27.76,27.76,0,0,1-8,3.48c-1.25.75-2.49.25-3.74.5s-2.49,1-3.74,1.25c-1.74.25-3.73-1-5.73,0s-4.23,1-6.48,1C1011.85,142,1011.6,140.74,1009.6,141.73Zm23.17-93.32c-.74-2.24-1.74-3.24-1.74-5.48-.25-4.73-6.73-7.71-10.47-8.71-1-.25-1.74.25-2.74.25a11.57,11.57,0,0,0-2.74-.75c-2.24-.25-4.48.75-6.72,0-2.24-.25-3.24,1.75-5,2.74-2,1-3.74,1.5-4.74,3.73-1.74,4.23-3.49,8-4.23,12.7a74.47,74.47,0,0,0-.25,7.46c0,1.25.74,2,.5,3.74a16.18,16.18,0,0,0-.25,3.48c0,2.74.25,5,.25,7.71,0,2.25-.5,4-.25,6.72a58.52,58.52,0,0,1,.5,6.47c0,2.24-.25,4.48-.25,6.47.25,2-.5,5.48.75,7.22a40.27,40.27,0,0,1,2.24,5.73c1.74,3.73,5.73,5.47,9.47,6.22,2.24.74,5.23.74,8,.74a21.66,21.66,0,0,0,7.22-1.24,15.81,15.81,0,0,0,4.49-2.49,24.22,24.22,0,0,0,3-4c1.25-2,2.74-3.24,2.49-6-.25-1.25.5-2.24.5-3.24.25-1.24-.5-2.49-.25-3.73.25-4,1.25-8,.5-12a13.67,13.67,0,0,1,0-7.71c.75-2.74-.74-5.23,0-7.47,1.25-4-.5-8.21-.5-12.19C1032.53,52.14,1033.52,50.65,1032.77,48.41Z"/></g></svg>