<?xml version="1.0" encoding="utf-8"?>
<!-- Generator: Adobe Illustrator 23.0.4, SVG Export Plug-In . SVG Version: 6.00 Build 0)  -->
<svg version="1.1" id="Capa_1" xmlns="http://www.w3.org/2000/svg" xmlns:xlink="http://www.w3.org/1999/xlink" x="0px" y="0px"
	 viewBox="0 0 232.7 158.2" style="enable-background:new 0 0 232.7 158.2;" xml:space="preserve">
<style type="text/css">
	.st0{fill:#161615;}
	.st1{fill:#234648;}
	.st2{fill:#837653;}
	.st3{fill:#FFFFFF;}
</style>
<title>logo</title>
<g id="Grupo_40">
	<g id="Sello">
		<path id="Trazado_9" class="st0" d="M200,7.8c7.7,4.5,15.9,9.7,20.1,17.8c0.2,0.9,2.1,0.1,1.2,1.5c0.3,1.2,2,1.4,1.5,2.6
			c0.2,0.4,0.7,0.8,0.1,1.1c0,0,0.2,0.9,0.6,1.1c1.1,0.4,1.6,2.2,3,2.9c2.2,5.9,4.9,11.2,5.1,17.9c1.6,1.2-0.6,3.3,0.8,4.3
			c-0.4,1.1-0.4,2.4,0.2,3.4c-0.5,1.9-1.4,3.8-0.8,5.5c-0.6,2.6,0.5,5.1-0.6,7.4c-0.7,1.3-0.5,3.3-1.2,4.9c0.5,2.1-1.8,3.5-1.5,5.6
			c-1.3,2-2.3,4.2-3,6.5c-1.2,0.5-1.2,2.3-2.2,2.9c-1.9,1.5-2.6,3.9-3.9,5.8c-1.1,1-1.9,2.3-2.2,3.8h-0.1c-1,1.6-3.3,1.8-3.6,4
			c-3.9,2-7.3,7-12,8.3V115c-0.5,0.5-0.5,1.3-1.3,1.4c-1.3,0.6-3,1.2-4.2,0.8c0-0.9,0.7-1.7,1.6-1.7c0,0,0,0,0,0l0,0
			c0.4,0.4,0.3-0.2,0.3-0.2c1.1-0.7,1.8,0.9,2.7-0.3c-0.2-1.9,1.7-0.8,1.7-2.8c1.5,0.2,2.1-1.7,3.7-1.8c1.5-0.8,2.8-1.9,3.8-3.2
			c1.8-0.2,1.6-3.7,3.9-4.1c2.5-2.2,4.5-5.3,6.7-7.8c0.2-2.6,2.6-3.5,3.1-6.1c1.3-2.1,1.8-4.9,3.3-6.9c-0.5-2.2,1.7-3.2,1.4-5.2
			c1.6-4.4,2.2-9,1.9-13.6c1.1-1.7-0.3-3.3,0.2-5.1c0-1.4-0.3-2.8-0.7-4.2c1.3-4.2-2-6.3-1.7-10.1c-0.4-3.2-2.8-5.5-2.7-8.7
			c-1.7-1.2-1.7-3.1-3.4-4.2c0-1.4-1.3-1.9-1.8-3.2l0.1-0.2c0.3,0.1,0.5,0.1,0.8-0.1c0.3-1.6-2.6-1.2-2-3.1
			c-0.7,0.5-1.9,1.2-2.2-0.2c-0.7,0.2-0.9-1.1-1.6-1.4c-2-1.3-3-3.6-5.4-4.3c-0.9-2.2-3.7-1.9-4.3-4.1c-1.5-0.3-1.6-2.4-3.4-2.1
			c-2.8-2-6.4-2.5-8.9-4.7c-3.2-0.4-6.6-2.8-9.9-2.6c-5.1-1.4-10-1.2-15.3-2c-2.4,0.8-4.8-0.4-7,1c-1.6,1.6-3.9-0.6-5.6,0.9
			c-1.4,0.7-4.2,0.3-5.6,1.7c-4.4,1-8.6,2.9-12.3,5.5c-1.6,0-1.8,1.6-3.1,2c-1.8,2-3.7,3.8-5.7,5.6c0.1,2-2.3,0.5-2.3,2.3
			c-1.6,0.4-1.3,2.7-2.7,3.4c-0.4,2.2-2.8,2.2-3.1,4.4c-0.9,0-0.8,1.7-1.3,1.8c-1.4,1.9-2,5.1-3.2,6.5c-1.5,3.5-2.6,7.1-3.3,10.9
			c-2.1,4.4-0.8,8.3-1.3,12.7c0.1,3.4,0.7,6.3,0.6,9.8c1,0.7,0.2,2.3,1.1,3.1c-0.6,3.3,1.5,6,2.6,9c1.4,3.2,3.2,6.3,5.2,9.1
			l-0.1,0.4c-2.7-1.4-4.2-4.6-5.9-6.7c0.1-1.7-1-2.5-1.4-4c-0.9-2.5-1.5-5.3-2.7-7.6c0.5-1.4-0.1-2.7-0.4-4c0.4-1.2-1.2-1.8-0.6-3.1
			c-0.5-3.5-0.4-7.1,0.2-10.6c-0.3-0.5,0.3-1.4-0.2-2.1c0.3-1.5,0.5-2.9,0.7-4.4c0.4-2,0.7-3.7,1.3-5.7c-0.3-0.5,0.2-1.2,0.3-1.7
			c0.8-0.5,0.1-2,1.1-2.3c1.1-1.5,0.9-3.4,1.4-4.8c1-0.5,0.7-1.5,1.4-2.3c1.9-3.1,3.6-6.2,5.1-9.5c2.5-1.7,4.4-4.7,6.5-7.1
			c2.3-1.7,4-3.4,6.4-4.9c3.8-2.3,6.6-5.3,11.3-6.3c3.3-2,6.8-2.2,10.2-3.7c3.9-0.2,7.5-2.3,11.8-1.8c1.6,0,3.8-1.1,5.4-0.1
			c2,0,4,0.3,6,0.7c5.1,1.2,10.8,2.3,15.8,4.3C196,6.8,198.5,6.7,200,7.8z"/>
		<path class="st0" d="M211.8,25.7c-0.9-3.4-4-5-6.3-7.3l-3,2.9c-0.2,0.9-0.7,1.6-1.4,2.2c-0.1,1.4-2.1,2.3-2.4,3.6
			c-0.4,0.7-2.2,1.4-1,2.5c2.2-0.6,2.6,2,4.4,3.1c0.8-0.6,1.9-0.6,2.7-0.1c2.3-0.2,4.9-2.6,6.2-4.7L211.8,25.7z M208.2,28.7
			c-0.9,0.9-2,1.4-3.3,1.5c-1.5-0.8-4.2-1.1-4.2-3.1c1.3-1.2,2.4-2.7,3.2-4.2c0.7-0.4,1.3-1.5,2.2-1.2c0.9,1.1,2.3,2,2.9,3.4
			C208.4,26.2,209.4,27.8,208.2,28.7z"/>
		<path class="st0" d="M184.1,104.9c-3.1-1.7-6.4-0.5-9.7-0.3l0.1,4.1c0.5,0.7,0.7,1.6,0.7,2.5c1,1,0.3,3.1,1,4.2
			c0.3,0.8-0.4,2.5,1.2,2.4c1.1-2,3.3-0.5,5.3-1.1c0.1-1,0.8-1.8,1.8-2.1c1.4-1.9,1.4-5.4,0.7-7.7L184.1,104.9z M183.9,109.6
			c0.1,1.2-0.3,2.5-1.1,3.4c-1.6,0.6-3.6,2.3-5.1,1c0-1.8-0.4-3.6-1-5.2c0.2-0.8-0.2-1.9,0.6-2.5c1.4,0.1,3-0.3,4.5,0.1
			C182.1,107.8,184.1,108.2,183.9,109.6z"/>
		<path class="st0" d="M177.4,7.7c-2.8-1.9-6.1-1.1-9.3-1.4l-0.4,3.8c0.4,0.7,0.5,1.6,0.4,2.4c0.8,1-0.1,2.9,0.5,4
			c0.2,0.8-0.7,2.3,0.8,2.3c1.3-1.8,3.2-0.1,5.2-0.4c0.2-0.9,1-1.6,2-1.7c1.5-1.6,1.9-4.8,1.6-7.1L177.4,7.7z M176.6,12
			c-0.1,1.2-0.6,2.2-1.4,3.1c-1.6,0.4-3.8,1.7-5,0.4c0.2-1.7,0.1-3.3-0.3-4.9c0.3-0.7,0-1.8,0.9-2.2c1.4,0.2,2.9,0,4.3,0.6
			C175.1,10.2,176.9,10.7,176.6,12z"/>
		<path id="Trazado_15" class="st1" d="M222.6,29.5l-0.4,0.2c0-0.8-0.9-0.6-1.2-1C222,27.8,221.7,29.3,222.6,29.5z"/>
		<path id="Trazado_18" class="st0" d="M194.8,29.6c1.8,0.7,2.4,2.3,4.1,3.2c3,3.3,5,6.5,7.9,9.9c1.9,3.2,2.2,6.6,3,9.8
			c0.3,1.5,0.7,2.9,1.3,4.3c-0.4,1.3,0.7,2.4,0.5,3.7c0.2,0.3,0.2,1.3-0.2,1.5c0.4,1.1-0.7,2.9,0.3,3.9l-0.8,2.3l-0.4-0.2
			c-0.9,1,0.6,2.2-0.6,3.2c0,3.1-0.8,6.1-2.3,8.8c-0.9,0.3-1,1.4-1.4,2c-0.2-0.2-0.4,0-0.6,0.1c0,0.4,0.6,0.4,0.2,0.9l-0.3-0.1
			c-0.5,0.6-0.7,1.3-0.5,2c-0.4,0-0.7,0.7-1,0.1c0.1-0.3,0.2-0.5-0.1-0.8c0.4,0,0.5-0.4,0.6-0.7c-0.4-0.2-0.3-0.3-0.1-0.8l0.2,0.1
			l2.2-5.5c0.2,0.1,1.1,0.6,1.2-0.2l0.1-0.2l-0.8-0.3l0.3-0.8h0.1c1-2.4,0.9-5.4,1.8-7.5c0.2-4.4,0.6-9.1-0.9-13.3
			c0.4-2-0.9-4-1.5-5.8c0-1.6-1.7-3-0.8-4.7c-0.1-1.5-2.3-1.5-2.3-2.9c-2-1-2.1-3.8-3.9-4.7c-0.6-1.8-2.1-3.2-3.9-3.7
			c-0.1-1.8-1.8-0.9-2.3-2.3c-1.6-0.9-2.7-2.3-4.5-2.5c-1-1.7-4-1.1-4.8-3c-1.5,0.4-3.3-1-4.9-0.7c-0.5-0.6-1.2-0.9-2-0.8
			c-0.8,0.1-1.8-0.5-2.7-0.2c-2-0.8-3.5,0.2-5.3-0.5c-1.3,0.1-2.6,1.1-3.9,0.3c-1.2,0.4-2.8,0.3-4,1.2c-1.9-0.6-4.4,0.6-5.9,1
			c-0.8,0-1.1,1.3-1.9,0.7l-0.1,0.5c-1.5-1.2-1.7,1.2-2.8,1.3c0,1-0.8,0.5-1.4,0.7c-1.8,0.4-2.9,2.8-4.7,3.5c-2.2,2-3.9,4.6-6,6.9
			l-0.4,1.2l-0.3-0.1c-1.1,1.3-1.2,3.5-2.6,4.5c-0.9,4.2-4.8,7.7-3.5,11.7c-1.3,2.9,0.5,5-0.2,7.9c-0.1,3.6,1.3,6.7,2.4,10
			c1.9,5.7,5.8,12.5,11.1,16.4c1.8,3,5.8,3.7,8.7,5.7c4.7,2.6,10.4,3.2,15.3,4.1c3.3-0.3,7-0.1,10.2-1c6.4-2.2,13.5-5.3,18.2-10
			c1.2,0.4,1.6-1.7,2.6-0.1c-1.8,1.8-3.7,4.1-6.3,5.6c-1.4-0.4-1.7,1.3-2.6,1.6c-1.8,0.1-3,1.7-4.8,2c-0.1,1.5-1.9,0.5-2.1,1.7
			c-2.1-0.4-3.5,0.7-5.2,1.4c-1.6-1.9-3.8,1.6-5.9,0.4c-2.3,0.7-4.6,0.3-6.6,0.4c0.1-0.2-0.2-0.5-0.2-0.7c-4.4,0.1-8.8-1.7-12.7-3
			c-2.6-1.1-5.2-1.9-6.9-4.1c-3.1-2.3-6.9-4.6-8.2-8.2c-1.3-1.9-3.7-3.5-4-6c-1.4-0.8-0.6-1.6-1.4-2.5c-1.7-2.8-2.3-6.3-3.1-9.7
			c0.3-1-0.3-1.8-0.2-2.7c-0.6-2.5-0.1-5.8-0.6-8.2c1.4-3.2,1.2-6.5,2.6-9.7c1.2-0.7,1-2.5,1.9-3.4c-0.8-1.3,1.4-0.9,0.7-2.2
			c1.7-3,3.6-5.8,5.9-8.3c0.6-0.5,1.3-1.3,2-1.8c2.4-2,5-3.9,7.5-5.8c2,0.5,2-2.5,4.2-1.8c2.9-2.4,7.6-1.8,11.1-3
			c2.4,0.5,4.8-0.6,7.3,0c3-0.4,5.6,1.8,8.7,1.3c4.4,0.6,8.5,3.2,12.1,5.7L194.8,29.6z"/>
		<path id="Trazado_24" class="st0" d="M192.9,42.6l-0.3,0.8c-0.5-0.4-1-0.9-1.4-1.5l0.3-0.5C192.1,41.8,192.8,42,192.9,42.6z"/>
		<path id="Trazado_25" class="st0" d="M189.8,41.1c-0.6,0.6-1.8,0.2-2.4,1C186.9,41.2,188.9,40.1,189.8,41.1z"/>
		<path id="Trazado_27" class="st0" d="M198.4,45.3c-0.3,0.7-0.2,2-1.1,2c0.4-1,0.6-2.1,0.8-3.2C199.1,43.9,197.8,45,198.4,45.3z"/>
		<path id="Trazado_28" class="st0" d="M161.9,31.9c-1,2.5-1.6,5.1-2,7.8h0.1c-1.8,0.7,0.1,2.8-1.6,3.3c-0.9-0.7-0.3-1.9,0-2.7
			c0.7-1.1,0.9-2.5,0.5-3.8c-1.6,0.8-1.7,3.2-3.1,4.1c-0.1,0.8-0.5,0.3-0.6,0.5c0.5-1.9-0.4-3.6,0-5.6l-0.5-0.8
			c-0.7,0.2-1.1,0.9-1.1,1.6c0.5,0.3-0.1,0.7-0.1,1.2c-0.6,0.1-0.5,1.2-1,1.5c0.3,0.3,0.3,0.8,0.1,1.1c-0.3-0.3-0.7,0.4-0.8,0.9
			c-0.2-1.1,0-2.3,0.4-3.3c1-0.2,0-1.8,1.1-2.2c-0.4-0.9,0.8-1.9,0.6-2.7l1-3c1.9,0,0.6,1.6,1.2,2.5c0,1.8-0.5,3.5-0.1,4.9
			c1.5,1,1.8-1.3,2.8-2.1C160,34.2,160.2,31,161.9,31.9z"/>
		<path id="Trazado_28_1_" class="st0" d="M142,11.9c1.5,3.1,3.5,5.9,5.8,8.4l0.1-0.1c-1,2.7,2.9,1.9,1.7,4.4
			c-1.5,0.5-2.2-1.1-2.7-2c-0.4-1.8-1.6-3.1-3.2-3.5c-0.7,2.6,1.5,4.6,1.1,7c0.7,0.7-0.2,0.9,0,1.2c-1.4-2-4-2.1-5.5-4.2l-1.2,0.1
			c-0.5,1-0.2,2.1,0.6,2.5c0.7-0.4,0.6,0.7,1.1,0.9c-0.5,0.9,0.7,1.5,0.5,2.4c0.6-0.1,1.1,0.2,1.2,0.7c-0.6,0.2-0.3,1.3,0.1,1.7
			c-1.3-0.6-2.3-1.7-2.9-3c0.7-1.5-1.8-1.3-1.1-3.1c-1.2-0.2-1.2-2.4-2.1-2.8l-2-3.5c1.8-2.4,2.2,0.4,3.6,0.4
			c1.8,1.3,2.9,3.2,4.7,3.8c2.5-1.2,0.4-3.3,0.7-5.1C142.4,16,139.5,13.4,142,11.9z"/>
		<path id="Trazado_28_2_" class="st0" d="M159.1,104.5c-1.6,2.3-2.8,4.8-3.6,7.4l0.1,0c-2.2,0.3-0.3,2.8-2.4,3
			c-0.9-0.9,0-2,0.4-2.7c1.1-1,1.5-2.3,1.3-3.7c-2,0.5-2.5,2.9-4.3,3.5c-0.3,0.8-0.7,0.2-0.8,0.4c0.9-1.8,0.1-3.7,0.9-5.6l-0.5-0.9
			c-0.8,0.1-1.5,0.7-1.5,1.4c0.6,0.4-0.2,0.7-0.3,1.2c-0.8,0-0.8,1.1-1.4,1.3c0.3,0.4,0.2,0.8-0.1,1.2c-0.3-0.3-0.9,0.3-1.1,0.7
			c0-1.2,0.3-2.3,1-3.3c1.2-0.1,0.3-1.8,1.7-2c-0.3-1,1.2-1.8,1.1-2.6l1.7-2.8c2.2,0.4,0.5,1.7,1,2.7c-0.3,1.8-1.2,3.4-1,4.8
			c1.7,1.3,2.4-1,3.7-1.5C156.4,106.4,157.2,103.3,159.1,104.5z"/>
		<path class="st0" d="M173.2,35.4c-1.1,3.2-2.3,7-3.7,10.2c-0.1,0.4,0,0.7,0.2,1c0.7-1.6,1-4.3,2.8-5c3.3,0.2,0.9,4.2,1.8,5.9
			c1.2-1.3-0.6-3.4,1.2-4.7c0.5-0.6,1.2-1.8,2-2l0.9-2.6C177.7,36,175.2,35.8,173.2,35.4z M177,39.3c-0.3,1.1-1.3,1.8-2.4,1.7
			c-1.6,0.1-1.8-1.5-1.7-2.7c0.4,0.1,0.6-0.3,0.7-0.7l-0.1-0.3C174.3,36.3,177.3,37.5,177,39.3z"/>
		<path class="st0" d="M192,11.2c-0.9-2.4-3.7-2.9-6-3.3l-1-0.2l-0.9,2.4c-1.1,3-2.3,6.1-3.6,8.8l0,0.1c-0.1,0.5,0,1.1,0.4,1.5
			l0.5,0.6l0.3-0.7c0.2-0.5,0.4-1,0.6-1.5c0.5-1.5,1.1-3,2.4-3.5c0.6,0.1,1.1,0.2,1.3,0.5c0.4,0.5,0.3,1.6,0.2,2.6
			c-0.1,1.1-0.3,2.1,0.1,3l0.3,0.6l0.5-0.5c0.8-0.8,0.7-1.8,0.6-2.6c-0.1-1.1-0.1-1.7,0.7-2.3l0.1-0.1c0.1-0.2,0.3-0.3,0.5-0.6
			c0.5-0.6,1.1-1.3,1.7-1.4l0.3-0.1l1.2-3.2L192,11.2z M186.3,10.5c0.5-0.1,1.2,0,2,0.3c0.3,0.2,1.2,0.7,1.1,1.5
			c-0.3,0.9-1.2,1.5-2.4,1.5c-0.5,0-0.9-0.1-1.1-0.3c-0.3-0.3-0.4-0.8-0.4-1.6c0.1,0,0.1-0.1,0.2-0.1c0.5-0.3,0.6-0.8,0.6-1
			L186.3,10.5L186.3,10.5z"/>
		<path id="Trazado_31" class="st0" d="M191.5,46.7l-0.3-0.1l0.3-0.8c0.9,0.2,0.5-1.1,1.1-1C192.7,45.3,192.1,46.6,191.5,46.7z"/>
		<path class="st0" d="M167.5,40.7c0.5-0.7-0.6-0.9,0.1-1.5c-0.9-1.8,1.2-4.1,0.1-5.6c-1-1-0.5,0.8-1.4,0.6c-1,1-0.9,3-2.1,3.8
			c-1.5,1-1.6,3.4-3,4.4c-0.1,0.6-0.9,1.4-0.2,1.8c0.3-0.5,0.9-0.4,1-1.3c1.1-1.9,3-0.1,4.1,0.7c0.5,0.4,0.6,1.3,0.9,1.7
			C167.2,43.6,168.8,42.1,167.5,40.7z M166.2,41.1c-0.2,0.4-0.6,0.7-1,0.6c-0.3-0.5-2-0.3-1.3-1.2c0.5-0.8,1.7-1.9,1.2-2.9
			c0-1,0.9-0.3,1.2-1.1C167.5,37.4,166.4,39.6,166.2,41.1z"/>
		<path id="Trazado_33" class="st0" d="M196.8,51.4c-1.2,0.8-0.4,2.2-1,3.3c-0.8,0-0.3-1.1-0.4-1.7l1.7-5.1
			C197.3,49.1,197.2,50.3,196.8,51.4z"/>
		<path id="Trazado_34" class="st0" d="M190,47.4l-0.4-0.1c0.1-0.7,0.6-0.5,1.1-0.8C190.9,46.9,190.3,47.1,190,47.4z"/>
		<path id="Trazado_35" class="st0" d="M187.9,47.8c-0.1,1.1-1.4,0.6-1.8,1.3c-0.9,0.9-2,1.8-0.6,2.9l1.1,0.5
			c-1,0.8-1.4-0.2-2.4-0.6c0-1.1,0.3-2.2,1.1-3.1C186.3,48.6,186.9,47.5,187.9,47.8z"/>
		<path id="Trazado_36_1_" class="st0" d="M198.3,14.8c0.4,0.9,1.8,1.9,1.1,2.7c-2.3,1.2-3,3.8-5.4,5c-0.5,1.1-1.3,2.3-2.6,2.3
			c-0.6,0-0.7-0.8-1.1-1.1l7-8.5L198.3,14.8z"/>
		<path id="Trazado_37" class="st0" d="M187.9,52.8l-0.1,0.4l-0.8-0.4C187.1,52.7,187.9,52.1,187.9,52.8z"/>
		<path id="Trazado_40" class="st0" d="M184.9,58.9c-0.4-0.2-0.9-0.8-1.4-1.2c0.2-0.4,0.6-0.7,0.9-0.5
			C185.6,57.2,184.7,58.5,184.9,58.9z"/>
		<path id="Trazado_41" class="st0" d="M190.1,64c0.8,1-1.1,3.1,1,3.2c2.1-1.1,2.3-3.8,4.4-5.2l0.5,0.7c-1.1,2.8-0.7,6.1-2.5,8.5
			c0.4,0.5-0.2,1-0.2,1.5l-0.4,0.2c-0.7-1.8,0.6-3.6,0.7-5.6c-0.2-1.3-1.5,0-1.8,0.3c-0.3,0.9-1,1.7-1.9,2c-0.9-1.5,0.2-4.4-1.1-5.6
			c-0.1-1.3,0.1-2.6,0.5-3.8l0.7-0.7C191,60.8,189.1,62.7,190.1,64z"/>
		<path id="Trazado_42" class="st0" d="M177.6,57.9l-0.4,0.1c-0.1-0.7-0.5-1.4-1.2-1.2c-0.1,1.6-2.3,3.5-1,5c-0.4,0.6-1,0.3-1.5,0.1
			c-0.3-1.5,0.8-3.2,1.3-4.9l0.5-0.1c-0.2-0.7,0.1-1.4,0.6-1.8c0.6,0,1.4,0.1,1.6,0.7C177.6,56.5,177,57.4,177.6,57.9z"/>
		<path id="Trazado_43" class="st0" d="M172.9,54.3c-0.3,2.4-0.4,6.4-3,7.3c-0.7-0.5-1.1-1.3-1-2.1c0.8-0.1,1.2,1,1.9,0.1
			c0.3-1.2,0.5-2.8,1.6-3.5c0.2-1-1.1-0.7-1.4-1.3l0.6-1.2L172.9,54.3z"/>
		
			<rect id="Rectángulo_1" x="182.6" y="56.6" transform="matrix(0.3281 -0.9446 0.9446 0.3281 69.1647 211.0582)" class="st0" width="0.6" height="0.6"/>
		<path id="Trazado_44" class="st0" d="M162.7,51.3c0,0.8,0,1.6,0,2.4c0.6,0.4-0.6,1.2,0.2,1.6c-0.3,0.5-0.1,1.5-1,1.5
			c-0.3,1.3-1.4,2.8-0.9,3.9c-0.9,0.8-1.2,2.1-2.6,2.3l-2.5-1c1-0.5,2.5,0.1,3.8-0.4c1.2-2.4,0.4-5,1.8-7.1c0.3-0.6,0.5-1.4,0.6-2.1
			c-0.7-1.3-2.5-1.5-3.8-1.8c-1.1,0.5-1.9,1.6-1.9,2.9c0.6,1.1-1.1,1-0.5,2.1c-0.9,2.1-1.3,4.2-0.5,6c-0.4,0.1-1.1,0.4-1.1-0.2
			c-0.5-1.2,0.5-3.3,0.2-4.5c0.2-0.4,0.1-1.1,0.7-1.3c0.3-1.8,0.9-4.6,2.4-6C159.3,49.1,161.2,50.4,162.7,51.3z"/>
		<path id="Trazado_45" class="st0" d="M185.2,62.5c-1.2-1.5,0-2.2,0.3-3.5C186,59.9,185.7,61.1,185.2,62.5z"/>
		<path id="Trazado_46" class="st0" d="M152.6,49.7l-3.4,10.1c-1.3-0.7,0.5-2.6,0.2-4s1.6-1.7,0.7-3.1l1.8-4.7
			C152.6,48.2,152.5,49,152.6,49.7z"/>
		<path id="Trazado_48" class="st0" d="M181.2,62.8c1.2,0.2,2.5,0.7,3.6,0c-0.3,0.8-0.3,2.4-1.8,1.7c-1.2-0.2-2.6-0.9-3.6,0.2
			c-0.2,1.1-0.5,2.1-1.1,3.1c0.1-1.9,1.3-4.2,1.4-6.3h-0.1l1.3-2.4C181.4,60.1,179.7,61.9,181.2,62.8z"/>
		<path id="Trazado_49" class="st0" d="M176.7,60.6c-0.5,0-0.5,0.6-0.5,0.9c-1.6-0.3,0.1-2.1,0.1-3.2l0.5-0.1
			C177.1,59.1,177,59.9,176.7,60.6z"/>
		<path class="st0" d="M152.6,22.2c4-0.3,0.4-4.8,3.5-6.2c1.9-1.2,3.4-0.1,5,0.7l-0.3,0.4c0.2,0.6,0.6,1.1,1.1,1.4
			c1-0.2,3.1-0.4,2.4-1.8c-2.1-0.1-2.8-2.3-4.3-3.1c-0.6-2.5-3.4-3.3-4.7-5.3c-0.6-0.3-1.7,0.2-2.3,0.5
			C152.4,13.4,152.3,17.8,152.6,22.2z M156.7,14c-0.6,0-1,0.6-1.5,0.1c-0.2-0.9-0.9-2.1,0-2.6C156.3,11.4,156.6,13.3,156.7,14z"/>
		<path class="st0" d="M159.4,117c3.8,1.2,2.2-4.3,5.6-4.4c2.2-0.4,3.1,1.2,4.3,2.5l-0.5,0.3c0,0.6,0.2,1.2,0.5,1.8
			c0.9,0.2,3,0.8,2.9-0.7c-1.9-0.9-1.7-3.2-2.8-4.5c0.4-2.6-1.9-4.4-2.4-6.7c-0.4-0.5-1.6-0.5-2.3-0.4
			C162.7,108.8,160.9,112.8,159.4,117z M166.4,111c-0.5-0.2-1.1,0.2-1.4-0.5c0.1-1,0-2.3,1-2.4C167.1,108.5,166.5,110.3,166.4,111z"
			/>
		<path id="Trazado_51" class="st0" d="M186.1,69.6c0.1-1.2,0.6-2.3,1.4-3.2C186.7,67.5,187.7,69.7,186.1,69.6z"/>
		<path id="Trazado_53" class="st0" d="M174,75.3c0.1,1.7-1.1,3.1-1.6,4.6c-0.8,0.6-2.4-0.2-3.6,0.5c-0.6,0.9-1.9,0.8-2,2
			c0.9,1.6,4.6,0.7,4.6,2.7l-0.9,0.8c-1.4-1.2-4.7-1.5-5.7-3.4c0.2-1.7,1.4-2,1.9-3.4c1.7-0.6,4.2,0,5.8-1.2
			c-0.8-0.5,0.1-1.1-0.1-1.7c-0.7-1.1-1.9-1.7-3.2-1.8c-0.8,0.1-1.3,1.1-2,1c-0.2-0.8,0-1.6,0.6-2.2C169.9,72.2,173.2,73.2,174,75.3
			z"/>
		<path id="Trazado_54" class="st0" d="M152.9,69.6c-2.1,2.8-1.3,6.6-3.8,9.2c-0.8-2.5,1.5-5.8,1.9-8.7c-0.3-0.6,0.3-1.4,0.5-2.1
			c0.9,0,0.7-2,1.8-0.9L152.9,69.6z"/>
		<path id="Trazado_55" class="st0" d="M184.8,80c-0.7,2-1.2,3.8-3.3,4.2c-1.5-0.1-3,0.3-4.2,1.1l-0.6,0.7c0.6,3.1,6.4,0.3,4.4,3.8
			c-1.7-1-3.6-1.7-5.5-2.2c-0.8-1,0.4-2.3,0.6-3.5c2.1-1.6,5.2-1,6.9-3.4c-0.4-0.5-0.3-1.2-0.4-1.8c-1.6-0.5-3.2-0.8-4.7-0.1
			c-0.6-0.6,0.4-1.6,0.8-2.2C181.3,76,184,77.5,184.8,80z"/>
		<path id="Trazado_56" class="st0" d="M203.9,86.6c-0.1,0-0.4-0.2-0.5,0c0,0.7-0.7,0.2-1.1,0.4c-0.2-0.7,0.4-1,0.6-1.5l1.3,0.4
			L203.9,86.6z"/>
		<path class="st0" d="M157.6,69.2c-0.6,0.2-0.7,1.5-1.5,1.6l-0.4,1.6c-0.7,3.6,3.6,3,5.2,4.9c0,1.2-0.8,2.3-2,2.8
			c-2.1,0.5-3.6-1.6-4.4-2.6c-1.1,0.7-0.3,1.9-0.3,2.7c1.1,1.5,3,0.7,4.4,1.7l1.6-1c2.2-1.9,3-5.9,3.4-8.7
			C162.1,70.6,160,68.1,157.6,69.2z M159.7,74.8C159.7,74.8,159.7,74.8,159.7,74.8c-0.2,0-0.3,0-0.4-0.1c-0.7-0.2-1.4-0.5-1.9-1.1
			c0.3-1,0.9-1.9,1.8-2.4c1,0.3,1.9,1,2.4,2C161.4,74.1,160.6,74.8,159.7,74.8z"/>
		<path id="Trazado_58" class="st0" d="M201.8,88.7c-0.2,0.2-0.5,0.2-0.8,0.1c0.3-0.4-0.2-0.7-0.2-1C202,86.3,201.9,87.7,201.8,88.7
			z"/>
		<path id="Trazado_59" class="st0" d="M199.4,114.3c-0.3-0.4,0.2-0.8,0.6-0.8l-0.3,0.9L199.4,114.3z"/>
		<path id="Trazado_62" class="st0" d="M195.9,117c-0.9,0,0.5,2-0.9,1l0.1-1.4L195.9,117z"/>
		<path id="Trazado_63" class="st0" d="M194.5,118.3c-0.2-0.1-0.3,0-0.5,0.1l0.4-1.1C194.9,117.4,194.5,117.9,194.5,118.3z"/>
		<path id="Trazado_65" class="st0" d="M192.9,118.6c-0.3,0.4-0.8,0.6-0.4,1.2c0,0.2-0.2,0.2-0.2,0.3c-0.9-0.4,0-1.1-0.9-1.6
			C191.8,118.3,192.6,118.2,192.9,118.6z"/>
		<path id="Trazado_66" class="st0" d="M122.9,96.2c2.9,3.6,6,6.9,9.4,10c1.8,1.9,5.2,2.2,6.4,4.6c1.6,0.9,3.2,2,4.7,3.1
			c5.5,1.7,10.6,4.8,16.1,5.6c5.5,1.3,11.5,0.7,17.3,0.6c3.2,0.4,6.3-1.4,9.3-0.6l0.4-0.5c0.5,0.3,0.8,0.7,1,1.3
			c-1.1,1.3-3.2,0.6-4.5,1.5c-2.4-0.4-4.5,1.9-6.8,0.7c-0.6-0.4-1,0.6-1.5,0.4c-2.7-0.2-5.4-0.3-8.2-0.1c-1.1-0.3-2.1-0.9-3.1-0.3
			c-2.5-1.4-5.2,0.1-7.3-1.7c-1.7-1-3.7,0.3-4.9-1.7c-5.1-1.7-9.9-4.2-14.2-7.3c-1.3,0.4-1.3-1.8-2.9-1.8c-0.2-0.8-1.1-1-1.8-1.3
			c-1.4-1.8-4-2.8-4.6-5c-1.4-0.8-2.1-2.6-3.2-3.8c0.1-1.9-2-1.9-2.2-3.5c-0.7-0.7-1.2-1.5-1.4-2.4
			C122.4,93.9,122.3,95.4,122.9,96.2z"/>
		<path id="Trazado_68" class="st0" d="M191.1,119.3c-0.4-0.1-0.9,0.3-1.3-0.3l0.3-1C190.4,118.4,191.3,118.5,191.1,119.3z"/>
		<path id="Trazado_69" class="st0" d="M189.5,120.1l-0.2,0.5c-0.3-0.4-1-0.8-0.5-1.4C189,119.6,189.5,119.7,189.5,120.1z"/>
	</g>
	<g id="Meet">
		<g id="MEET_OUR_TEAM">
			<g>
				<path class="st2" d="M2,49.5V11.3l-1-1.1C0.8,10,0.8,9.7,1,9.5c0.1-0.1,0.3-0.2,0.4-0.2h8.6c0.2,0,0.3,0.1,0.4,0.2l8.1,10.9
					l7.4-10.9c0.1-0.1,0.2-0.2,0.4-0.2H35c0.5,0,0.8,0.5,0.4,0.9l-1,1.1v38.2l1,1c0.2,0.2,0.3,0.5,0.1,0.8c-0.1,0.2-0.3,0.2-0.5,0.2
					h-9.6c-0.3,0-0.6-0.3-0.6-0.6c0-0.2,0.1-0.3,0.2-0.4l1-1V24l-7.4,10.4c-0.2,0.2-0.5,0.3-0.7,0.2c-0.1,0-0.1-0.1-0.2-0.2
					l-7.4-9.4v24.5l1,1c0.2,0.3,0.2,0.7-0.1,0.9c-0.1,0.1-0.2,0.1-0.4,0.1H1.5c-0.3,0-0.6-0.2-0.6-0.5c0-0.2,0.1-0.3,0.2-0.5L2,49.5
					z"/>
				<path class="st2" d="M49.2,51.5c-0.3,0-0.6-0.2-0.6-0.5c0-0.2,0.1-0.3,0.2-0.5l1-1V11.3l-1-1.1c-0.2-0.2-0.2-0.5,0-0.7
					c0.1-0.1,0.3-0.2,0.4-0.2H72c0.3,0,0.5,0.2,0.6,0.5v8c0,0.5-0.5,1-1,0.5l-1-1H58.2V26h9.4l1-1c0.2-0.3,0.5-0.3,0.8-0.2
					c0.2,0.1,0.3,0.3,0.2,0.6v9.2c0,0.3-0.3,0.6-0.6,0.6c-0.2,0-0.3-0.1-0.4-0.2l-1-0.9h-9.4v9.4h12.5l1-1c0.4-0.4,1-0.1,1,0.5V51
					c0,0.3-0.3,0.5-0.6,0.5L49.2,51.5z"/>
				<path class="st2" d="M86.2,51.5c-0.3,0-0.6-0.2-0.6-0.5c0-0.2,0.1-0.3,0.2-0.5l1-1V11.3l-1-1.1c-0.2-0.2-0.2-0.5,0-0.7
					c0.1-0.1,0.3-0.2,0.4-0.2h22.9c0.3,0,0.5,0.2,0.6,0.5v8c0,0.5-0.5,1-1,0.5l-1-1H95.2V26h9.4l1-1c0.2-0.3,0.5-0.3,0.8-0.2
					c0.2,0.1,0.3,0.3,0.2,0.6v9.2c0,0.3-0.3,0.6-0.6,0.6c-0.2,0-0.3-0.1-0.4-0.2l-1-0.9h-9.4v9.4h12.5l1-1c0.4-0.4,1-0.1,1,0.5V51
					c0,0.3-0.3,0.5-0.6,0.5L86.2,51.5z"/>
				<path class="st2" d="M123.6,18.3c-0.3,0.2-0.7,0.1-0.9-0.2c0-0.1-0.1-0.2-0.1-0.2V9.9c0-0.3,0.3-0.6,0.6-0.6h26.6
					c0.3,0,0.6,0.2,0.6,0.5c0,0,0,0.1,0,0.1v7.8c0,0.5-0.6,0.8-1,0.5l-1-1h-7.7v32.3l1,1c0.2,0.2,0.3,0.5,0.1,0.8
					c-0.1,0.2-0.3,0.2-0.5,0.2h-9.6c-0.3,0-0.6-0.3-0.6-0.6c0-0.2,0.1-0.3,0.2-0.4l1-1V17.3h-7.7L123.6,18.3z"/>
			</g>
			<g>
				<path class="st2" d="M3.7,101.3c-1.8-2.1-2.8-5.1-2.8-9.5V74.9c0-4.2,1-7.3,2.9-9.4c2.5-2.6,6.2-3.8,11.8-3.8s9.4,1.2,11.8,3.8
					c1.9,2.1,2.8,5.1,2.8,9.4v16.9c0,4.4-0.9,7.4-2.8,9.5c-2.5,2.6-6.2,3.8-11.8,3.8C9.9,105.2,6.1,103.9,3.7,101.3z M15.9,70.3
					h-0.8c-2.1,0-3.5,0.6-4.5,1.8c-0.9,1.5-1.3,3.2-1.2,5v12.6c0,5.6,3,6.8,5.7,6.8h0.8c2.1,0,3.6-0.6,4.6-1.8
					c0.9-1.5,1.3-3.3,1.2-5V77.1C21.6,71.4,18.6,70.3,15.9,70.3z"/>
				<path class="st2" d="M43.2,63.2c-0.3-0.4-0.2-0.9,0.4-0.9h9.5c0.6,0,0.8,0.6,0.5,0.9l-1,1.1v25.4c0,5.6,3.1,6.8,5.8,6.8h0.8
					c3.9,0,5.8-2.7,5.8-6.8V64.3l-1-1.1c-0.2-0.2-0.2-0.6,0-0.7c0.1-0.1,0.2-0.1,0.4-0.1H74c0.3,0,0.5,0.3,0.5,0.6
					c0,0.1,0,0.2-0.1,0.3l-1,1.1v27.5c0,9.2-5,13.4-14.6,13.4c-9,0-14.6-3.6-14.6-13.4V64.3L43.2,63.2z"/>
				<path class="st2" d="M87.7,63.2c-0.2-0.2-0.2-0.5,0-0.7c0.1-0.1,0.3-0.2,0.4-0.2h13.5c7.1,0,11.4,4,11.4,11.5v8.1
					c0.1,2-0.4,4.1-1.2,5.9c-0.8,1.8-2.2,3.2-3.9,4.1l4.8,10.6l1.1,1.1c0.4,0.2,0.1,1-0.5,1h-10.1c-0.3,0-0.6-0.2-0.6-0.5
					c0-0.2,0.1-0.4,0.2-0.5l0.8-1l-4.2-9.2h-2.5v9.2l1,1c0.6,0.6,0.2,1-0.3,1h-9.7c-0.3,0-0.6-0.2-0.6-0.5c0-0.2,0.1-0.3,0.2-0.5
					l1-1V64.3L87.7,63.2z M98.1,85.4c2.6,0,4.1-0.4,5.1-1.3s1.4-2.1,1.4-4.2v-4.2c0-2.2-0.4-3.6-1.4-4.3s-2.5-1.1-5.1-1.1h-1v15.1
					H98.1z"/>
			</g>
			<g>
				<path class="st2" d="M1.9,124.3c-0.3,0.2-0.7,0.1-0.9-0.2c0-0.1-0.1-0.2-0.1-0.2v-7.8c0-0.3,0.3-0.6,0.6-0.6H28
					c0.3,0,0.6,0.2,0.6,0.5c0,0,0,0.1,0,0.1v7.8c0,0.5-0.6,0.8-1,0.5l-1-1H19v32.2l1,1c0.2,0.2,0.3,0.5,0.1,0.8
					c-0.1,0.2-0.3,0.2-0.5,0.2H10c-0.3,0-0.6-0.3-0.6-0.6c0-0.2,0.1-0.3,0.2-0.4l1-1v-32.2H2.9L1.9,124.3z"/>
				<path class="st2" d="M42.1,157.5c-0.3,0-0.6-0.2-0.6-0.5c0-0.2,0.1-0.3,0.2-0.5l1-1v-38.2l-1-1.1c-0.2-0.2-0.2-0.5,0-0.7
					c0.1-0.1,0.3-0.2,0.4-0.2H65c0.3,0,0.5,0.2,0.6,0.5v8c0,0.5-0.5,1-1,0.5l-1-1H51.1v8.7h9.4l1-1c0.2-0.3,0.5-0.3,0.8-0.2
					c0.2,0.1,0.3,0.3,0.2,0.6v9.2c0,0.3-0.3,0.6-0.6,0.6c-0.2,0-0.3-0.1-0.4-0.2l-1-0.9h-9.4v9.4h12.5l1-1c0.4-0.4,1-0.1,1,0.5v7.9
					c0,0.3-0.3,0.5-0.6,0.6L42.1,157.5z"/>
				<path class="st2" d="M78.8,156.6l1-1l10.3-38.3l-0.6-1c-0.2-0.4-0.1-0.9,0.6-0.9h10c0.3,0,0.6,0.3,0.6,0.6c0,0.1,0,0.2-0.1,0.3
					l-0.7,1l10.3,38.3l1.1,1c0.2,0.3,0.2,0.7-0.1,0.9c-0.1,0.1-0.2,0.1-0.4,0.1H101c-0.3,0-0.6-0.2-0.6-0.5c0-0.2,0.1-0.4,0.2-0.5
					l1-1l-2.1-7.4h-9.4l-2,7.4l1,1c0.2,0.2,0.2,0.6,0,0.8c-0.1,0.1-0.3,0.2-0.5,0.2h-9.6c-0.3,0.1-0.6-0.1-0.6-0.4
					C78.5,156.9,78.6,156.7,78.8,156.6z M97.5,140.3l-2.7-9.7l-2.6,9.7H97.5z"/>
				<path class="st2" d="M125.4,155.5v-38.2l-1-1.1c-0.2-0.2-0.2-0.5,0-0.7c0.1-0.1,0.3-0.2,0.4-0.2h8.6c0.2,0,0.3,0.1,0.4,0.2
					l8.1,10.9l7.4-10.9c0.1-0.1,0.2-0.2,0.4-0.2h8.6c0.5,0,0.8,0.5,0.4,0.9l-1,1.1v38.2l1,1c0.2,0.2,0.3,0.5,0.1,0.8
					c-0.1,0.2-0.3,0.2-0.5,0.2h-9.6c-0.3,0-0.6-0.3-0.6-0.6c0-0.2,0.1-0.3,0.2-0.4l1-1V130l-7.4,10.4c-0.2,0.2-0.5,0.3-0.7,0.2
					c-0.1,0-0.1-0.1-0.2-0.2l-7.4-9.4v24.5l1,1c0.2,0.3,0.2,0.7-0.1,0.9c-0.1,0.1-0.2,0.1-0.4,0.1h-9.3c-0.3,0-0.6-0.2-0.6-0.5
					c0-0.2,0.1-0.3,0.2-0.5L125.4,155.5z"/>
			</g>
		</g>
		<g id="MEET_OUR_TEAM-2">
			<g>
				<path class="st3" d="M1.3,11.8c-0.3-0.4-1.2-0.9-1.2-1.3c0.1-0.5,0.5-0.9,1-1c0.6,0,1.2,0.2,1.8,0.2c0.2,0,0.6-0.1,0.8-0.1
					s0.6,0.1,0.8,0.1c0.3,0,0.6,0,0.9-0.1h0C5.5,9.6,5.8,9.5,6,9.5c0.4,0,0.8,0.2,1.1,0.2c0.9,0,1.5-0.1,2.2-0.1
					c0.6,0,1.5,1.3,1.8,1.6s0.4,1.1,0.8,1.4c0.4,0.3,0.8,0.7,1,1.2c0.3,0.8,0.8,1.5,1.4,2.2l1.2,1.2h-0.1c0.6,0.6,0.5,1.3,1,1.7
					c0.5,0.4,1,1,1.3,1.6c0.5-0.7,1-1.4,1.4-2.1c0.4-0.7,0.9-1.3,1.4-1.9c0.3-0.3,0.6-0.6,0.8-0.9c0.2-0.2,0-0.6,0.2-0.9
					c1.4-1.4,1.6-2.3,2.8-3.8c0.6-0.9,0.7-1.3,1.9-1.3c0.6,0,0.7,0.3,1.3,0.3c0.3,0,0.6-0.2,1-0.2c0.6,0,1-0.1,1.5-0.1
					c1.4,0,2.6,0.3,3.9,0.3c0.1-0.1,0.2-0.1,0.2-0.1c0.3,0,0.5,0.5,0.5,0.7c0,0.4-0.6,1-0.9,1.2v-0.1l-0.2,0.2
					c0,0.6,0.1,1.2,0.1,1.8c0,0.4-0.2,0.7-0.2,1.1c0,1,0,2,0.2,3c-0.1,0.2-0.1,0.5-0.2,0.7c0.1,0.5,0.1,1-0.1,1.4
					c0.1,0.3,0.1,0.7,0.2,1v-0.1c0.1,0.3,0.1,0.6,0.1,0.9c0,0.2-0.2,0.5-0.2,0.7s0.2,0.5,0.2,0.7c0,0.4-0.2,0.7-0.2,1.1
					c0.1,0.1,0.1,0.2,0.1,0.5c0,0.6-0.2,0.7-0.2,1.3c0,2.5,0.2,4.7,0.2,7.2c0,1.4-0.1,2.7-0.1,4.1s0.2,2.8,0.2,4.1
					c0,0.6-0.3,0.8-0.3,1.2c0,1.2,0.2,2.4,0.2,3.6c0,0.6-0.1,1-0.1,1.5c0,0.3,0.2,0.6,0.2,0.9s-0.2,1.2,0.1,1.4
					c0.3,0.4,1.1,0.6,1.1,1.3c0,0.3-1.4,0.9-1.7,0.9c-0.2,0-0.2-0.1-0.3-0.2V52c-0.1-0.1-0.2-0.1-0.4-0.1s-0.7,0.2-1.1,0.2
					s-0.8-0.2-1.2-0.2s-0.7,0.2-1.3,0.2s-1.2-0.2-1.8-0.2c-0.4,0-0.7,0.2-1.1,0.2c-0.6,0-2.3-0.1-2.3-0.6c0-0.9,1-1,1.3-1.7
					C25,49.7,25,49.6,25,49.4s-0.1-0.2-0.1-0.5s0.2-0.5,0.2-0.8S25,47.7,25,47.4c-0.1-0.3-0.1-0.6-0.1-0.9c0-0.6,0.2-1.1,0.2-1.7
					c0-0.3-0.2-0.6-0.2-0.9s0.2-0.6,0.2-1c0-0.6-0.2-0.8-0.2-1.4s0-0.9,0-1.4s0.2-1.1,0.2-1.8v-2.4c0-0.3-0.2-0.7-0.2-1
					s0.2-0.7,0.2-1.1c0-0.6-0.2-1.3-0.2-1.9c0-0.2,0-0.5,0.1-0.7v0c0.2-0.9,0.2-1.9,0.2-2.9c0-0.9-0.3-1.4-0.3-2.3
					c0-0.3,0.1-0.5,0.2-0.8v0.1l0.1-0.2V25l-0.6,0.6h0.1c-0.5,0.5-0.9,1.1-1.2,1.7c-0.2,0.7-1.1,1.1-1.5,2.2v-0.1
					c-0.1,0.3-0.8,1-1,1.2H21c-1,1.5-1.9,2.8-2.8,4.3c-0.1,0.3-0.4,0.4-0.6,0.5c-0.4,0-1.2-1.3-1.4-1.5h0.1
					c-0.7-0.6-1.3-1.4-1.8-2.2c0-0.1,0-0.1-0.1-0.2l-0.2-0.3c-0.2-0.2-0.4-0.5-0.7-0.9L10,26.1c-0.1,0.3-0.1,0.7-0.2,1
					c0,0.2,0.1,0.3,0.1,0.6v-0.1c0.1,0.3,0.1,0.5,0.1,0.8c0,1.2-0.1,2.1-0.1,3.3c0.1,0.6,0.1,1.3-0.1,1.9c0,0.3,0.2,0.6,0.2,1
					c0,0.6-0.2,1-0.2,1.6c0,1,0.2,1.9,0.2,2.9c0,0.6-0.2,0.9-0.2,1.3c0,0.2,0,0.4,0.1,0.5v-0.1c0.1,0.2,0.1,0.5,0.2,0.7
					c0,0.5-0.2,6.2-0.2,6.3v-0.1c-0.1,0.1-0.1,0.3-0.1,0.6c0.1,0.6,0.2,1.3,0.3,1.9c0.3,0.4,1,0.9,1,1.4c-0.1,0.4-0.4,0.7-0.8,0.7
					c-0.2,0-0.4-0.3-1-0.3c-0.2,0-0.2,0.1-0.5,0.1S8.4,51.8,8,51.8c-0.9,0-1.5,0.3-2.4,0.3C5.3,52.1,5,52,4.8,52S4.4,52.1,4,52.1
					c-0.6,0-0.8-0.2-1.4-0.2c-0.3,0-0.6,0.2-1,0.2c-0.2,0-0.3-0.1-0.6-0.1c-0.1-0.1-0.2-0.1-0.5-0.1S0.1,52,0.1,51.6
					c0-1,1.3-1.4,1.3-2.7c0-1-0.2-1.8-0.2-2.7c0-0.4,0.2-0.9,0.2-1.1c0-0.1,0-0.2-0.1-0.2c-0.1-0.6-0.2-1.8-0.2-2.4
					c0-0.2,0.2-0.5,0.2-0.7s-0.2-0.6-0.2-0.8c0-0.4,0.2-0.6,0.2-0.9s-0.1-0.3-0.1-0.6v-0.8c0.1-0.3,0.1-0.6,0.2-0.9
					c0-0.7-0.2-1.5-0.2-2.2v-6.8c-0.1-0.2-0.1-0.5-0.2-0.7c0-0.6,0.3-0.8,0.3-1.2c0-0.6-0.2-0.9-0.2-1.3c0-0.6,0.1-0.9,0.1-1.3
					c0-1.2,0.1-2.2,0.1-3.3c0-0.6-0.2-1-0.2-1.6v-1.9c0-0.3-0.1-0.6-0.1-0.9s0.1-0.9,0.1-1.3c0-0.2-0.1-0.2-0.1-0.5
					c-0.1-0.1-0.1-0.3-0.1-0.6v-0.3c0.1-0.1,0.2-0.3,0.2-0.5L1.3,11.8z M3.1,44.8V45c0,0.2,0.2,0.5,0.2,0.9S3.1,46.6,3.1,47
					c0,0.9-0.1,1.4-0.1,2.3c0,0.3,0,0.6,0.1,0.9c0.3,0,0.7,0,1-0.1H4C4.3,50,4.5,50,4.8,50C5.8,50,6.9,50,8,50.2
					c-0.2-0.6,0.1-1,0.1-1.6c0-0.9-0.2-1.7-0.2-2.6c0-0.2,0-0.5,0.1-0.7v0C8,45.1,8,44.9,8,44.7c0-0.6-0.2-0.8-0.2-1.4
					c-0.1-0.7-0.1-1.4,0-2.1v0.1C8,41.2,8,41.1,8,40.9c0-0.2-0.1-0.2-0.1-0.4c-0.1-0.1-0.1-0.2-0.1-0.4c0-0.6,0.2-1,0.2-1.6
					c0-0.3-0.2-0.6-0.2-0.9S8,37.2,8,36.9c0-0.6-0.2-1-0.2-1.5S8,34.5,8,34s-0.2-0.9,0-1.4v0.1C8,32.5,8,32.4,8,32.1
					c0-0.4-0.2-0.7-0.2-1.3C7.8,30,8,29.2,8,28.4c-0.3-0.6,0-1.9,0-2.6c0-0.6-0.2-0.8-0.2-1.4c0-1,0.1-2,0.1-3
					c0-0.1-0.1-0.2-0.2-0.3l-0.1-0.2c0-0.2,0.2-0.4,0.5-0.4c0.2,0,0.4,0.1,0.4,0.3c0.2,0.6,0.4,0.6,1,1.2H9.4
					c0.2,0.2,0.2,0.3,0.4,0.6c0.3,0.9,1.2,0.9,1.8,2.2h-0.1l0.5,0.6c0.1,0.2,0.3,0.4,0.5,0.6c0.7,0.6,0.7,1.4,1.3,1.8h-0.1
					c0.1,0.1,0.2,0.1,0.3,0.2c0.3,0.3,0.3,0.3,0.3,0.9c0.6,0.8,1.3,1.5,2.1,2.2c0,0.2-0.1,0.6,0.2,0.8v-0.2c0.1,0,0.2,0.1,0.2,0.2
					h-0.1c0.2,0.1,0.3,0.2,0.4,0.3l0.2,0.4v0.2c0-0.1,0-0.1,0.1-0.1l0.1-0.1c0.6-1,0.4-1,1.2-1.8h-0.1c0.6-0.7,1.4-2.4,1.8-3
					c0.4-0.3,0.7-0.8,1-1.2h-0.1c0-0.2,0.1-0.3,0.3-0.6c0.5-0.6,1-1.2,1.4-1.9c0.2-0.3,0.6-0.3,0.8-0.7c0.2-0.8,0.6-1.5,1.2-2.2
					c0.6-0.2,0.2-0.2,0.5-0.8c0.1-0.2,0.7-0.6,0.8-0.6l0.2,0.2c0.1-0.1,0.5,0.1,0.6-0.5c0,0.3-0.2,0.5-0.2,0.7
					c0,2.6,0.2,5.1,0.2,7.7c0,0.5,0,1.1-0.1,1.6c0,0.1,0.2,0.8,0.2,0.9c0,0.4-0.2,0.7-0.2,1.1c0,0.6,0.2,1.1,0.2,1.7
					c0,0.4-0.2,0.8-0.2,1.2c0,0.2,0.2,0.6,0.2,0.8S27,35.6,27,36v5.1c0,1,0.2,2,0.2,3c0,0.6-0.2,1-0.2,1.6s0.2,1.1,0.2,1.7
					S27,48.5,27,49.2c0,0.9,0.2,1,1,1c0.6,0,0.9-0.2,1.4-0.2c0.3,0,0.6,0.2,1,0.2s1.4,0,1.4-0.4c0-1.5-0.2-2.8-0.2-4.3
					c0-0.7,0.2-1.4,0.2-2.3s0.1-1.4,0.1-2.3s-0.4-2.3-0.4-2.9s0.4-1.1,0.4-1.7s-0.3-1-0.3-1.6s0.2-1,0.2-1.6s-0.2-1-0.2-1.6
					s0.2-0.8,0.2-1.4c0-0.2,0-0.5-0.1-0.6v0.1c-0.1-0.3-0.1-0.6-0.2-0.9c0-0.4,0.2-0.9,0.2-1.3s-0.2-0.6-0.2-1s0.2-0.8,0.2-1.4
					c0-1.8-0.2-3.7-0.2-5.5c0-0.6,0.2-1,0.2-1.6c0-0.3-0.2-0.6-0.2-1c0-1.3,0.2-2.6,0.2-3.9c0-0.4,0-0.9-0.1-1.3
					c-0.2,0-0.5,0.2-0.7,0.2s-0.6-0.2-0.8-0.2s-0.5,0.2-0.8,0.2c-0.1,0-0.3,0-0.4-0.1c-0.9-0.3-1.7-0.4-2.6-0.3
					c-0.3,0-1,1.4-1.2,1.7c-0.6,0.9-1,1.8-1.5,2.6c-1,1.5-2.3,2.6-3,4.3c-0.2,0.4-0.6,0.6-0.9,1c-0.2,0.6-0.5,1.1-0.9,1.6h0.1
					c-0.2,0.4-0.5,1.1-1,1.1c-0.4,0-0.7-0.8-0.8-1.1h0.1c-0.4-0.5-0.9-0.9-1.4-1.4c-0.2-0.2-0.4-0.5-0.6-0.7v-0.1h0.1
					c-1-1.5-2.1-2.9-3.4-4.2c-0.1-0.4-0.3-0.8-0.6-1.2h0.1l-0.4-0.3v0.1c-0.2-0.1-0.4-0.4-0.5-0.8v0.1c-0.2-0.6-0.7-0.6-1-1.2
					C9,11.7,8.3,12,7,11.7c-0.2,0-0.3-0.1-0.6-0.1c-0.4,0-0.8,0.2-1.2,0.2c-0.6,0-0.8-0.2-1.4-0.2l-0.6,0.2c0.2,1-0.2,2-0.2,3
					s0.2,1.8,0.2,2.6c0,0.4-0.2,0.7-0.2,1.1c0,0.6,0.2,1.2,0.2,1.8c-0.1,0.1-0.1,0.2-0.1,0.5c0,0.6,0.2,0.9,0.2,1.3
					s-0.2,0.7-0.2,1.1c0,0.2,0.1,0.2,0.1,0.5v-0.1c0,0.2,0.1,0.2,0.1,0.5s-0.2,0.5-0.2,0.7c0,1-0.1,2.2-0.1,3.2
					c0,0.2,0.2,0.5,0.2,0.8S3.2,29.6,3.2,30c0,0.6,0.2,1,0.2,1.6c0,1.2-0.2,2.1-0.2,3.3v1c0,0.6,0.3,1.2,0.3,1.8S3,39.2,3,40.2
					s0.2,1.5,0.2,2.4c0,0.3,0.2,0.6,0.2,1S3,44.5,3.1,44.8L3.1,44.8z"/>
				<path class="st3" d="M52.4,52h-3c-0.6,0-1.7,0.2-1.7-0.7c0-0.3,0.3-0.5,0.6-0.7v0.1c0.9-0.9,0.5-1.3,0.7-2.2v-0.2
					c0-0.1,0-0.1,0.1-0.1c0-0.2,0-0.2-0.1-0.3c0-0.2-0.1-0.2-0.1-0.5c0-1.2,0.1-2.4,0.1-3.6c0-0.3-0.2-0.7-0.2-1s0.2-0.6,0.2-1
					s-0.2-0.6-0.2-0.9c0-0.6,0.2-1,0.2-1.4c0-0.2-0.1-0.4-0.1-0.6v0.1c-0.2-0.3-0.2-0.7-0.2-1c0-0.7,0.3-1.4,0.3-2.2
					c0-0.6-0.2-0.8-0.2-1.4c0-0.4,0.2-0.7,0.2-1c0-0.9-0.2-1.8-0.2-2.6v-1.2c0-0.6,0.2-1,0.2-1.5c0-0.3-0.2-0.6-0.2-0.9
					c0-0.2,0-0.5,0.1-0.7c0-0.2,0.1-0.3,0.1-0.6S49,25.7,49,25.4c-0.2-0.2-0.1-2-0.1-2.6s0.1-0.8,0.1-1.4s-0.1-0.8-0.1-1.4
					c0-0.2,0.1-0.5,0.2-0.7c0-0.4-0.2-0.8-0.2-1.2c0-0.2,0.1-0.2,0.1-0.5v0.1c0-0.2,0.1-0.2,0.1-0.4v-5.2c0-0.7-1-1-1-2
					c0-0.6,1.4-0.4,1.9-0.6c0.1-0.1,0.3-0.1,0.4-0.1c0.2,0,0.5,0.2,0.7,0.2c0.9,0,1.5-0.2,2.4-0.2c0.6,0,1.3,0.2,1.9,0.2
					c0.3,0,0.6-0.1,1-0.1c0.6,0,0.9,0.2,1.3,0.2c0.7,0,1.4,0.1,2.1,0.1c0.9,0,1.4-0.2,2.3-0.2c0.7,0,1.4,0.2,2.1,0.2
					c0.9,0,1.5-0.2,2.4-0.2c1.6-0.1,3.3,0,4.9,0.2c0.6,0.2,0.9,0.7,0.9,1.3c0,0.4-0.2,0.7-0.2,1.1c0,0.6-0.1,0.9-0.1,1.2
					c0,0.3,0,0.5,0.1,0.8v-0.1c0.1,0.3,0.1,0.5,0.2,0.8c0,0.2-0.1,0.4-0.2,0.6v-0.1C72,15.7,72,15.9,72,16.1c0,0.4,0.2,0.8,0.2,1.2
					c0,0.3-0.1,0.7-0.3,1c0,0.4,0,0.9-0.6,0.9c-0.2,0-0.4-0.1-0.5-0.3h0l-0.2-0.2c-0.6-0.2-0.9-0.9-1.2-0.9s-0.5,0-0.6,0.1h-0.1
					c-0.3,0.1-0.7,0.1-1,0.1c-0.4,0-0.8-0.2-1.2-0.2c-0.9,0-1.6,0.1-2.5,0.1c-1.2,0-2.4-0.2-3.6-0.2c-0.6,0-1,0.2-1.5,0.2
					c-0.4,0-0.7-0.2-1.1-0.2c-0.2,0-0.2,0-0.3,0.1c0,1-0.1,2-0.1,3c-0.1,0.7,0,1.4,0.1,2.1c0.1,0.3,0.1,0.7,0.2,1
					c0,0.3-0.2,0.5-0.2,0.8s0.2,0.5,0.2,0.7c0,0.2,0,0.3-0.1,0.5c0,0.2,0.3,0.2,0.4,0.2c0.6,0,0.9-0.2,1.3-0.2c0.1,0,0.3,0,0.4,0.1
					h-0.1c0.6,0.2,1.2,0.2,1.8,0.2c0.9,0,1.6-0.5,2.2-0.5c0.6,0,1.4,0.4,2.1,0.4c1.4,0,2.2-1.4,2.4-1.4s0.2,0.1,0.2,0.3
					c0,0.1,0,0.2,0.1,0.2v0c0.4,0.4,0.5,1,0.5,1.5c0,0.6-0.2,1.2-0.2,1.8s0.1,1.2,0.1,1.8c0,0.4-0.1,0.7-0.1,1.3
					c0,0.6,0.2,1.2,0.2,1.8s0,1.8-0.9,1.8c-0.7,0-1.1-1.2-1.7-0.9c-0.7,0-1.5-0.1-2.2-0.1c-1.3,0-2.6,0.1-4,0.1
					c-0.7,0-1.4-0.2-2.2-0.2s-0.6,1-0.6,1.5v1.2c0,0.6,0.3,1.3,0.3,2c0,0.1,0,0.3-0.1,0.4v-0.1c-0.2,0.5-0.2,1-0.2,1.5
					c0,0.6,0.3,1,0.3,1.6c0,0.4-0.2,0.8-0.2,1.2c0.2,0,0.4,0,0.5-0.1c0.2-0.1,0.5-0.1,0.7-0.2c0.6,0,1.3,0.2,1.9,0.2
					s1.1-0.2,1.7-0.2c0.2,0,0.2,0.1,0.4,0.1l0.1,0.1c0.2,0,0.4,0,0.6-0.1c0.2,0,0.3-0.1,0.6-0.1c0.2,0,0.5,0.2,0.8,0.2
					c0.7,0,1.4-0.3,2.2-0.3c0.6,0,0.8,0.2,1.2,0.2c2.4,0,2.1-1,3.1-1c0.4,0,0.7,0.2,0.7,0.5c0,0.1,0,0.1,0,0.2c0,0.7-0.2,1.3-0.2,2
					c0,0.3,0.2,0.6,0.2,1S72,46.8,72,47c-0.2,0.2,0,1.1,0,1.4c0,0.6-0.1,1.3-0.1,1.9c0,1.3,0.1,1.8-1.5,1.8c-1.1,0.1-2.2,0-3.3-0.2
					c-0.2-0.1-0.5-0.1-0.7-0.2c-0.1,0-0.3,0-0.4,0.1c-0.8,0.2-1.6,0.3-2.4,0.2c-0.7,0-1.4-0.2-2.1-0.2c-0.6,0-1,0.2-1.7,0.2
					c-1.5,0-3-0.2-4.6-0.2c-0.2,0-0.4,0-0.5,0.1c-0.1,0-0.2,0-0.2,0.1c-0.1,0.1-0.3,0.1-0.4,0.1c-0.3,0-0.7-0.2-1.1-0.2L52.4,52z
					 M51,44.7c0,0.2,0,0.4,0.1,0.6v-0.1c0.1,0.3,0.1,0.5,0.1,0.8c0,0.9-0.3,1.7-0.3,2.6c0,0.2,0,0.5,0.1,0.7v-0.1
					C51,49.5,50.8,50,51,50s0.2-0.1,0.5-0.1c0.4,0,0.6,0.2,1,0.2h0.1c0.6-0.1,1.2-0.3,1.8-0.3c0.6,0,1,0.2,1.4,0.2h1.2
					c0.9,0,1.6,0.1,2.5,0.1c1,0,1.9-0.2,2.8-0.2c0.4,0,0.8,0.2,1.2,0.2s1.3,0.2,1.5-0.1V50c0.1-0.1,0.3-0.2,0.5-0.2
					c0.2,0,0.5,0.2,0.8,0.2c0.6,0,3.3-0.1,3.8-0.1c0.1,0.1,0.1-0.4,0.1-0.5c0-0.2-0.1-0.5-0.1-0.7c-0.1-0.3-0.1-0.6-0.1-0.9v-1.5
					c0-0.4,0.2-0.5,0.2-0.6s-0.1-0.2-0.2-0.2c-1,0-1.8,0.3-2.8,0.3s-1.5-0.2-2.2-0.2c-0.9,0-1.6,0.2-2.5,0.2s-1.9-0.2-2.9-0.2
					s-1.5,0.2-2.1,0.2c-0.2,0-0.6-0.2-0.8-0.2s-0.4,0.2-0.6,0.2c-0.4,0-0.4-2-0.4-2.3c0-0.6,0.2-1.3,0.2-1.8c0-0.2,0-0.5-0.1-0.6
					v0.1c-0.2-0.4-0.2-0.7-0.2-1.1c0-0.6,0.2-0.8,0.2-1.2c0-0.6-0.2-1-0.2-1.6s0.2-1,0.2-1.4c0-0.9,0-1.9-0.2-2.8
					c0-0.1-0.1-0.3-0.1-0.4c0-0.2,0.2-0.2,0.4-0.2c0.4,0,0.8,0.2,1.1,0.2s0.8-0.2,1.4-0.2c0.4,0,0.6,0.2,1,0.2s0.7-0.2,1-0.2
					c0.3,0,0.5,0,0.8,0.1H61c0.1,0.1,0.3,0.1,0.6,0.1c0.4,0,0.8-0.2,1.4-0.2c1,0,1.8,0.2,2.6,0.2c0.3,0,0.6-0.2,0.9-0.2
					c0.2,0,0.4,0.1,0.6,0.2c-0.1-0.4-0.1-0.8-0.1-1.1c0.1-0.5,0.1-1,0.1-1.5c0-0.6,0-1.2-0.2-1.8c-0.1-0.1-0.3-0.1-0.6-0.1
					c-0.7,0-1.5,0.2-2.2,0.2h-5.3c-0.2,0-0.5-0.2-0.8-0.2c-0.6,0-0.8,0.3-1.4,0.3c-0.4,0-1-0.2-1-0.7c0-0.4,0.2-0.9,0.2-1.3v-1.8
					c-0.1-0.2-0.1-0.4-0.2-0.6c0-0.3,0.2-0.6,0.2-1c0-0.6-0.2-1.3-0.2-1.9s0.3-1.4,0.3-2.2c0-0.2-0.1-0.5-0.2-0.7h0.1
					c-0.1-0.1-0.2-0.3-0.2-0.5c0-0.2,0.1-0.2,0.1-0.5c0.1-0.1,0.1-0.3,0.1-0.6c0-0.6-0.2-0.8,0.6-0.8c0.6,0,1.4-0.1,2-0.1
					c1.8,0,3.7,0.3,5.5,0.3c0.5,0,1-0.1,1.4-0.2h-0.1c0.3-0.1,0.5-0.1,0.8-0.1c0.6,0,1.2,0.2,1.8,0.2h1.9c0.1,0,0.2,0,0.2-0.1v-0.9
					c0-0.2-0.1-0.3-0.1-0.6c0-0.9,0.2-1.5,0.2-2.4v-0.4c-0.6,0-1.1,0.1-1.7,0.1s-1-0.2-1.5-0.2s-1.2,0.2-1.8,0.2s-0.9-0.3-1.3-0.3
					c-0.4,0-0.7,0.2-1,0.2c-0.7,0-1.4,0.1-2.2,0.1c-0.9,0-1.6-0.3-2.5-0.3c-1.2,0-1,0.3-1.6,0.3c-0.8,0-1.6,0-2.4-0.2
					c-0.3,0.2-0.6,0.3-0.9,0.2c-0.4,0-0.5-0.2-0.8-0.2h-0.2c-0.6,0-0.9-0.2-1.3,0.4c-0.1,0.2-0.1,0.5-0.2,0.7c0,0.6,0.2,1,0.2,1.6
					c0,0.4-0.1,0.8-0.1,1.2v6.9c0,0.4-0.2,0.8-0.2,1.4c0,0.4,0.2,0.8,0.2,1.4c0,1.9,0.1,3.9,0.1,5.8v1c0,0.3,0.1,0.6,0.1,0.9
					c0,0.7-0.2,1.4-0.2,2.1v4.4c0,0.1,0.2,0.3,0.2,0.4H51c0.1,0.1,0.2,0.3,0.2,0.4c0,0.2-0.1,0.3-0.1,0.6c-0.1,0.6-0.2,1.3-0.2,1.9
					c0,0.4,0.2,0.9,0.2,1.3S51,44.5,51,44.7z"/>
				<path class="st3" d="M89.4,52h-3c-0.6,0-1.7,0.2-1.7-0.7c0-0.3,0.3-0.5,0.6-0.7v0.1c0.9-0.9,0.5-1.3,0.7-2.2v-0.2
					c0-0.1,0-0.1,0.1-0.1c0-0.2,0-0.2-0.1-0.3c0-0.2-0.1-0.2-0.1-0.5c0-1.2,0.1-2.4,0.1-3.6c0-0.3-0.2-0.7-0.2-1s0.2-0.6,0.2-1
					S86,41.2,86,40.9c0-0.6,0.2-1,0.2-1.4c0-0.2-0.1-0.4-0.1-0.6v0.1c-0.2-0.3-0.2-0.7-0.2-1c0-0.7,0.3-1.4,0.3-2.2
					c0-0.6-0.2-0.8-0.2-1.4c0-0.4,0.2-0.7,0.2-1c0-0.9-0.2-1.8-0.2-2.6v-1.2c0-0.6,0.2-1,0.2-1.5c0-0.3-0.2-0.6-0.2-0.9
					c0-0.2,0-0.5,0.1-0.7c0-0.2,0.1-0.3,0.1-0.6S86,25.7,86,25.4c-0.2-0.2-0.1-2-0.1-2.6s0.1-0.8,0.1-1.4S86,20.7,86,20.1
					c0-0.2,0.1-0.5,0.2-0.7c0-0.4-0.2-0.8-0.2-1.2c0-0.2,0.1-0.2,0.1-0.5v0.1c0-0.2,0.1-0.2,0.1-0.4v-5.2c0-0.7-1-1-1-2
					c0-0.6,1.4-0.4,1.9-0.6c0.1-0.1,0.3-0.1,0.4-0.1c0.2,0,0.5,0.2,0.7,0.2c0.9,0,1.5-0.2,2.4-0.2c0.6,0,1.3,0.2,1.9,0.2
					c0.3,0,0.6-0.1,1-0.1c0.6,0,0.9,0.2,1.3,0.2c0.7,0,1.4,0.1,2.1,0.1c0.9,0,1.4-0.2,2.3-0.2c0.7,0,1.4,0.2,2.1,0.2
					c0.9,0,1.5-0.2,2.4-0.2c1.6-0.1,3.3,0,4.9,0.2c0.6,0.2,0.9,0.7,0.9,1.3c0,0.4-0.2,0.7-0.2,1.1c0,0.6-0.1,0.9-0.1,1.2
					c0,0.3,0,0.5,0.1,0.8v-0.1c0.1,0.3,0.1,0.5,0.2,0.8c0,0.2-0.1,0.4-0.2,0.6v-0.1c-0.1,0.2-0.1,0.5-0.1,0.7c0,0.4,0.2,0.8,0.2,1.2
					c0,0.3-0.1,0.7-0.2,1c0,0.4,0,0.9-0.6,0.9c-0.2,0-0.4-0.1-0.5-0.3h-0.1l-0.2-0.2c-0.6-0.2-0.9-0.9-1.2-0.9s-0.5,0-0.6,0.1h-0.1
					c-0.3,0.1-0.7,0.1-1,0.1c-0.4,0-0.8-0.2-1.2-0.2c-0.9,0-1.6,0.1-2.5,0.1c-1.2,0-2.4-0.2-3.6-0.2c-0.6,0-1,0.2-1.5,0.2
					c-0.4,0-0.7-0.2-1.1-0.2c-0.2,0-0.2,0-0.3,0.1c0,1-0.1,2-0.1,3c-0.1,0.7,0,1.4,0.1,2.1c0.1,0.3,0.1,0.7,0.2,1
					c0,0.3-0.2,0.5-0.2,0.8s0.2,0.5,0.2,0.7c0,0.2,0,0.3-0.1,0.5c0,0.2,0.3,0.2,0.4,0.2c0.6,0,0.9-0.2,1.3-0.2c0.1,0,0.3,0,0.4,0.1
					h-0.1c0.6,0.2,1.2,0.2,1.8,0.2c0.9,0,1.6-0.5,2.2-0.5s1.4,0.4,2.1,0.4c1.4,0,2.2-1.4,2.4-1.4s0.2,0.1,0.2,0.3
					c0,0.1,0,0.2,0.1,0.2v0c0.4,0.4,0.5,1,0.5,1.5c0,0.6-0.2,1.2-0.2,1.8s0.1,1.2,0.1,1.8c0,0.4-0.1,0.7-0.1,1.3
					c0,0.6,0.2,1.2,0.2,1.8s0,1.8-0.9,1.8c-0.7,0-1.1-1.2-1.7-0.9c-0.7,0-1.5-0.1-2.2-0.1c-1.3,0-2.6,0.1-4,0.1
					c-0.7,0-1.4-0.2-2.2-0.2s-0.6,1-0.6,1.5v1.2c0,0.6,0.3,1.3,0.3,2c0,0.1,0,0.3-0.1,0.4v-0.1c-0.2,0.5-0.2,1-0.2,1.5
					c0,0.6,0.3,1,0.3,1.6c0,0.4-0.2,0.8-0.2,1.2c0.2,0,0.4,0,0.5-0.1c0.2-0.1,0.5-0.1,0.7-0.2c0.6,0,1.3,0.2,1.9,0.2
					s1.1-0.2,1.7-0.2c0.2,0,0.2,0.1,0.4,0.1l0.1,0.1c0.2,0,0.4,0,0.6-0.1c0.2,0,0.3-0.1,0.6-0.1s0.5,0.2,0.8,0.2
					c0.7,0,1.4-0.3,2.2-0.3c0.6,0,0.8,0.2,1.2,0.2c2.4,0,2.1-1,3.1-1c0.4,0,0.7,0.2,0.7,0.5c0,0.1,0,0.1,0,0.2c0,0.7-0.2,1.3-0.2,2
					c0,0.3,0.2,0.6,0.2,1S109,46.8,109,47c-0.2,0.2,0,1.1,0,1.4c0,0.6-0.1,1.3-0.1,1.9c0,1.3,0.1,1.8-1.5,1.8
					c-1.1,0.1-2.2,0-3.3-0.2c-0.2-0.1-0.5-0.1-0.7-0.2c-0.1,0-0.3,0-0.4,0.1c-0.8,0.2-1.6,0.3-2.4,0.2c-0.7,0-1.4-0.2-2.1-0.2
					c-0.6,0-1,0.2-1.7,0.2c-1.5,0-3-0.2-4.6-0.2c-0.2,0-0.4,0-0.5,0.1c-0.1,0-0.2,0-0.2,0.1c-0.1,0.1-0.3,0.1-0.4,0.1
					c-0.3,0-0.7-0.2-1.1-0.2L89.4,52z M88,44.7c0,0.2,0,0.4,0.1,0.6v-0.1c0.1,0.3,0.1,0.5,0.1,0.8c0,0.9-0.3,1.7-0.3,2.6
					c0,0.2,0,0.5,0,0.7v-0.1C88,49.5,87.8,50,88,50s0.2-0.1,0.5-0.1c0.4,0,0.6,0.2,1,0.2h0.1c0.6-0.1,1.2-0.3,1.8-0.3
					c0.6,0,1,0.2,1.4,0.2h1.2c0.9,0,1.6,0.1,2.5,0.1c1,0,1.9-0.2,2.8-0.2c0.4,0,0.8,0.2,1.2,0.2s1.3,0.2,1.5-0.1V50
					c0.1-0.1,0.3-0.2,0.5-0.2c0.2,0,0.5,0.2,0.8,0.2c0.6,0,3.3-0.1,3.8-0.1c0.1,0.1,0.1-0.4,0.1-0.5c0-0.2-0.1-0.5-0.1-0.7
					c-0.1-0.3-0.1-0.6-0.1-0.9v-1.5c0-0.4,0.2-0.5,0.2-0.6s-0.1-0.2-0.2-0.2c-1,0-1.8,0.3-2.8,0.3s-1.5-0.2-2.2-0.2
					c-0.9,0-1.6,0.2-2.5,0.2s-1.9-0.2-2.9-0.2s-1.5,0.2-2.1,0.2c-0.2,0-0.6-0.2-0.8-0.2s-0.4,0.2-0.6,0.2c-0.4,0-0.4-2-0.4-2.3
					c0-0.6,0.2-1.3,0.2-1.8c0-0.2,0-0.5-0.1-0.6v0.1c-0.2-0.4-0.2-0.7-0.2-1.1c0-0.6,0.2-0.8,0.2-1.2c0-0.6-0.2-1-0.2-1.6
					s0.2-1,0.2-1.4c0-0.9,0-1.9-0.2-2.8c0-0.1-0.1-0.3-0.1-0.4c0-0.2,0.2-0.2,0.4-0.2c0.4,0,0.8,0.2,1.1,0.2s0.8-0.2,1.4-0.2
					c0.4,0,0.6,0.2,1,0.2s0.7-0.2,1-0.2c0.3,0,0.5,0,0.8,0.1H98c0.1,0.1,0.3,0.1,0.6,0.1c0.4,0,0.8-0.2,1.4-0.2c1,0,1.8,0.2,2.6,0.2
					c0.3,0,0.6-0.2,0.9-0.2c0.2,0,0.4,0.1,0.6,0.2c-0.1-0.4-0.2-0.7-0.2-1.1c0.1-0.5,0.1-1,0.1-1.5c0.1-0.6,0.1-1.2,0-1.8
					c-0.1-0.1-0.3-0.1-0.6-0.1c-0.7,0-1.5,0.2-2.2,0.2h-5.3c-0.2,0-0.5-0.2-0.8-0.2c-0.6,0-0.8,0.3-1.4,0.3c-0.4,0-1-0.2-1-0.7
					c0-0.4,0.2-0.9,0.2-1.3v-1.8c-0.1-0.2-0.1-0.4-0.2-0.6c0-0.3,0.2-0.6,0.2-1c0-0.6-0.2-1.3-0.2-1.9s0.3-1.4,0.3-2.2
					c0-0.2-0.1-0.5-0.2-0.7h0.1c-0.1-0.1-0.2-0.3-0.2-0.5c0-0.2,0.1-0.2,0.1-0.5c0.1-0.1,0.1-0.3,0.1-0.6c0-0.6-0.2-0.8,0.6-0.8
					c0.6,0,1.4-0.1,2-0.1c1.8,0,3.7,0.3,5.5,0.3c0.5,0,1-0.1,1.4-0.2h-0.1c0.3-0.1,0.5-0.1,0.8-0.1c0.6,0,1.2,0.2,1.8,0.2h1.9
					c0.1,0,0.2,0,0.2-0.1v-0.9c0-0.2-0.1-0.3-0.1-0.6c0-0.9,0.2-1.5,0.2-2.4v-0.4c-0.6,0-1.1,0.1-1.7,0.1s-1-0.2-1.5-0.2
					s-1.2,0.2-1.8,0.2s-0.9-0.3-1.3-0.3s-0.7,0.2-1,0.2c-0.7,0-1.4,0.1-2.2,0.1c-0.9,0-1.6-0.3-2.5-0.3c-1.2,0-1,0.3-1.6,0.3
					c-0.8,0-1.6,0-2.4-0.2c-0.3,0.2-0.6,0.3-0.9,0.2c-0.4,0-0.5-0.2-0.8-0.2h-0.2c-0.6,0-0.9-0.2-1.3,0.4C88,12.2,88,12.4,88,12.7
					c0,0.6,0.2,1,0.2,1.6c0,0.4-0.1,0.8-0.1,1.2v6.9c0,0.4-0.2,0.8-0.2,1.4c0,0.4,0.2,0.8,0.2,1.4c0,1.9,0.1,3.9,0.1,5.8v1
					c0,0.3,0.1,0.6,0.1,0.9c0,0.7-0.2,1.4-0.2,2.1v4.4c0,0.1,0.2,0.3,0.2,0.4h-0.1c0.1,0.1,0.2,0.3,0.2,0.4c0,0.2-0.1,0.3-0.1,0.6
					c-0.1,0.6-0.1,1.3-0.2,1.9c0,0.4,0.2,0.9,0.2,1.3S88,44.5,88,44.7z"/>
				<path class="st3" d="M121.9,11.8c0-0.4-0.2-0.7-0.2-1.1s0-0.9,0.6-1h-0.1c0.9-0.2,1.9-0.3,2.8-0.2c0.2,0,0.4,0.1,0.6,0.1
					c0.1,0.1,0.3,0.1,0.6,0.1s0.8-0.2,1.2-0.2c0.2,0,0.5,0.2,0.7,0.2c0.1,0,0.3,0,0.4-0.1h-0.1c0.1-0.1,0.2-0.1,0.5-0.1
					c0.4,0,0.7,0.2,1.3,0.2c1,0,1.8-0.2,2.7-0.2c0.7,0,1.4,0.2,2.2,0.2c0.6,0,0.8-0.2,1.4-0.2s0.8,0.2,1.4,0.2s1.2-0.2,1.8-0.2
					c0.2,0,0.5,0.2,0.7,0.2s0.5-0.2,0.7-0.2c0.1,0,0.3,0,0.4,0.1c0.6,0.1,1.2,0.1,1.8-0.1c0.4-0.1,0.7-0.1,1.1-0.2
					c0.6,0,1.1,0.3,1.8,0.3s0.8-0.2,1.4-0.2s0.9,0.2,1.4,0.2c0.9,0,0.7,1,0.7,1.7V14c0,0.4,0.2,0.8,0.2,1.4c0,0.9,0.1,3-0.5,3.6
					c-0.1,0-0.1,0-0.2,0.1c-0.9,0-1.2-1.4-1.8-1.4c-0.2,0-0.2,0.1-0.3,0.1h0.1c-0.2,0.1-0.4,0.1-0.6,0.1c-0.4,0-0.9-0.2-1.4-0.2
					s-1.3,0.2-2,0.2c-0.9,0-1.8-0.2-2.8-0.2c-0.2,0-0.3,0.1-0.3,0.3s0.2,0.6,0.2,1s-0.2,0.6-0.2,1s0.1,0.6,0.1,1s-0.1,0.7-0.1,1
					c0,0.9,0.2,1.6,0.2,2.5c0,0.6-0.2,1.2-0.2,1.8c0,0.3-0.2,1.2,0.2,1.5c0,0.1,0,0.1,0.1,0.2V28c0,0.3-0.2,0.6-0.2,1v0.1
					c0.1,0.3,0.2,0.7,0.2,1c0,0.3-0.3,0.8-0.3,1.2c0,0.6,0.2,1,0.2,1.5c0,1.5,0.1,3.1,0.1,4.6c0,0.6-0.2,0.9-0.2,1.4s0.3,1,0.3,1.6
					c0,0.3-0.2,0.6-0.2,1c0,1.2-0.2,2.3-0.2,3.5c0,0.6,0.2,1,0.2,1.6c0,0.9-0.2,1.5-0.2,2.4c0,0.6,0.3,1.1,0.7,1.5l0.2,0.5v-0.1
					c0.2,0.1,0.3,0.3,0.2,0.5c0,0.4-0.5,0.6-0.9,0.6c-0.2,0-0.3-0.2-0.6-0.2s-0.5,0.2-0.8,0.2s-0.4,0-0.5-0.1
					c-1.2,0-2.1-0.1-3.3-0.1c-0.6,0-0.8,0.2-1.4,0.2s-1.2-0.1-1.8-0.1s-1.8,0.2-1.8-1c0-0.6,0.3-0.4,0.7-0.6
					c0.3-0.4,0.4-0.9,0.4-1.4c0-0.9-0.2-1.6-0.2-2.3c-0.1-0.6-0.1-1.1,0.1-1.7c0.1-0.3,0.1-0.7,0.2-1c0-0.4-0.2-1-0.2-1.6
					c0-0.4,0.2-0.8,0.2-1.2c0-0.9,0.1-1.7,0.1-2.6c0-0.6-0.3-1-0.3-1.4s0.2-0.8,0.2-1.2c0-0.6-0.2-1.3-0.2-1.8v-2
					c0-0.6,0.2-1,0.2-1.6l-0.2-0.3h0.1c-0.3-0.3-0.1-0.9-0.1-1.3c0-0.6-0.1-1-0.1-1.6s0.2-1.2,0.2-1.8c-0.2-0.2-0.2-0.6-0.2-0.9
					c0-0.4,0.1-0.7,0.1-1s-0.2-0.6-0.2-0.9s0.1-0.2,0.1-0.5c0-0.9-0.1-1.8-0.1-2.6c0-0.3,0-0.5,0.1-0.8v0.1c0-0.2,0.1-0.2,0.1-0.5
					c0-0.4-0.2-0.6-0.7-0.6h-2.5c-0.6,0-1.1,0.2-1.8,0.2s-1-0.1-1.6-0.1c-0.5,0-0.9,0.1-1.4,0.3v-0.1c-0.2,0.2-0.8,0.9-1,0.9
					c-0.9-0.6-0.8-2.3-0.8-3.2c0-0.4,0.2-0.7,0.2-1.1c0-0.6-0.2-1.1-0.2-1.7C121.8,12.5,121.9,12.2,121.9,11.8z M123.7,12.9
					c0,0.3-0.1,1,0.2,1.2c0,0.1,0,0.1,0.1,0.2v0.2c0,0.6-0.1,0.9-0.1,1.3c0,0.1,0.1,0.2,0.2,0.2c0.4-0.2,0.9-0.3,1.4-0.2
					c0.4,0,0.8,0.2,1.2,0.2s0.6-0.2,1-0.2c0.6,0,0.9,0.2,1.4,0.2c0.3,0,0.7,0,1,0l2.2-0.1c0.3,0,1.2-0.1,1.2,0.5
					c0,0.2-0.2,0.3-0.2,0.6s0,0.4,0.1,0.5v-0.1c0.1,0.9,0.1,1.8,0,2.6c0,0.2,0.1,0.3,0.1,0.6c0,0.6-0.2,1-0.2,1.6
					c0,0.4,0.2,0.8,0.2,1.2s-0.2,0.7-0.2,1c0,0.6-0.1,1-0.1,1.5c0,0.2,0.1,0.2,0.1,0.5v-0.1c0.2,0.5,0.2,1.1,0.2,1.6
					c0,1.2-0.3,2.6-0.3,3.5c0,0.2,0,0.3,0.2,0.5c0,0.1,0,0.1,0.1,0.2V32c0,0.6-0.2,1-0.2,1.6v1.4c0.1,0.2-0.1,0.4-0.1,0.6
					s-0.2,0.9,0.1,1.1c0.1,0.4,0.1,0.7,0.2,1.1c0,0.2-0.2,0.4-0.2,0.8c0,0.2,0.2,0.6,0.2,0.8c0,1.2,0.1,2.2,0.1,3.4
					c0,0.3,0,0.6-0.1,0.6v-0.1c0,0.2-0.2,0.3-0.2,0.6s0.3,0.5,0.3,0.9c0,0.6-0.2,0.9-0.2,1.4c0,0.2,0.2,0.6,0.2,0.9
					c0,0.6-0.3,1-0.3,1.6c0,0.2,0,0.3,0.2,0.5c0,0.1,0,0.1,0.1,0.2v0.2c0,0.2,0.2,0.2,0.5,0.2s0.6-0.2,0.9-0.2s0.6,0.2,0.9,0.2
					c0.7,0,1.4-0.2,2.2-0.2c0.2,0,0.2-0.1,0.2-0.3c0-0.7,0.1-1.4,0.1-2.2v-1.6c0-0.6-0.2-1.2-0.2-1.9c0-1,0.2-2.2,0.2-3.2
					c0-0.2-0.1-0.5-0.1-0.7c-0.1-0.3-0.1-0.6-0.1-0.9c0-0.7,0.2-1.4,0.2-2.1s-0.2-1.4-0.2-2.2c0-0.6,0.2-0.8,0.2-1.2
					s-0.2-0.9-0.2-1.2c0-0.6,0.2-1.3,0.2-1.9v-3.9c0-0.6-0.2-1.1,0-1.7v0.1c0.1-0.2,0.1-0.4,0.1-0.6c0-0.2,0-0.4-0.1-0.5
					c-0.1-0.7-0.2-1.4-0.2-2.1c0-0.3,0.2-0.6,0.2-0.9v-2.2c0-0.2-0.1-0.3-0.2-0.5h0.1c-0.2-0.1-0.3-0.3-0.2-0.5
					c0-0.3,0.1-0.6,0.2-0.9c0-0.1,0-0.1-0.1-0.2v-0.1c0-0.1,0-0.3,0.1-0.4l-0.1,0.1c0.1-0.2,0.2-0.4,0.5-0.4c0.2,0,0.5,0.1,0.8,0.1
					c0.3-0.1,0.5-0.1,0.8-0.2c0.4,0,0.9,0.2,1.3,0.2c0.6,0,1-0.2,1.6-0.2s1,0.2,1.6,0.2s0.8,0.1,1.4,0.1c0.4,0,0.8-0.2,1.2-0.2
					c0.2,0,0.2,0,0.3,0.1c0-0.2,0.1-0.4,0.2-0.6c0.2-0.3,0.2-1.2,0.2-1.6s-0.2-0.8-0.2-1.2c0-0.2,0.2-0.5,0.2-0.7
					c0-0.1-0.1-0.2-0.1-0.2c-0.6,0-1.3,0.1-1.9,0.1c-1.8,0-3.8-0.2-5.6-0.2c-0.4,0-0.8,0.2-1.2,0.2c-0.2,0-0.4-0.1-0.6-0.2
					c-0.4,0-0.6,0.2-1,0.2c-0.6,0-1.2-0.2-1.8-0.2c-0.2,0-0.5,0.1-0.8,0.1c-1,0-1.8,0.2-2.8,0.2c-0.4,0-0.8-0.2-1.2-0.2
					c-0.6,0-0.8,0.2-1.4,0.2s-0.8-0.2-1.4-0.2c-0.6,0-0.9,0.2-1.3,0.2c-0.9,0-1.8-0.1-2.7-0.1C123.8,11.5,123.8,12.6,123.7,12.9
					L123.7,12.9z"/>
			</g>
			<g>
				<path class="st3" d="M0,81c0-0.4,0.2-0.7,0.2-1s-0.1-0.6-0.1-0.8c0-1.3,0.2-2.6,0.2-3.9c0-0.6-0.2-0.8-0.2-1.4
					c0-0.4,0.2-0.8,0.4-1.1c0-0.2-0.1-0.5-0.1-0.7c0-0.2,0-0.5,0.2-0.6C1,70.9,0.4,70,1,69.3c0.9-1.3,1.4-2.6,2.6-3.8
					c0.6-0.6,1-0.5,1.4-1c0.4-0.4,1-0.6,1.5-0.8C7.2,63.2,8,63,8.8,63c1.5-0.2,2.6-0.9,4.2-0.9c0.3,0,0.6,0.2,0.9,0.2
					c1,0,1.9-0.1,2.8-0.1c0.9-0.1,1.8,0,2.6,0.1h-0.1l0.7,0.2l0.2,0.1h-0.1c0.6,0,1.1,0.1,1.6,0.3c0.6,0.4,1.4,0.5,2.2,0.9
					c0.2,0.3,0.6,0.3,0.9,0.6c2.5,1.3,4.7,5.7,4.7,8.2v0.9c0,0.2,0.1,0.5,0.1,0.7s0,0.4-0.1,0.5c0,0.2,0,0.5,0.1,0.6
					s0.1,0.3,0.1,0.6c0,0.6-0.2,1-0.2,1.6c0,0.7,0.2,1.4,0.2,2.3c0,1.8,0.1,3.4,0.1,5.3c0,0.3,0,0.5-0.1,0.8v-0.1
					c0,0.2-0.1,0.2-0.1,0.4c0,0.1,0,0.2,0.1,0.2c0,0.2,0.1,0.3,0.1,0.6c0,0.9-0.2,1.6-0.2,2.5c0,0.4,0.2,0.8,0.2,1.2
					c0,0.6-0.2,1.2-0.2,1.8c0,0.3,0.2,0.6,0.2,1c0,1.5-0.7,3-0.7,4.5c0,0.4-0.5,0.9-0.5,1.1c-0.2,0.4-0.3,0.8-0.6,1.2
					c-0.7,1.7-2.5,2.3-3.7,3.5v-0.1l-0.6,0.5c0.1-0.1,0-0.1-0.2,0l-0.3,0.2l-0.7,0.2c-0.8,0.2-1.6,0.4-2.4,0.8
					c-0.2,0.2-0.5,0.3-0.8,0.3c-0.4,0-0.7-0.2-1.1-0.2c-0.6,0-1,0.3-1.6,0.3c-0.6,0-1-0.2-1.6-0.2c-0.4,0.2-0.4,0.3-0.8,0.3
					c-0.6,0-0.8-0.3-1.2-0.3s-0.6,0.1-0.9,0.1c-1.5-0.1-2.9-0.5-4.3-1c-0.3,0-0.6,0-0.9-0.1v0.1c-0.4-0.2-0.8-0.5-1.1-0.7v0.1
					c-1.4-0.9-2.6-2-3.4-3.4h0.1l-0.3-0.2v0.1c-0.6-0.2-0.6-1-0.9-1.5c-0.1-0.4-0.2-0.8-0.3-1.2l0.1,0.1c-0.1-0.3-0.1-0.6-0.1-0.9
					c-0.2-0.3-0.4-0.7-0.4-1.1c0-0.6,0.1-0.8,0.1-1.4c0-1.5-0.3-3-0.3-4.6c0-0.9,0.2-1.5,0.2-2.4c0-0.4-0.3-0.8-0.3-1.2
					c0-1.2,0.3-2.4,0.3-3.6C0.3,81.9,0,81.5,0,81z M2.2,81.7c0,0.3-0.2,0.6-0.2,1c0,0.6,0.2,1.2,0.2,1.6c0,1.4,0.2,2.6,0.2,3.9
					c0,0.9-0.3,1.5-0.3,2.4c0,0.3,0.2,0.7,0.2,1.1s-0.1,0.6-0.1,0.9s0.1,0.3,0.1,0.6s0.7,4.5,0.7,4.8H2.8c0.2,0.2,0.4,0.5,0.6,0.8
					v-0.1c0.9,1.9,0.9,0.9,1.3,1.7H4.6c0.2,0.4,0.5,0.5,0.7,1c0.6,0.3,1.4,0.6,2,1c0.9,0.6,1.3,0.2,1.7,0.4c0.7,0.4,0.6,0.6,1.4,0.6
					c0.2,0,0.4-0.1,0.6-0.1c0.7-0.1,2.7,0.5,3.9,0.5c0.6,0,1.1-0.3,1.8-0.3c1.9,0,5.8-0.4,7-2.1c0.9-0.5,1.6-1.1,2.2-1.9
					c0.2-0.7,0.5-1.3,0.9-1.8c0.3-1.1,0.5-2.2,0.6-3.4c-0.1-1-0.1-2,0.1-3c0.1-0.4,0.1-0.9,0.1-1.3c0-0.6-0.2-0.9-0.2-1.4v-2
					c0-0.3,0.2-0.7,0.2-1c0-0.6-0.3-0.7-0.3-1.3c0-0.7,0.4-1.4,0.4-2.1c0-0.6-0.2-0.9-0.2-1.4c0-0.9,0.1-1.8,0.1-2.6
					c0-0.4-0.2-0.8-0.2-1.4c0-0.3,0.2-0.6,0.2-0.9s-0.1-0.4-0.1-0.6c0-0.4,0.2-0.8,0.2-1.2c0-0.4-0.1-0.8-0.3-1.2
					c0.1-0.6,0.1-1.2-0.2-1.8v0.1c-0.4-0.9-0.2-1.9-1-2.6c-0.4-0.4-0.8-0.9-1-1.4l-0.4-0.2c-0.2,0-0.4-0.1-0.5-0.2v0.1
					c-0.2-0.1-0.3-0.2-0.4-0.4h0L23.6,66v0.1c-1.3-0.6-2.6-1.2-4-1.6H19c-0.7,0-1.4-0.2-2.1-0.2c-0.4,0-0.7-0.1-1-0.3
					c-0.3,0-0.7,0-1,0.1c-1.2,0.2-2.3,0-3.6,0.3l-3.5,1c-0.2,0.1-1,0.4-1.1,0.4l0.1-0.1v-0.1c-0.2,0.2-0.5,0.6-0.7,0.6l-0.6,0.3
					c-0.2,0.4-0.5,0.6-0.9,0.9l-1,1.1h0.1c-1.8,2.1-1.5,7.1-1.5,9.5c0,1-0.1,1.9-0.1,2.9C2.1,81.1,2.2,81.4,2.2,81.7z M6.6,80.6
					c0-0.6,0.3-3.9,0.3-4.2c0.3-0.6,0.4-1.3,0.5-1.9c0-1.9,0.5-2.1,1.8-3.4c0.1-0.2,0.2-0.2,0.3-0.5c0.6-0.7,1.1-0.6,1.8-0.9h-0.1
					c0.7-0.4,1.5-0.5,2.3-0.6h1.6c0.3,0,0.6-0.1,0.9-0.1c0.9,0.1,1.8,0.3,2.6,0.7c0.9,0,1.2,0.4,1.8,1h-0.1l0.5,0.5v-0.1
					c0.2,0.2,0.4,0.5,0.6,0.7h-0.1l0.3,0.6c0,0.7,1,1.1,1,2v0.6c0,0.7,0.2,1.4,0.2,2.1c0,0.4-0.1,0.8-0.1,1.2v1.7
					c0,0.3,0.2,0.6,0.2,0.8c0,0.9-0.3,1.4-0.3,1.9c0,0.3,0.2,0.6,0.2,0.9s-0.1,0.5-0.1,0.7c0,0.6,0.2,1,0.2,1.5
					c0,0.2-0.2,0.6-0.2,0.8c0,1,0.1,2,0.1,3c0,0.4,0.1,0.7,0.1,1.1c0,0.6-0.3,1-0.3,1.6v0.1c0,0.1,0,0.2,0.1,0.2v0.4
					c-0.1,0.1-0.5,0.6-0.5,0.8c-0.4,0.9-0.3,1.8-1.3,2.5c-1.7,1.3-1.3,1.3-3.5,2.2c-0.3,0.1-0.5,0.2-0.6,0.2c-0.2,0-0.4-0.1-0.6-0.2
					c-0.6,0-0.6-0.1-1,0.2c-1.1,0-2.2-0.2-3.3-0.6h0.1c-1-0.1-2-0.7-2.7-1.4l-0.6-0.6c-0.5-0.3-0.8-0.8-0.8-1.4
					C7.6,94.3,7,93.7,7,93.1c0-0.2,0.2-0.5,0.2-0.8c0-0.6-0.4-1.1-0.4-1.8c0-0.4,0.2-0.9,0.2-1.3c0-0.6-0.2-0.4-0.2-0.8
					s0.1-0.8,0.1-1.1c0-0.9-0.2-1.6-0.2-2.3c0-0.9,0.2-2.1,0.2-3C7,81.4,6.6,81.1,6.6,80.6z M8.9,79.7c-0.1,0.2-0.1,0.3-0.2,0.5
					c0,0.2,0.2,0.5,0.2,0.8s-0.2,0.6-0.2,0.9c0,0.6,0.2,0.9,0.2,1.4c0,0.4-0.2,0.5-0.2,0.8v2.6c0,0.6,0.3,1,0.3,1.6
					c0,0.4-0.3,0.8-0.3,1.4S9,90.8,9,91.5c0,0.7,0.2,1.4,0.5,2c0.3,1.1,1.1,2,2.2,2.4c0.4,0.3,0.9,0.5,1.4,0.6
					c0.8,0.2,1.6,0.3,2.5,0.3c0.4-0.1,0.8-0.2,1.1-0.4c2.1,0,1.6-1,2.3-1.2c0.2-0.1,0.2-0.1,0.4-0.2c0.6-0.4,1.5-3.7,1.5-4.5
					c0-0.4,0-0.8-0.2-1.1v-1.1c0-1.6,0.2-3.3,0.2-4.9c0-1.2-0.3-2.2-0.3-3.4c0-0.6,0.2-1,0.2-1.6c0-0.2,0-0.5-0.1-0.6V78
					c-0.1-0.3-0.1-0.6-0.1-0.9c0-0.8,0-1.7-0.2-2.5v0.1c-0.3-1.3-1.1-2.4-2.3-3.1c-0.6-0.4-1.3-0.6-2-0.8c-0.6,0-1.2,0.2-1.8,0.2
					c-1.8,0-2.5,0.2-3.8,1.4c-0.9,1.1-1.5,2.4-1.8,3.8V79.7z"/>
				<path class="st3" d="M42.2,63.2c0-0.4,0.3-0.7,0.7-0.7c0.2,0,0.5,0.1,0.8,0.1s0.8-0.2,1.2-0.2c0.6,0,1.4,0.2,2,0.2
					c1,0,2.2-0.2,3.2-0.2c0.6,0,1.2,0.2,1.8,0.2c0.9,0,1.2-0.2,1.2,1c0,0.6-0.8,0.9-1.2,1.1V65c0,0.4-0.1,1.4,0.2,1.7
					c0.1,0.2,0.2,0.3,0.2,0.4c0,0.3-0.2,0.6-0.2,1s0.2,0.6,0.2,0.9S52,69.8,52,70.2c0,0.2,0.1,0.6,0.1,0.8c0,0.4-0.2,0.9-0.2,1.3
					c0,0.9,0.2,1.4,0.2,2.3c0,0.2,0,0.5-0.1,0.7c0,0.2-0.1,0.2-0.1,0.5c0,1.6,0.2,3.3,0.2,4.9c0,1-0.2,2.1-0.2,3.1
					c0,0.4,0.2,0.7,0.2,1.1v2.6c0,0.9-0.2,1.5-0.2,2.4c0,0.7,0.5,1.4,0.5,2.1c0,0.2-0.1,0.2-0.1,0.3c0.1,0.8,0.5,1.5,1,2.2
					c0.2,0.6,0.6,1.1,1,1.5c1.2,0.5,2.5,0.8,3.8,0.9c2.3,0,2.8-0.6,4.6-2.1c0.2-0.1,0.8-1.6,1-1.9h0c0.1-0.2,0.2-0.4,0.2-0.6
					c0-0.6-0.1-1.1-0.1-1.7s0.2-0.8,0.2-1.1S64,89.1,64,88.8s0.2-0.6,0.2-1s-0.1-0.2-0.1-0.5v0.1c-0.1-1.1-0.2-2.3-0.1-3.4
					c0-1.4,0.1-2.6,0.1-4c0-0.9-0.2-1.5-0.2-2.4s0.2-1.5,0.2-2.4v-1.7c-0.1-0.1-0.1-0.1-0.1-0.3s-0.1-0.2-0.1-0.4s0.1-0.6,0.1-0.9
					c0-0.6-0.1-0.8-0.1-1.4c0-0.2,0.1-0.5,0.2-0.7v0.1c0.1-0.9,0.2-1.8,0.1-2.6c0-0.9-0.2-1.4-0.2-2.2c0-0.3-0.1-0.7-0.4-0.9
					c-0.3-0.3-0.5-0.6-0.5-0.8c0-0.6,0.3-0.9,1-0.9c0.3,0,0.6,0.1,0.9,0.1h3l0.1,0.1c0.4,0,0.7,0.1,1.1,0.1s1.1,0.2,1.5-0.1
					c0.3-0.1,0.6-0.1,0.9-0.2c0.6,0,0.9,0.2,1.4,0.2c0.1-0.1,0.2-0.2,0.2-0.2c0.2,0,0.3,0.2,0.4,0.5c0,0.1,0.1,0.1,0.1,0.3
					c0,1.2-1,1-1,1.7v0.1c0.1,0.1,0.1,0.3,0.1,0.6s-0.1,0.5-0.1,0.7c0,0.6,0.2,1.1,0.2,1.7s-0.2,1.2-0.2,1.8s0.2,1.1,0.2,1.7
					c0,0.2-0.1,0.4-0.1,0.6s0.1,0.6,0.1,0.8s-0.2,0.6-0.2,1c0,0.6,0.2,1,0.2,1.6c0,0.3,0,0.5-0.1,0.8v-0.1c-0.1,0.2-0.1,0.5-0.1,0.7
					c0,0.6,0.2,1.1,0.2,1.7c0,1-0.4,1.9-0.4,2.9c0,0.6,0.2,0.8,0.2,1.4c0,0.4-0.2,0.8-0.2,1.2c0,1.3,0.4,2.5,0.4,3.8
					c0,0.6-0.2,1.1-0.2,1.7s0.2,0.9,0.2,1.4s-0.2,1-0.2,1.5c0,0.3,0.1,0.6,0.1,1s-0.2,0.7-0.2,1c0.1,0.9,0,1.8-0.4,2.6
					c-0.1,0.2-0.2,0.4-0.2,0.6c-0.1,0.4-0.2,0.7-0.5,1c-0.8,0.8-0.1,1.6-2.2,3.4v-0.1l-0.2,0.3H69c-0.3,0.4-0.7,0.8-1.2,1
					c-1.2,0.7-2.4,1.2-3.7,1.6c-0.8,0.1-1.5,0.2-2.2,0.3c-0.4,0.2-0.8,0.2-1.3,0.2c-1.2,0-2.2,0.2-3.4,0.2c-0.3,0-0.7,0-1-0.1h0.1
					c-0.3-0.1-0.5-0.1-0.8-0.1c-0.3,0-0.6,0.2-0.9,0.2c-1.2,0-2.1-0.6-3.1-0.6c-0.1-0.1-0.6-0.5-0.8-0.5l-2-0.7
					c-0.4-0.1-0.9-0.7-1.3-1c-1.8-1.3-3.1-3.2-3.6-5.4c0-0.3-0.1-0.7-0.2-1c-0.2-0.7-0.4-1.5-0.4-2.3v-0.3c0.1-0.2,0.1-0.3,0.2-0.5
					c0-0.9-0.2-1.4-0.2-2.2v-0.2c0.1-0.1,0.2-0.3,0.2-0.5c0-0.1-0.2-0.3-0.2-0.4h0.1c-0.1-0.1-0.2-0.3-0.2-0.4
					c0-1.4,0.1-2.7,0.1-4.1c0-0.9,0.2-1.5,0.2-2.4s-0.1-1.7-0.1-2.6c0-0.6-0.2-0.8-0.2-1.2s0.1-0.8,0.1-1.2c0-0.6-0.2-1-0.2-1.5
					c0-1.2,0.3-2.5,0.3-3.8c0-0.9-0.3-1.6-0.3-2.5s0.2-1.5,0.2-2.4s0.1-1.6,0.1-2.5C43.4,64.4,42.2,64.1,42.2,63.2z M45.3,71.4
					c0.1,1,0.1,1.9-0.1,2.9v-0.1c-0.1,0.4-0.1,0.8-0.1,1.1c0,0.6,0.3,1,0.3,1.6c0,0.2-0.1,0.4-0.2,0.6c0,0.4,0.2,0.6,0.2,1v2.2
					c0,0.7-0.2,1.4-0.2,2.1c0,0.6,0.2,1.1,0.2,1.7s-0.2,0.9-0.2,1.4c0.2,0.3,0.2,0.7,0.2,1c0,2.3-0.2,4.6-0.2,7
					c0.1,0.3,0.2,0.5,0.4,0.7c0,1,0.6,5,1.8,5.4l0.8,0.6c0.3,0.5,0.8,0.8,1.4,1h-0.1c0.4,0.2,2.6,1.3,2.7,1.3c0.3,0,0.5,0,0.8-0.1
					c1.6,0.5,3.2,0.7,4.9,0.7c1.2,0,2-0.4,3.2-0.4h0.6c0.6,0,1.2-0.3,1.8-0.3c0.9,0,1.4-0.8,1.8-0.8l0.4-0.2h-0.1
					c0.6-0.3,1.1-0.2,1.4-0.6s1.1-0.8,1.4-1.4c1.3-1.9,2.1-4.2,2.2-6.6v-5c0-1-0.2-2-0.2-3c0-0.2-0.2-0.6,0.1-0.9v0.1
					c0-0.1,0.1-0.2,0.1-0.3v-3.5c0-0.3,0.2-0.6,0.2-1c0-0.6-0.3-1-0.3-1.6s0.2-1.2,0.2-1.8c0.1-0.8,0-1.6-0.2-2.4v0.1
					c-0.1-0.2-0.1-0.4-0.2-0.6c0-0.3,0.2-0.7,0.2-1c0-0.5-0.2-3,0-3.2c0-0.6,0.2-1.4,0.2-2.1s-0.3-1.2-0.3-1.8
					c0-0.1,0.1-0.3,0.2-0.6c0.1-0.1,0.1-0.2,0.1-0.3c-0.7,0-1.4,0.2-2.2,0.2c-0.6,0-1.3-0.2-1.8-0.2c-0.2,0-0.4,0.1-0.6,0.2
					c0.2,0.6-0.2,0.9-0.2,1.4c0,0.2,0.2,0.6,0.2,0.9s-0.2,0.6-0.2,0.8c0,0.1,0.1,0.3,0.2,0.4v1.5c0,0.3-0.2,0.7-0.2,1.1
					s0.2,0.6,0.2,0.9s-0.2,0.6-0.2,0.9c0,0.9,0.4,1.5,0.4,2.2c0,0.6-0.3,0.8-0.3,1.4s0.3,0.8,0.3,1.4c0,0.4-0.2,0.8-0.2,1.2v3.6
					c0,0.6-0.2,0.9-0.2,1.4s0.2,1,0.2,1.5s-0.2,0.9-0.2,1.5c0,0.9,0.2,1.5,0.2,2.4c0,0.7-0.2,1.4-0.2,2.2c0,0.2,0.1,0.3,0.1,0.6
					c0,0.6-1,3.4-1.5,3.8c-0.5,0.4-1,0.8-1.4,1.3V97l-0.2,0.3h0.1c-0.3,0.6-0.8,0.5-1.4,0.7c-0.5,0.3-1,0.5-1.5,0.6
					c-0.2,0-0.5-0.1-0.7-0.1c-0.2,0-0.3,0.1-0.5,0.2c-1.2,0.1-2.5-0.1-3.7-0.4h0.1c-1.4-0.3-2.7-1.1-3.7-2.2
					c-0.1-0.7-0.4-1.3-0.7-1.8h0.1c-0.4-0.4-0.6-1-0.6-1.6c0-1-0.4-1-0.4-1.5c0-0.2,0.1-0.2,0.1-0.4v-2c0-1.6,0.2-3.3,0.2-4.9
					c0-0.4-0.2-0.9-0.2-1.3c0-1.6-0.1-3.1-0.1-4.7c0-0.6,0.2-1.2,0.2-1.8c0-1.8-0.2-3.7-0.2-5.5c0-0.4,0.2-0.8,0.2-1.2
					s-0.2-0.9-0.2-1.3c0-0.6,0.2-1,0.2-1.5s-0.2-0.9-0.2-1.4c0-0.1,0-0.3,0.1-0.4c-1.3,0-2.6-0.1-3.9-0.1c-0.6,0-0.8-0.1-0.8,0.6
					c0,0.9,0.2,1.6,0.2,2.5c0,0.7-0.2,1.4-0.2,2.2c0,0.2,0.1,0.6,0.1,0.8L45.3,71.4z"/>
				<path class="st3" d="M87.7,64.3c-0.2-0.2-1-0.7-1-1.1c0-0.6,0.7-0.7,1.1-0.7c0.6,0,1.1-0.2,1.7-0.2c0.4,0,0.8,0.2,1.2,0.2
					c0.2,0,0.3-0.1,0.6-0.1c0.6,0,1.2,0.1,1.8,0.1c1.2,0,2.1-0.2,3.3-0.2c0.2,0.1,0.3,0.2,0.6,0.2H97c0.6,0,1.6-0.3,1.8-0.3
					c0.3,0,0.5,0.1,0.8,0.2c0.4-0.1,0.8-0.2,1.2-0.2c1.4,0,2.8,0.5,4.2,0.6c1.5,0.3,2.8,0.9,4,1.8v-0.1c0.7,0.7,1.3,1.5,1.8,2.3
					h-0.1c0.5,0.8,0.9,1.6,1.3,2.4c0,1.6,0.6,3.3,0.6,4.9c0,0.3,0,0.6-0.1,0.9v-0.1c-0.1,0.2-0.1,0.5-0.1,0.7c0,0.3,0.2,0.6,0.2,0.9
					s0,0.4-0.1,0.5c-0.1,0.1-0.1,0.2-0.2,0.3c0,0.3,0.2,0.6,0.2,1c0,0.6-0.2,1-0.2,1.5c0,0.3,0.1,0.6,0.1,0.9v0.2
					c0,0.2-0.1,0.2-0.1,0.4c0.1,0.2,0.1,0.5,0.2,0.7c0,0.4-0.3,0.6-0.3,1v0.5c-0.3,1.7-0.7,3.4-1.3,5c-0.4,0.6-0.9,1.2-1.5,1.8h0.1
					c-0.6,0.7-1.3,1.3-2.2,1.6c1,1.5,0.6,1.5,1,2.2c0.2,0.2,0.4,0.5,0.5,0.8l-0.1-0.1c0.4,0.6,0.3,1.1,0.6,1.4
					c0.1,0.1,0.2,0.2,0.2,0.3v-0.1c0.3,0.6,0.6,1.3,0.9,2h-0.1l0.4,0.6c0,0.2-0.2,0.5,0.1,0.7c0.3,0.5,0.6,1,1,1.4
					c0.2,0.2-0.1,0.8,0.2,1c0.6,0.3,1.1,1,1.1,1.7c0,0.7-2.6,0.7-3.3,0.7c-1,0-2.1-0.2-3.1-0.2c-0.2,0-0.2,0.1-0.4,0.1
					c-0.1,0.1-0.2,0.1-0.5,0.1c-0.4,0-0.6-0.2-0.9-0.2c-0.6,0-1.4,0.2-2,0.2c-0.2,0-1.3-0.4-1.3-0.7s0.2-0.3,0.3-0.6v0.1
					c0-0.3,0.2-0.6,0.6-0.8c0.1-0.1,0.1-0.2,0.2-0.3c0-0.1,0-0.1-0.1-0.2c-0.3-0.4-0.5-0.8-0.7-1.3v0.1c-0.1-0.7-0.4-1.4-0.8-2h0.1
					c-0.5-0.8-1-1.6-1.4-2.5v0.1c-0.1-0.3-0.2-0.5-0.3-0.7c-0.9-0.9,0.2-2.6-2.2-2.6c-0.4,0-1,0-1,0.6c0,0.6,0,1.3-0.1,1.9V96
					c0,0.3,0.2,0.6,0.2,1c0,0.6-0.2,1.3-0.2,1.9c0,1.2,0.1,2.4,0.3,3.5c0.1,0.3,0.3,0.6,0.6,0.8v-0.1c0.2,0.2,0.6,0.6,0.6,0.9
					c0,0.9-3.8,0.7-4.6,0.7c-1,0.1-2.1,0-3.1-0.2c-0.1,0-0.3-0.1-0.4-0.1c-0.2,0-0.6,0.2-0.9,0.2c-0.1,0-0.3,0-0.4-0.1
					c-0.6,0-1.8,0.2-1.8-0.6c0-0.6,0.5-1,0.9-1.4v0.1l0.4-0.2h-0.1c0-0.4-0.1-0.8-0.1-1.1c0-0.6,0.2-0.9,0.2-1.3v-5.1
					c0-0.6-0.2-0.8-0.2-1.4v-1.9c0-0.3-0.2-0.7-0.2-1s0.2-0.7,0.2-1.1c0-0.6-0.2-1.3-0.2-1.8s0.2-0.8,0.2-1.4c0-0.2-0.2-0.5-0.2-0.7
					s0.2-0.6,0.2-1s-0.1-0.7-0.1-1c0-0.6,0.2-1.2,0.2-1.8c0-0.3-0.1-0.6-0.1-1S88,80,88,79.5c0-0.7-0.2-1.4-0.2-2.2v-3.8
					c0-0.6,0.2-1,0.2-1.6c0-0.2-0.2-0.6-0.2-0.9s0.3-0.5,0.3-1c0-0.7-0.3-1.5-0.3-2.2c-0.1-0.7,0-1.5,0.2-2.2
					C87.8,65.2,87.7,64.8,87.7,64.3z M89.8,77.5c0,0.4,0.2,0.8,0.2,1.2c0,0.6-0.3,0.9-0.3,1.3s0.2,0.6,0.2,1c0,0.7-0.2,1.6-0.2,2.2
					c0,0.3,0.2,0.8,0.2,1.2c0,0.6-0.2,1.1-0.2,1.7c0,0.3,0,0.7,0.1,1V87c0.1,0.1,0.1,0.3,0.1,0.4c0,0.3-0.2,0.7-0.2,1
					c0,0.6,0.2,0.8,0.2,1.4s-0.2,0.7-0.2,1.3c0,0.7,0.2,1.4,0.2,2.2c0,0.6-0.2,1.2-0.2,1.8c0,0.9,0.1,1.8,0.1,2.7s-0.2,1.8-0.2,2.7
					c0,0.7,0.2,1.4,0.2,2.1c0.2,0,0.4,0.2,0.6,0.2h0.2c0.1-0.1,0.2-0.1,0.5-0.1c0.6,0,1,0.3,1.5,0.3s0.8-0.2,1.4-0.2
					c0.2,0,0.5,0.1,0.5-0.2c0-0.2-0.1-0.3-0.2-0.5V102c0-0.6,0.2-0.9,0.2-1.3c0-0.9-0.1-1.5-0.1-2.2c0-0.6,0.1-1,0.1-1.6
					c0-1.2-0.2-2.3-0.2-3.6c0-0.3-0.2-0.6-0.2-1c0-0.2,0.1-0.6,0.5-0.6c0.1,0,0.2,0.1,0.2,0.1c0.1,0.1,0.3,0.2,0.5,0.2
					c1.2,0,2.4-0.2,3.6-0.2c0.7,0,1.1,0.2,1.3,0.8v-0.1c0.6,1.5,1.8,3.4,2,4.7V97c0,0.2,0.1,0.4,0.2,0.5c0.2,0.2,0.3,0.3,0.3,0.6
					v0.2c0.2,0.3,0.3,0.6,0.3,1l-0.1-0.1c0.3,0.4,0.6,0.8,0.7,1.2c0.1,0.6,0.6,0.8,0.8,1.2s-0.2,1.4,0.7,1.4h0.1
					c1.3,0,2.6-0.2,3.8-0.2c0.2,0,0.4,0.1,0.6,0.1h0.1c-0.3-0.5-0.4-1-0.6-1.5h0.1c-0.2-0.4-0.7-0.7-1-1.3c-0.3-0.9-0.6-1.8-1.1-2.6
					h0.1c-0.6-0.6-0.2-0.8-0.5-1.4h0.1c-0.2-0.2-0.2-0.3-0.5-0.6c-0.2-0.2-0.4-0.4-0.5-0.6c-0.2-0.3-0.6-2-1-2.2s-0.6-0.5-0.6-0.8
					c0-1,2.2-1.4,2.6-1.8V90c1.8-2.1,1.8-2.2,2.6-4.9c0.2-0.7,0.4-1.5,0.4-2.2c0-0.2-0.2-1.8,0.1-2v-0.1c0-0.3-0.2-0.6-0.2-0.9
					s0.3-0.6,0.3-1.2c0-1.2-0.2-2.4-0.2-3.6c0-0.3,0-0.5,0.1-0.8c0-0.4-0.2-0.7-0.2-1.1c0-0.6,0.2-0.6,0.2-0.8
					c-0.2-0.2-0.1-0.6-0.2-0.9c-0.1-0.5-0.3-1-0.6-1.4c-1.2-3.1-2.2-4.6-5.4-5c-1-0.1-2.2-0.6-2.9-0.6c-0.3,0-0.6,0.1-1,0.1
					s-0.4-0.2-0.6-0.2c-0.1,0-0.2,0.1-0.2,0.1c-1.2,0-2.2,0.2-3.4,0.2c-0.3,0-0.6-0.1-0.9-0.2c-0.6,0-1.4-0.1-2-0.1
					c-1,0-1.9,0.3-2.8,0.3c-0.3,0-0.7-0.3-0.7,0.2s0.1,1,0.1,1.6s-0.2,0.8-0.2,1.4s0.3,1.3,0.3,2c0,0.6-0.2,0.9-0.2,1.3
					c0,0.6,0.2,0.8,0.2,1.4c0,0.3-0.1,0.5-0.2,0.8v0.9c0,0.2,0.1,0.2,0.1,0.5C89.9,75.6,89.8,76.6,89.8,77.5L89.8,77.5z M94.4,69.1
					c0-0.4,0.2-0.6,0.7-0.6s1,0.3,1.5,0.3s0.9-0.2,1.3-0.2c0.6,0,1.1,0.2,1.8,0.2h0.8c1.6,0,4.1,1.8,4.7,3.4
					c0.2,0.6,0.4,0.8,0.6,1.4c0,0.4-0.2,0.6-0.2,0.9v0.1c0,0.1,0,0.1,0.1,0.2l0.1,0.1c0,0-0.1-0.1,0.2,0.5v3.4
					c0,0.3-0.2,0.6-0.2,0.9s0.2,0.6,0,1c0,0.1-0.2,0.3-0.2,0.4c0.1,0.9,0,1.7-0.2,2.6v-0.1c-0.1,0.3-0.2,0.5-0.4,0.7l-0.6,0.9
					c-0.6,0.9-0.6,0.8-1.4,1.2c-0.4,0.3-0.8,0.6-1.3,0.7c-1.4,0.3-2.8,0.5-4.2,0.6c-0.6,0-0.8-0.2-1.4-0.2s-0.8,0.2-1.4-0.1
					l-0.2-0.2c0-0.2-0.1-0.5-0.1-0.7c0-0.6,0.2-1.1,0.2-1.7s-0.2-1-0.2-1.6c0-0.9,0.2-1.6,0.2-2.3c0-1.2-0.2-1.4-0.2-2.3
					c0-0.6,0.2-1.1,0.2-1.7c0-0.4-0.2-0.7-0.2-1c0-0.6,0.2-0.9,0.2-1.4c-0.2-0.4-0.3-0.9-0.2-1.4c0-0.6,0.2-1,0.2-1.5
					c0-0.4-0.2-0.6-0.2-1S94.4,69.5,94.4,69.1L94.4,69.1z M96.5,71.6c0,0.6,0.2,1.1,0.2,1.7s-0.2,1.2-0.2,1.8c0,0.2,0,0.4,0.1,0.6
					v-0.1c0.1,0.1,0.1,0.3,0.1,0.4c0,0.4-0.2,0.8-0.2,1.2v3c0,0.9,0.2,1.4,0.2,2.3c0,0.7-0.2,1.4-0.2,2.1c0,0.5,0.4,1,0.9,1
					c0,0,0.1,0,0.1,0c0.2-0.2,0.5-0.3,0.8-0.3c0.6,0,0.4,0.4,1,0.2v0.1c0.4-0.4,1.9-0.5,2.5-0.6l1-1.1c0.6-0.6,0.3-1.2,0.7-1.8
					c0.6-0.6,0.5-6.3,0.5-6.6c-0.1-1-0.4-2-0.9-2.9v0.1l-0.5-0.6c-0.3,0.1-0.5-0.1-0.6-0.3c0,0,0-0.1,0-0.1
					c-0.1-0.1-0.1-0.2-0.1-0.3c-1.3-0.3-2.7-0.5-4-0.4c-0.2,0-0.4-0.2-0.6-0.2C96.7,70.7,96.5,71.1,96.5,71.6L96.5,71.6z"/>
			</g>
			<g>
				<path class="st3" d="M0.2,117.8c0-0.4-0.2-0.7-0.2-1.1s0-0.9,0.6-1H0.5c0.9-0.2,1.9-0.3,2.8-0.2c0.2,0,0.4,0.1,0.6,0.1
					c0.1,0.1,0.3,0.1,0.6,0.1s0.8-0.2,1.2-0.2c0.2,0,0.5,0.2,0.7,0.2c0.1,0,0.3,0,0.4-0.1H6.7c0.1-0.1,0.2-0.1,0.5-0.1
					c0.4,0,0.7,0.2,1.3,0.2c1,0,1.8-0.2,2.7-0.2c0.7,0,1.4,0.2,2.2,0.2c0.6,0,0.8-0.2,1.4-0.2s0.8,0.2,1.4,0.2
					c0.6,0,1.2-0.2,1.8-0.2c0.2,0,0.5,0.2,0.7,0.2c0.2,0,0.5-0.2,0.7-0.2c0.1,0,0.3,0,0.4,0.1c0.6,0.1,1.2,0.1,1.8-0.1
					c0.4-0.1,0.7-0.1,1.1-0.2c0.6,0,1.1,0.3,1.8,0.3s0.8-0.2,1.4-0.2s0.9,0.2,1.4,0.2c0.9,0,0.7,1,0.7,1.7v2.7
					c0,0.4,0.2,0.8,0.2,1.4c0,0.9,0.1,3-0.5,3.6c-0.1,0-0.1,0-0.2,0.1c-0.9,0-1.2-1.4-1.8-1.4c-0.2,0-0.2,0.1-0.3,0.1h0.1
					c-0.2,0.1-0.4,0.1-0.6,0.1c-0.4,0-0.9-0.2-1.4-0.2s-1.3,0.2-2,0.2c-0.9,0-1.8-0.2-2.8-0.2c-0.2,0-0.3,0.1-0.3,0.3s0.2,0.6,0.2,1
					s-0.2,0.6-0.2,1s0.1,0.6,0.1,1s-0.1,0.7-0.1,1c0,0.9,0.2,1.6,0.2,2.5c0,0.6-0.2,1.2-0.2,1.8c0,0.3-0.2,1.2,0.2,1.5
					c0,0.1,0,0.1,0.1,0.2v0.2c0,0.3-0.2,0.6-0.2,1v0.1c0.1,0.3,0.2,0.7,0.2,1c0,0.3-0.3,0.8-0.3,1.2c0,0.6,0.2,1,0.2,1.5
					c0,1.5,0.1,3.1,0.1,4.6c0,0.6-0.2,0.9-0.2,1.4s0.3,1,0.3,1.6c0,0.3-0.2,0.6-0.2,1c0,1.2-0.2,2.3-0.2,3.5c0,0.6,0.2,1,0.2,1.6
					c0,0.9-0.2,1.5-0.2,2.4c0,0.6,0.3,1.1,0.7,1.5l0.2,0.5V157c0.2,0.1,0.3,0.3,0.2,0.5c0,0.4-0.5,0.6-0.9,0.6
					c-0.2,0-0.3-0.2-0.6-0.2c-0.2,0-0.5,0.2-0.8,0.2s-0.4,0-0.5-0.1c-1.2,0-2.1-0.1-3.3-0.1c-0.6,0-0.8,0.2-1.4,0.2S11,158,10.4,158
					s-1.8,0.2-1.8-1c0-0.6,0.3-0.4,0.7-0.6c0.3-0.4,0.4-0.9,0.4-1.4c0-0.9-0.2-1.6-0.2-2.3c-0.1-0.6-0.1-1.1,0.1-1.7
					c0.1-0.3,0.1-0.7,0.2-1c0-0.4-0.2-1-0.2-1.6c0-0.4,0.2-0.8,0.2-1.2c0-0.9,0.1-1.7,0.1-2.6c0-0.6-0.3-1-0.3-1.4s0.2-0.8,0.2-1.2
					c0-0.6-0.2-1.3-0.2-1.8v-1.9c0-0.6,0.2-1,0.2-1.6l-0.2-0.3h0.1c-0.3-0.3-0.1-0.9-0.1-1.3c0-0.6-0.1-1-0.1-1.6s0.2-1.2,0.2-1.8
					c-0.2-0.2-0.2-0.6-0.2-0.9c0-0.4,0.1-0.7,0.1-1s-0.2-0.6-0.2-0.9s0.1-0.2,0.1-0.5c0-0.9-0.1-1.8-0.1-2.6c0-0.3,0-0.5,0.1-0.8
					v0.1c0-0.2,0.1-0.2,0.1-0.5c0-0.4-0.2-0.6-0.7-0.6H6.6c-0.6,0-1.1,0.2-1.8,0.2s-1-0.1-1.6-0.1c-0.5,0-0.9,0.1-1.4,0.3v-0.1
					c-0.2,0.2-0.8,0.9-1,0.9C0,124.5,0,122.8,0,121.9c0-0.4,0.2-0.7,0.2-1.1c0-0.6-0.2-1.1-0.2-1.7C0,118.5,0.2,118.2,0.2,117.8z
					 M2,118.9c0,0.3-0.1,1,0.2,1.2c0,0.1,0,0.1,0.1,0.2v0.2c0,0.6-0.1,0.9-0.1,1.3c0,0.1,0.1,0.2,0.2,0.2c0.4-0.2,0.9-0.3,1.4-0.2
					c0.4,0,0.8,0.2,1.2,0.2s0.6-0.2,1-0.2c0.6,0,0.9,0.2,1.4,0.2c0.3,0,0.7,0,1,0l2.2-0.1c0.3,0,1.2-0.1,1.2,0.5
					c0,0.2-0.2,0.3-0.2,0.6s0,0.4,0.1,0.5v-0.1c0.1,0.9,0.1,1.8,0,2.6c0,0.2,0.1,0.3,0.1,0.6c0,0.6-0.2,1-0.2,1.6
					c0,0.4,0.2,0.8,0.2,1.2s-0.2,0.7-0.2,1c0,0.6-0.1,1-0.1,1.5c0,0.2,0.1,0.2,0.1,0.5v-0.1c0.2,0.5,0.2,1.1,0.2,1.6
					c0,1.2-0.3,2.6-0.3,3.5c0,0.2,0,0.3,0.2,0.5c0,0.1,0,0.1,0.1,0.2v0.2c0,0.6-0.2,1-0.2,1.6v1.4c0.1,0.2-0.1,0.4-0.1,0.6
					s-0.2,0.9,0.1,1.1c0.1,0.4,0.1,0.7,0.2,1.1c0,0.2-0.2,0.4-0.2,0.8c0,0.2,0.2,0.6,0.2,0.8c0,1.2,0.1,2.2,0.1,3.4
					c0,0.3,0,0.6-0.1,0.6v-0.1c0,0.2-0.2,0.3-0.2,0.6s0.3,0.5,0.3,0.9c0,0.6-0.2,0.9-0.2,1.4c0,0.2,0.2,0.6,0.2,0.9
					c0,0.6-0.3,1-0.3,1.6c0,0.2,0,0.3,0.2,0.5c0,0.1,0,0.1,0.1,0.2v0.2c0,0.2,0.2,0.2,0.5,0.2s0.6-0.2,0.9-0.2s0.6,0.2,0.9,0.2
					c0.7,0,1.4-0.2,2.2-0.2c0.2,0,0.2-0.1,0.2-0.3c0-0.7,0.1-1.4,0.1-2.2v-1.6c0-0.6-0.2-1.2-0.2-1.9c0-1,0.2-2.2,0.2-3.2
					c0-0.2-0.1-0.5-0.1-0.7c-0.1-0.3-0.1-0.6-0.1-0.9c0-0.7,0.2-1.4,0.2-2.1s-0.2-1.4-0.2-2.2c0-0.6,0.2-0.8,0.2-1.2
					s-0.2-0.9-0.2-1.2c0-0.6,0.2-1.3,0.2-1.9v-3.9c0-0.6-0.2-1.1,0-1.7v0.1c0.1-0.2,0.1-0.4,0.1-0.6c0-0.2,0-0.4-0.1-0.5
					c-0.1-0.7-0.2-1.4-0.2-2.1c0-0.3,0.2-0.6,0.2-0.9v-2.2c0-0.2-0.1-0.3-0.2-0.5h0.1c-0.2-0.1-0.3-0.3-0.2-0.5
					c0-0.3,0.1-0.6,0.2-0.9c0-0.1,0-0.1-0.1-0.2v-0.1c0-0.1,0-0.3,0.1-0.4l-0.1,0.1c0.1-0.2,0.2-0.4,0.5-0.4c0.2,0,0.5,0.1,0.8,0.1
					c0.3-0.1,0.5-0.1,0.8-0.2c0.4,0,0.9,0.2,1.3,0.2c0.6,0,1-0.2,1.6-0.2s1,0.2,1.6,0.2s0.8,0.1,1.4,0.1c0.4,0,0.8-0.2,1.2-0.2
					c0.2,0,0.2,0,0.3,0.1c0-0.2,0.1-0.4,0.2-0.6c0.2-0.3,0.2-1.2,0.2-1.6s-0.2-0.8-0.2-1.2c0-0.2,0.2-0.5,0.2-0.7
					c0-0.1-0.1-0.2-0.1-0.2c-0.6,0-1.3,0.1-1.9,0.1c-1.8,0-3.8-0.2-5.6-0.2c-0.4,0-0.8,0.2-1.2,0.2c-0.2,0-0.4-0.1-0.6-0.2
					c-0.4,0-0.6,0.2-1,0.2c-0.6,0-1.2-0.2-1.8-0.2c-0.2,0-0.5,0.1-0.8,0.1c-1,0-1.8,0.2-2.8,0.2c-0.4,0-0.8-0.2-1.2-0.2
					c-0.6,0-0.8,0.2-1.4,0.2s-0.8-0.2-1.4-0.2s-0.9,0.2-1.3,0.2c-0.9,0-1.8-0.1-2.7-0.1C2,117.5,2,118.6,2,118.9z"/>
				<path class="st3" d="M45.4,158h-3c-0.6,0-1.7,0.2-1.7-0.7c0-0.3,0.3-0.5,0.6-0.7v0.1c0.9-0.9,0.5-1.3,0.7-2.2v-0.2
					c0-0.1,0-0.1,0.1-0.1c0-0.2,0-0.2-0.1-0.3c0-0.2-0.1-0.2-0.1-0.5c0-1.2,0.1-2.4,0.1-3.6c0-0.3-0.2-0.7-0.2-1s0.2-0.6,0.2-1
					s-0.2-0.6-0.2-0.9c0-0.6,0.2-1,0.2-1.4c0-0.2-0.1-0.4-0.1-0.6v0.1c-0.2-0.3-0.2-0.7-0.2-1c0-0.7,0.3-1.4,0.3-2.2
					c0-0.6-0.2-0.8-0.2-1.4c0-0.4,0.2-0.7,0.2-1c0-0.9-0.2-1.8-0.2-2.6v-1.2c0-0.6,0.2-1,0.2-1.5c0-0.3-0.2-0.6-0.2-0.9
					c0-0.2,0-0.5,0.1-0.7c0-0.2,0.1-0.3,0.1-0.6s-0.1-0.2-0.1-0.5c-0.2-0.2-0.1-2-0.1-2.6s0.1-0.8,0.1-1.4s-0.1-0.8-0.1-1.4
					c0-0.2,0.1-0.5,0.2-0.7c0-0.4-0.2-0.8-0.2-1.2c0-0.2,0.1-0.2,0.1-0.5v0.1c0-0.2,0.1-0.2,0.1-0.4v-5.2c0-0.7-1-1-1-2
					c0-0.6,1.4-0.4,1.9-0.6c0.1-0.1,0.3-0.1,0.4-0.1c0.2,0,0.5,0.2,0.7,0.2c0.9,0,1.5-0.2,2.4-0.2c0.6,0,1.3,0.2,1.9,0.2
					c0.3,0,0.6-0.1,1-0.1c0.6,0,0.9,0.2,1.3,0.2c0.7,0,1.4,0.1,2.1,0.1c0.9,0,1.4-0.2,2.3-0.2c0.7,0,1.4,0.2,2.1,0.2
					c0.9,0,1.5-0.2,2.4-0.2c1.6-0.1,3.3,0,4.9,0.2c0.6,0.2,0.9,0.7,0.9,1.3c0,0.4-0.2,0.7-0.2,1.1c0,0.6-0.1,0.9-0.1,1.2
					c0,0.3,0,0.5,0.1,0.8v-0.1c0.1,0.3,0.1,0.5,0.2,0.8c0,0.2-0.1,0.4-0.2,0.6v-0.1c-0.1,0.2-0.1,0.5-0.1,0.7c0,0.4,0.2,0.8,0.2,1.2
					c0,0.3-0.1,0.7-0.2,1c0,0.4,0,0.9-0.6,0.9c-0.2,0-0.4-0.1-0.5-0.3l0,0l-0.2-0.2c-0.6-0.2-0.9-0.9-1.2-0.9s-0.5,0-0.6,0.1h-0.1
					c-0.3,0.1-0.7,0.1-1,0.1c-0.4,0-0.8-0.2-1.2-0.2c-0.9,0-1.6,0.1-2.5,0.1c-1.2,0-2.4-0.2-3.6-0.2c-0.6,0-1,0.2-1.5,0.2
					c-0.4,0-0.7-0.2-1.1-0.2c-0.2,0-0.2,0-0.3,0.1c0,1-0.1,2-0.1,3c-0.1,0.7,0,1.4,0.1,2.1c0.1,0.3,0.1,0.7,0.2,1
					c0,0.3-0.2,0.5-0.2,0.8s0.2,0.5,0.2,0.7c0,0.2,0,0.3-0.1,0.5c0,0.2,0.3,0.2,0.4,0.2c0.6,0,0.9-0.2,1.3-0.2c0.1,0,0.3,0,0.4,0.1
					h-0.1c0.6,0.2,1.2,0.2,1.8,0.2c0.9,0,1.6-0.5,2.2-0.5s1.4,0.4,2.1,0.4c1.4,0,2.2-1.4,2.4-1.4s0.2,0.1,0.2,0.3
					c0,0.1,0,0.2,0.1,0.2v-0.1c0.4,0.4,0.5,1,0.5,1.5c0,0.6-0.2,1.2-0.2,1.8s0.1,1.2,0.1,1.8c0,0.4-0.1,0.7-0.1,1.3s0.2,1.2,0.2,1.8
					s0,1.8-0.9,1.8c-0.7,0-1.1-1.2-1.7-0.9c-0.7,0-1.5-0.1-2.2-0.1c-1.3,0-2.6,0.1-4,0.1c-0.7,0-1.4-0.2-2.2-0.2s-0.6,1-0.6,1.5v1.2
					c0,0.6,0.3,1.3,0.3,2c0,0.1,0,0.3-0.1,0.4v-0.1c-0.2,0.5-0.2,1-0.2,1.5c0,0.6,0.3,1,0.3,1.6c0,0.4-0.2,0.8-0.2,1.2
					c0.2,0,0.4,0,0.5-0.1c0.2-0.1,0.5-0.1,0.7-0.2c0.6,0,1.3,0.2,1.9,0.2s1.1-0.2,1.7-0.2c0.2,0,0.2,0.1,0.4,0.1l0.1,0.1
					c0.2,0,0.4,0,0.6-0.1c0.2,0,0.3-0.1,0.6-0.1s0.5,0.2,0.8,0.2c0.7,0,1.4-0.3,2.2-0.3c0.6,0,0.8,0.2,1.2,0.2c2.4,0,2.1-1,3.1-1
					c0.4,0,0.7,0.2,0.7,0.5c0,0.1,0,0.1,0,0.2c0,0.7-0.2,1.3-0.2,2c0,0.3,0.2,0.6,0.2,1S65,152.7,65,153c-0.2,0.2,0,1.1,0,1.4
					c0,0.6-0.1,1.3-0.1,1.9c0,1.3,0.1,1.8-1.5,1.8c-1.1,0.1-2.2,0-3.3-0.2c-0.2-0.1-0.5-0.1-0.7-0.2c-0.1,0-0.3,0-0.4,0.1
					c-0.8,0.2-1.6,0.3-2.4,0.2c-0.7,0-1.4-0.2-2.1-0.2c-0.6,0-1,0.2-1.7,0.2c-1.5,0-3-0.2-4.6-0.2c-0.2,0-0.4,0-0.5,0.1
					c-0.1,0-0.2,0-0.2,0.1c-0.1,0.1-0.3,0.1-0.4,0.1c-0.3,0-0.7-0.2-1.1-0.2L45.4,158z M43.9,150.7c0,0.2,0,0.4,0.1,0.6v-0.1
					c0.1,0.3,0.1,0.5,0.1,0.8c0,0.9-0.3,1.7-0.3,2.6c0,0.2,0.1,0.5,0.2,0.7v-0.1c0.1,0.2-0.1,0.8,0.2,0.8s0.2-0.1,0.5-0.1
					c0.4,0,0.6,0.2,1,0.2h0.1c0.6-0.1,1.2-0.3,1.8-0.3c0.6,0,1,0.2,1.4,0.2h1.2c0.9,0,1.6,0.1,2.5,0.1c1,0,1.9-0.2,2.8-0.2
					c0.4,0,0.8,0.2,1.2,0.2s1.3,0.2,1.5-0.1v0.1c0.1-0.1,0.3-0.2,0.5-0.2c0.2,0,0.5,0.2,0.8,0.2c0.6,0,3.3-0.1,3.8-0.1
					c0.1,0.1,0.1-0.4,0.1-0.5c0-0.2-0.1-0.5-0.1-0.7c-0.1-0.3-0.1-0.6-0.1-0.9v-1.5c0-0.4,0.2-0.5,0.2-0.6s-0.1-0.2-0.2-0.2
					c-1,0-1.8,0.3-2.8,0.3s-1.5-0.2-2.2-0.2c-0.9,0-1.6,0.2-2.5,0.2s-1.9-0.2-2.9-0.2s-1.5,0.2-2.1,0.2c-0.2,0-0.6-0.2-0.8-0.2
					s-0.4,0.2-0.6,0.2c-0.4,0-0.4-2-0.4-2.3c0-0.6,0.2-1.3,0.2-1.8c0-0.2,0-0.5-0.1-0.6v0.1c-0.2-0.4-0.2-0.7-0.2-1.1
					c0-0.6,0.2-0.8,0.2-1.2c0-0.6-0.2-1-0.2-1.6s0.2-1,0.2-1.4c0-0.9,0-1.9-0.2-2.8c0-0.1-0.1-0.3-0.1-0.4c0-0.2,0.2-0.2,0.4-0.2
					c0.4,0,0.8,0.2,1.1,0.2s0.8-0.2,1.4-0.2c0.4,0,0.6,0.2,1,0.2s0.7-0.2,1-0.2c0.3,0,0.5,0,0.8,0.1h0c0.1,0.1,0.3,0.1,0.6,0.1
					c0.4,0,0.8-0.2,1.4-0.2c1,0,1.8,0.2,2.6,0.2c0.3,0,0.6-0.2,0.9-0.2c0.2,0,0.4,0.1,0.6,0.2c-0.1-0.4-0.2-0.7-0.2-1.1
					c0.1-0.5,0.1-1,0.1-1.5c0-0.6,0-1.2-0.2-1.8c-0.1-0.1-0.3-0.1-0.6-0.1c-0.7,0-1.5,0.2-2.2,0.2h-5.3c-0.2,0-0.5-0.2-0.8-0.2
					c-0.6,0-0.8,0.3-1.4,0.3c-0.4,0-1-0.2-1-0.7c0-0.4,0.2-0.9,0.2-1.3v-1.9c-0.1-0.2-0.1-0.4-0.2-0.6c0-0.3,0.2-0.6,0.2-1
					c0-0.6-0.2-1.3-0.2-1.9s0.3-1.4,0.3-2.2c0-0.2-0.1-0.5-0.2-0.7h0.1c-0.1-0.1-0.2-0.3-0.2-0.5c0-0.2,0.1-0.2,0.1-0.5
					c0.1-0.1,0.1-0.3,0.1-0.6c0-0.6-0.2-0.8,0.6-0.8c0.6,0,1.4-0.1,2-0.1c1.8,0,3.7,0.3,5.5,0.3c0.5,0,1-0.1,1.4-0.2h-0.1
					c0.3-0.1,0.5-0.1,0.8-0.1c0.6,0,1.2,0.2,1.8,0.2h1.9c0.1,0,0.2,0,0.2-0.1v-0.9c0-0.2-0.1-0.3-0.1-0.6c0-0.9,0.2-1.5,0.2-2.4
					v-0.4c-0.6,0-1.1,0.1-1.7,0.1s-1-0.2-1.5-0.2s-1.2,0.2-1.8,0.2s-0.9-0.3-1.3-0.3s-0.7,0.2-1,0.2c-0.7,0-1.4,0.1-2.2,0.1
					c-0.9,0-1.6-0.3-2.5-0.3c-1.2,0-1,0.3-1.6,0.3c-0.8,0-1.6,0-2.4-0.2c-0.3,0.2-0.6,0.3-0.9,0.2c-0.4,0-0.5-0.2-0.8-0.2h-0.2
					c-0.6,0-0.9-0.2-1.3,0.4c-0.1,0.2-0.1,0.5-0.2,0.7c0,0.6,0.2,1,0.2,1.6c0,0.4-0.1,0.8-0.1,1.2v6.9c0,0.4-0.2,0.8-0.2,1.4
					c0,0.4,0.2,0.8,0.2,1.4c0,1.9,0.1,3.9,0.1,5.8v1c0,0.3,0.1,0.6,0.1,0.9c0,0.7-0.2,1.4-0.2,2.1v4.4c0,0.1,0.2,0.3,0.2,0.4h-0.2
					c0.1,0.1,0.2,0.3,0.2,0.4c0,0.2-0.1,0.3-0.1,0.6c-0.1,0.6-0.1,1.3-0.2,1.9c0,0.4,0.2,0.9,0.2,1.3S43.9,150.5,43.9,150.7z"/>
				<path class="st3" d="M78.6,158.1c-0.2,0-0.9-0.1-0.9-0.4c0.1-0.5,0.2-1,0.6-1.4l0.7-0.6v-0.1c0.1-0.1,0.1-0.2,0.1-0.3
					c0.1-0.2,0.2-0.4,0.2-0.6c0.2-0.6,0.3-1.2,0.6-1.8c0.3-0.5,0.4-1,0.4-1.6c0-0.2,0-0.4,0.1-0.6c0.3-0.7,0.5-1.5,0.6-2.2
					c0.4-1.2,0.6-2.5,0.9-3.7c0.1-0.6,0.7-1.6,0.7-1.8c0.2-1.2,0.5-2.4,0.8-3.6c0.1-0.2,0.2-0.5,0.3-0.7c0.2-1,0.6-2.9,0.8-3.9
					c0.2-0.2,0.4-0.5,0.6-0.8L85,134c-0.1-0.1-0.1-0.2-0.1-0.3s-0.1-0.2-0.1-0.2s1-3.1,1.3-3.8v0.1c0.2-0.9-0.1-1.7,0.5-2.3
					c0.3-0.6-0.1-1,0.5-1.5H87c0.2-0.3,0.3-0.6,0.2-0.9c0.1-0.9,0.4-1.9,0.9-2.7c0.4-1.3,0.6-2.6,0.8-3.9c0.1-0.3,0.2-0.6,0.2-0.9
					c0-0.6-0.7-0.4-0.7-1c0-0.4,0.4-0.8,0.8-0.9c3.4,0,6.6-0.1,10-0.1l0.1,0.2c0.3,0.1,0.5,0.4,0.5,0.7c0,0.4-0.2,0.8-0.5,1v-0.1
					c-0.1,0.1-0.1,0.2-0.1,0.3c0,0.9,0.6,1.4,0.7,2.3c0.2,1.2,0.6,2.4,0.9,3.4c0.2,0.6,0,0.9,0.2,1.4l0.6,1.3
					c0.2,0.3,0.4,2.6,0.8,3.5c0.2,0.5,0.3,0.9,0.3,1.4c0.1,0.9,0,1.2,0.6,1.8c0,1.2,0.2,1.1,0.6,2.1c0,1,0.6,1.9,0.6,2.9
					c0,0.5,0.1,0.9,0.3,1.4c0.2,0.2,0.2,0.7,0.3,1v-0.1c0.2,0.6-0.1,0.6,0.3,1.2c0.6,2.6,1.2,5.2,2.1,7.8c0.2,0.4,0.2,0.8,0.2,1.2
					c0,1,0.6,1.8,0.6,2.8c0.1,0.6,0.5,1,0.5,1.7c0,1.4,1.5,1.6,1.5,2.2s-0.6,0.8-1,0.8c-2.2,0-4.4,0.2-6.6,0.2c-0.6,0-1-0.2-1.6-0.2
					s-1.8,0.2-1.8-0.7c0-0.6,1-0.8,1-1.5c-0.1-0.9-0.2-1.7-0.6-2.5c-0.2-1-0.7-4.7-1.9-4.7c-0.6,0-1,0.2-1.5,0.2
					c-0.8,0.1-1.7,0-2.5-0.1c-0.2,0-0.4-0.1-0.6-0.1s-0.7,0.2-1.1,0.2c-0.2,0-0.5-0.1-0.7-0.2c-0.3,0-0.6,0.2-1,0.2s-1-0.2-1,0.3
					c0,1.2-0.7,1.7-1,2.9c0,0.3,0,0.5-0.1,0.8c0,0.4-0.3,0.4-0.3,0.8c0,1.7-0.6,1.7-0.6,2.4c0.2,0.2,0.2,0.5,0.4,0.6
					c0.2,0.1,0.3,0.3,0.5,0.4h-0.1c0.2,0.2,0.3,0.4,0.3,0.6c0,0.6-1.5,0.5-1.9,0.5c-1.9,0-3.9,0.1-5.8,0.1c-0.6,0-0.8-0.1-1.4-0.1
					C79.3,157.9,79,158.1,78.6,158.1z M83.4,147.1c-0.1,0.2-0.1,0.6-0.2,0.9c-0.2,0.7-0.4,1.4-0.6,2.1s-0.3,1.1-0.6,1.7
					c-0.6,1.6-0.2,2.5-1.3,4.2c0.9-0.1,1.9-0.1,2.8,0.1c0.1,0,0.4,0.2,0.5,0.2s0.2-0.1,0.2-0.1c0.2,0,1.4,0.2,1.4-0.1
					c0.1-0.3,0.2-0.5,0.2-0.8c0-0.9,0.5-1.3,0.5-2.2v-0.8c0.2-0.3,0.6-0.7,0.6-1.1c0-0.6,0.2-1,0.2-1.5c0.2-0.3,0.2-0.7,0.2-1
					c0-0.4,0.3-1.9,0.9-1.9c0.2,0,0.4,0.2,0.6,0.2c1.2-0.1,2.4-0.1,3.6,0c0.4,0,0.8-0.2,1.2-0.2h0.7c0.4,0.2,1-0.1,1.6-0.1
					c0.9,0,1.8,0.2,2.7,0.2c0.4,0,0.7-0.2,1.1-0.2s0.5,0.2,0.5,0.6c0,0.6,0.4,0.9,0.4,1.2s-0.1,0.2-0.1,0.5c0,0.1,0.1,0.2,0.2,0.3
					c0.1,0.1,0.2,0.4,0.3,0.5v0.8c0.2,0.6,0.6,2.3,0.8,2.9s0,0.9,0.4,1.4v-0.1c0.4,1-0.6,1.5,1.3,1.5c0.9,0,1.7-0.2,2.6-0.2
					c0.3,0,0.7,0.2,1.1,0.2c0-1.7-1.4-4.3-1.4-4.7c0-0.9,0.2-1.2-0.4-1.8c-0.5-1.2-0.9-2.5-1-3.8c0-0.6,0-0.4-0.3-0.7
					s-0.2-1.4-0.2-1.8c-0.2-0.6-0.4-1.2-0.5-1.8c-0.2-0.6-0.4-0.9-0.6-1.4c-0.2-0.3,0.1-1-0.2-1.6h0.1c-0.2-0.2-0.6-0.7-0.6-1
					s0.2-0.3,0.2-0.6c-0.3-0.5-0.5-1.1-0.6-1.8c0-0.6-0.1-1.1-0.3-1.6c-0.2-0.6-0.2-1-0.4-1.6h0.1c-0.2-0.2-0.4-0.5-0.4-0.9
					c-0.3-0.8-0.5-1.6-0.6-2.5c-0.3-0.5-0.5-1-0.6-1.5c-0.1-1-0.3-2.1-0.8-3c-0.5-1.1-0.8-2.3-0.9-3.4v0.1c-0.3-1-0.6-2-0.9-3
					c-0.6,0-1,0.1-1.6,0.1c-0.3-0.2-0.7-0.2-1-0.2c-0.6,0-0.9,0.2-1.4,0.2c-0.4,0-0.9-0.2-1.3-0.2c-0.6,0-0.9,1-0.9,1.6
					c-0.1,1-0.3,2-0.6,2.9c-0.2,0.4-0.3,0.9-0.4,1.4c-0.2,0.6-0.2,1.5-0.6,1.9h0.1l-0.2,0.5c-0.3,0.6-0.2,1.4-0.4,2
					c-0.2,0.4-0.4,0.8-0.4,1.2c-0.2,1-0.5,2-0.9,3c-0.1,0.4,0.1,0.8-0.2,1.2c-0.2,0.5-0.4,1-0.6,1.5c-0.1,0.2-0.1,0.5-0.2,0.7
					c-0.2,1.2-0.5,2.3-0.8,3.4c-0.4,2-1,3.9-1.8,5.8v-0.1c-0.1,0.5-0.1,0.9-0.1,1.4C83.6,146.3,83.5,146.7,83.4,147.1L83.4,147.1z
					 M93.8,142.3c-1.2,0-2.1,0.2-3.3,0.2c-0.2,0-0.6-0.1-1.1-0.2l-0.2-0.2c0-0.3,0.3-0.4,0.3-0.7c0.1-0.8,0.3-1.5,0.6-2.2
					c0.2-0.5,0.6-3.4,1-3.8c0.5-1.6,0.9-3.3,1.2-5c0-0.2,0.4-0.5,0.5-0.7h-0.1c0-1.6,0.4-3.2,1.3-4.6c-0.1-0.2-0.1-0.3-0.2-0.5
					c0-0.1,0.1-0.2,0.2-0.3h-0.2c0.2-0.2,0.2-0.2,0.3-0.2c0.3,0,0.4,1.4,0.5,1.8c0.1,0.9,0.4,1.9,0.8,2.7c0.3,0.4,0.4,0.9,0.3,1.4
					v0.4c-0.1,0.4,0.4,0.6,0.4,1.2v0.2c0.2,0.6,0.6,1,0.6,1.5c-0.1,0.5,0,0.9,0.2,1.4c0.3,0.5,0.5,1.1,0.6,1.7
					c0,0.6,0.2,0.6,0.5,1.2c0,1.7,0.6,1.5,0.6,3c0,0.4,0.6,0.6,0.6,1.6c0,0.2-0.1,0.3-0.2,0.3s-0.2-0.1-0.5-0.1
					c-0.1-0.1-0.2-0.2-0.2-0.2c-0.9,0-1.5,0.2-2.4,0.2C95.2,142.5,94.5,142.4,93.8,142.3L93.8,142.3z M93.8,132.7
					c-0.4,2.2-1.4,5.8-2,7.9c0.3-0.3,0.8-0.2,1.2-0.2s0.8,0.2,1.4,0.2c0.2-0.1,0.5-0.1,0.7-0.2c0.1,0,0.3,0.1,0.6,0.2h-0.1
					c0.1,0,0.2,0.1,0.3,0.1c0.4,0,0.6-0.1,0.6-0.3l-0.2-0.4l-0.2-0.2c0-0.2,0-0.2,0.1-0.3v0.1c0-0.1,0.1-0.2,0.1-0.3
					c0-0.2-0.1-0.3-0.2-0.5h0.1c-0.3-0.5-0.6-1-0.6-1.6c0-0.6-0.5-1-0.5-1.6c0-0.3-0.1-0.6-0.2-0.8c-0.3-0.9-0.1-1.7-0.6-2.6h0.1
					c-0.1-0.2-0.2-0.4-0.2-0.6c0-0.1,0-0.5-0.1-0.5C93.9,131.2,93.9,132.5,93.8,132.7L93.8,132.7z"/>
				<path class="st3" d="M124.6,117.8c-0.3-0.4-1.2-0.9-1.2-1.3c0.1-0.5,0.5-0.9,1-1c0.6,0,1.2,0.2,1.8,0.2c0.2,0,0.6-0.1,0.8-0.1
					s0.6,0.1,0.8,0.1c0.3,0,0.6,0,0.9-0.1h-0.1c0.2-0.1,0.5-0.1,0.7-0.1c0.4,0,0.8,0.2,1.1,0.2c0.9,0,1.5-0.1,2.2-0.1
					c0.6,0,1.5,1.3,1.8,1.6s0.4,1.1,0.8,1.4c0.4,0.3,0.8,0.7,1,1.2c0.3,0.8,0.8,1.5,1.4,2.2l1.2,1.2h-0.1c0.6,0.6,0.5,1.3,1,1.7
					c0.5,0.4,0.9,0.9,1.3,1.5c0.6-0.7,1-1.4,1.4-2.2c0.4-0.7,0.9-1.3,1.4-1.9c0.3-0.3,0.6-0.6,0.8-0.9c0.2-0.2,0-0.6,0.2-0.9
					c1.4-1.4,1.6-2.3,2.8-3.8c0.6-0.9,0.7-1.3,1.9-1.3c0.6,0,0.7,0.3,1.3,0.3c0.3,0,0.6-0.2,1-0.2c0.6,0,1-0.1,1.5-0.1
					c1.4,0,2.6,0.3,3.9,0.3c0.1-0.1,0.2-0.1,0.2-0.1c0.3,0,0.5,0.5,0.5,0.7c0,0.4-0.6,1-0.9,1.2v-0.1l-0.2,0.2
					c0,0.6,0.1,1.2,0.1,1.8c0,0.4-0.2,0.7-0.2,1.1c0,1,0,2,0.2,3c-0.1,0.2-0.1,0.5-0.2,0.7c0.1,0.5,0.1,1-0.1,1.4
					c0.1,0.3,0.1,0.7,0.2,1v-0.1c0.1,0.3,0.1,0.6,0.1,0.9c0,0.2-0.2,0.5-0.2,0.7s0.2,0.5,0.2,0.7c0,0.4-0.2,0.7-0.2,1.1
					c0.1,0.1,0.1,0.2,0.1,0.5c0,0.6-0.2,0.7-0.2,1.3c0,2.5,0.2,4.7,0.2,7.2c0,1.4-0.1,2.7-0.1,4.1s0.2,2.8,0.2,4.1
					c0,0.6-0.3,0.8-0.3,1.2c0,1.2,0.2,2.4,0.2,3.6c0,0.6-0.1,1-0.1,1.5c0,0.3,0.2,0.6,0.2,0.9s-0.2,1.2,0.1,1.4
					c0.3,0.4,1.1,0.6,1.1,1.3c0,0.3-1.4,0.9-1.7,0.9c-0.2,0-0.2-0.1-0.3-0.2v0.1c-0.1-0.1-0.2-0.1-0.4-0.1s-0.7,0.2-1.1,0.2
					s-0.8-0.2-1.2-0.2s-0.7,0.2-1.3,0.2s-1.2-0.2-1.8-0.2c-0.4,0-0.7,0.2-1.1,0.2c-0.6,0-2.3-0.1-2.3-0.6c0-0.9,1-1,1.3-1.7
					c-0.1-0.1-0.1-0.2-0.1-0.3s-0.1-0.2-0.1-0.5s0.2-0.5,0.2-0.8s-0.1-0.5-0.1-0.7c-0.1-0.3-0.1-0.6-0.1-0.9c0-0.6,0.2-1.1,0.2-1.7
					c0-0.3-0.2-0.6-0.2-0.9s0.2-0.6,0.2-1c0-0.6-0.2-0.8-0.2-1.4s-0.1-0.9-0.1-1.4s0.2-1.1,0.2-1.8V142c0-0.3-0.2-0.7-0.2-1
					s0.2-0.7,0.2-1.1c0-0.6-0.2-1.3-0.2-1.9c0-0.2,0-0.5,0.1-0.7v0.1c0.2-0.9,0.2-1.9,0.2-2.9c0-0.9-0.3-1.4-0.3-2.3
					c0-0.3,0.1-0.5,0.2-0.8v0.1l0.1-0.2V131l-0.6,0.6h0.1c-0.5,0.5-0.9,1.1-1.2,1.8c-0.2,0.7-1.1,1.1-1.5,2.2v-0.1
					c-0.1,0.3-0.8,1-1,1.2h0.1c-1,1.5-1.9,2.8-2.8,4.3c-0.1,0.3-0.4,0.4-0.6,0.5c-0.4,0-1.2-1.3-1.4-1.5h0.1
					c-0.7-0.6-1.3-1.4-1.8-2.2c0-0.1,0-0.1-0.1-0.2l-0.2-0.3c-0.2-0.2-0.4-0.5-0.7-0.9l-3.4-4.3c-0.1,0.3-0.1,0.7-0.2,1
					c0,0.2,0.1,0.3,0.1,0.6v-0.1c0.1,0.3,0.1,0.5,0.1,0.8c0,1.2-0.1,2.1-0.1,3.3c0.1,0.6,0.1,1.3-0.1,1.9c0,0.3,0.2,0.6,0.2,1
					c0,0.6-0.2,1-0.2,1.6c0,1,0.2,1.9,0.2,2.9c0,0.6-0.2,0.9-0.2,1.3c0,0.2,0,0.4,0.1,0.5v-0.1c0.1,0.2,0.1,0.5,0.2,0.7
					c0,0.5-0.2,6.2-0.2,6.3v-0.1c-0.1,0.1-0.1,0.3-0.1,0.6c0.1,0.6,0.2,1.3,0.3,1.9c0.3,0.4,1,0.9,1,1.4c-0.1,0.4-0.4,0.7-0.8,0.7
					c-0.2,0-0.4-0.3-1-0.3c-0.2,0-0.2,0.1-0.5,0.1s-0.6-0.2-0.9-0.2c-0.9,0-1.5,0.3-2.4,0.3c-0.3,0-0.6-0.2-0.9-0.2
					c-0.2,0-0.4,0.2-0.7,0.2c-0.6,0-0.8-0.2-1.4-0.2c-0.3,0-0.6,0.2-1,0.2c-0.2,0-0.3-0.1-0.6-0.1c-0.1-0.1-0.2-0.1-0.5-0.1
					s-0.6,0.1-0.6-0.3c0-1,1.3-1.4,1.3-2.7c0-1-0.2-1.8-0.2-2.7c0-0.4,0.2-0.9,0.2-1.1c0-0.1,0-0.2-0.1-0.2
					c-0.1-0.6-0.2-1.8-0.2-2.4c0-0.2,0.2-0.5,0.2-0.7s-0.2-0.6-0.2-0.8c0-0.4,0.2-0.6,0.2-0.9s-0.1-0.3-0.1-0.6v-0.8
					c0.1-0.3,0.1-0.6,0.2-0.9c0-0.7-0.2-1.5-0.2-2.2v-6.8c-0.1-0.2-0.1-0.5-0.2-0.7c0-0.6,0.3-0.8,0.3-1.2c0-0.6-0.2-0.9-0.2-1.3
					c0-0.6,0.1-0.9,0.1-1.3c0-1.2,0.1-2.2,0.1-3.3c0-0.6-0.2-1-0.2-1.6v-1.9c0-0.3-0.1-0.6-0.1-0.9s0.1-0.9,0.1-1.3
					c0-0.2-0.1-0.2-0.1-0.5c-0.1-0.1-0.1-0.3-0.1-0.6V120c0.1-0.1,0.2-0.3,0.2-0.5L124.6,117.8z M126.5,150.8v0.2
					c0,0.2,0.2,0.5,0.2,0.9s-0.2,0.7-0.2,1.1c0,0.9-0.1,1.4-0.1,2.3c0,0.3,0,0.6,0.1,0.9c0.3,0,0.7,0,1-0.1h-0.1
					c0.2-0.1,0.5-0.1,0.7-0.1c1.1-0.1,2.1,0,3.2,0.2c-0.2-0.6,0.1-1,0.1-1.6c0-0.9-0.2-1.7-0.2-2.6c0-0.2,0-0.5,0.1-0.7v0
					c0-0.2,0.1-0.4,0.1-0.6c0-0.6-0.2-0.8-0.2-1.4c-0.1-0.7-0.1-1.4,0.1-2.1v0.1c0.1-0.1,0.1-0.3,0.1-0.4c0-0.2-0.1-0.2-0.1-0.4
					c-0.1-0.1-0.1-0.2-0.1-0.4c0-0.6,0.2-1,0.2-1.6c0-0.3-0.2-0.6-0.2-0.9s0.1-0.5,0.1-0.7c0-0.6-0.2-1-0.2-1.5s0.2-0.9,0.2-1.4
					s-0.2-0.9,0-1.4v0.1c0.1-0.1,0.1-0.2,0.1-0.5c0-0.4-0.2-0.7-0.2-1.3c0-0.9,0.2-1.6,0.2-2.5c-0.3-0.6,0-1.9,0-2.6
					c0-0.6-0.2-0.8-0.2-1.4c0-1,0.1-2,0.1-3c0-0.1-0.1-0.2-0.2-0.3l-0.1-0.2c0-0.2,0.2-0.4,0.5-0.4c0.2,0,0.4,0.1,0.4,0.3
					c0.2,0.6,0.4,0.6,1,1.2h-0.1c0.2,0.2,0.2,0.3,0.4,0.6c0.3,0.9,1.2,0.9,1.8,2.2h-0.2l0.5,0.6c0.1,0.2,0.3,0.4,0.5,0.6
					c0.7,0.6,0.7,1.4,1.3,1.8H137c0.1,0.1,0.2,0.1,0.3,0.2c0.3,0.3,0.3,0.3,0.3,0.9c0.6,0.8,1.3,1.5,2.1,2.2c0,0.2-0.1,0.6,0.2,0.8
					v-0.2c0.1,0,0.2,0.1,0.2,0.2h-0.1c0.2,0.1,0.3,0.2,0.4,0.3l0.2,0.4v0.2c0-0.1,0-0.1,0.1-0.1l0.1-0.1c0.6-1,0.4-1,1.2-1.8H142
					c0.6-0.7,1.4-2.4,1.8-3c0.4-0.3,0.7-0.8,1-1.2h-0.1c0-0.2,0.1-0.3,0.3-0.6c0.5-0.6,1-1.2,1.4-1.9c0.2-0.3,0.6-0.3,0.8-0.7
					c0.2-0.8,0.6-1.5,1.2-2.2c0.6-0.2,0.2-0.2,0.5-0.8c0.1-0.2,0.7-0.6,0.8-0.6l0.2,0.2c0.1-0.1,0.5,0.1,0.6-0.5
					c0,0.3-0.2,0.5-0.2,0.7c0,2.6,0.2,5.1,0.2,7.7c0,0.5-0.1,1-0.2,1.5c0,0.1,0.2,0.8,0.2,0.9c0,0.4-0.2,0.7-0.2,1.1
					c0,0.6,0.2,1.1,0.2,1.7c0,0.4-0.2,0.8-0.2,1.2c0,0.2,0.2,0.6,0.2,0.8s-0.2,0.6-0.2,1v5.1c0,1,0.2,2,0.2,3c0,0.6-0.2,1-0.2,1.6
					s0.2,1.1,0.2,1.7s-0.2,1.1-0.2,1.8c0,0.9,0.2,1,1,1c0.6,0,0.9-0.2,1.4-0.2c0.3,0,0.6,0.2,1,0.2s1.4,0,1.4-0.4
					c0-1.5-0.2-2.8-0.2-4.3c0-0.7,0.2-1.4,0.2-2.3s0.1-1.4,0.1-2.3s-0.4-2.3-0.4-2.9s0.4-1.1,0.4-1.7s-0.3-1-0.3-1.6s0.2-1,0.2-1.6
					s-0.2-1-0.2-1.6s0.2-0.8,0.2-1.4c0-0.2,0-0.5-0.1-0.6v0.1c-0.1-0.3-0.1-0.6-0.2-0.9c0-0.4,0.2-0.9,0.2-1.3s-0.2-0.6-0.2-1
					s0.2-0.8,0.2-1.4c0-1.8-0.2-3.7-0.2-5.5c0-0.6,0.2-1,0.2-1.6c0-0.3-0.2-0.6-0.2-1c0-1.3,0.2-2.6,0.2-3.9c0-0.4,0-0.9-0.1-1.3
					c-0.2,0-0.5,0.2-0.7,0.2s-0.6-0.2-0.8-0.2s-0.5,0.2-0.8,0.2c-0.1,0-0.3,0-0.4-0.1c-0.9-0.3-1.7-0.4-2.6-0.3
					c-0.3,0-1,1.4-1.2,1.7c-0.6,0.9-1,1.8-1.5,2.6c-1,1.5-2.3,2.6-3,4.3c-0.2,0.4-0.6,0.6-0.9,1c-0.2,0.6-0.5,1.1-0.9,1.6h0.1
					c-0.2,0.4-0.5,1.1-1,1.1c-0.4,0-0.7-0.8-0.8-1.1h0.1c-0.4-0.5-0.8-0.9-1.2-1.4c-0.2-0.2-0.4-0.5-0.6-0.7v-0.1h0.1
					c-1-1.5-2.1-2.9-3.4-4.2c-0.1-0.4-0.3-0.8-0.6-1.2h0.1l-0.4-0.3v0.1c-0.2-0.1-0.4-0.4-0.5-0.8v0.1c-0.2-0.6-0.7-0.6-1-1.2
					c-0.7-1.3-1.4-1-2.7-1.3c-0.2,0-0.3-0.1-0.6-0.1c-0.4,0-0.8,0.2-1.2,0.2c-0.6,0-0.8-0.2-1.4-0.2l-0.6,0.2c0.2,1-0.2,2-0.2,3
					s0.2,1.8,0.2,2.6c0,0.4-0.2,0.7-0.2,1.1c0,0.6,0.2,1.2,0.2,1.8c-0.1,0.1-0.1,0.2-0.1,0.5c0,0.6,0.2,0.9,0.2,1.3
					s-0.2,0.7-0.2,1.1c0,0.2,0.1,0.2,0.1,0.5v-0.1c0,0.2,0.1,0.2,0.1,0.5s-0.2,0.5-0.2,0.7c0,1-0.1,2.2-0.1,3.2
					c0,0.2,0.2,0.5,0.2,0.8s-0.2,0.7-0.2,1.1c0,0.6,0.2,1,0.2,1.6c0,1.2-0.2,2.1-0.2,3.3v1c0,0.6,0.3,1.2,0.3,1.8s-0.4,1.5-0.4,2.5
					s0.2,1.5,0.2,2.4c0,0.3,0.2,0.6,0.2,1S126.4,150.5,126.5,150.8L126.5,150.8z"/>
			</g>
		</g>
	</g>
</g>
</svg>
