<svg id="Capa_1" data-name="Capa 1" xmlns="http://www.w3.org/2000/svg" viewBox="0 0 232.66 158.23"><defs><style>.cls-1{fill:#161615;}.cls-2{fill:#234648;}.cls-3{isolation:isolate;}.cls-4{fill:#837653;}.cls-5{fill:#fff;}</style></defs><title>logo</title><g id="Grupo_40" data-name="Grupo 40"><g id="Sello"><path id="Trazado_9" data-name="Trazado 9" class="cls-1" d="M213.14,18.46c7.74,4.53,15.94,9.72,20.08,17.83.19.91,2.07.12,1.24,1.53.27,1.19,2,1.36,1.54,2.64.2.41.66.82.12,1.14,0,0,.19.92.65,1.07,1.06.37,1.62,2.17,3,2.89,2.19,5.92,4.92,11.25,5.08,17.91,1.6,1.23-.64,3.33.79,4.33a4.21,4.21,0,0,0,.16,3.44c-.47,1.87-1.37,3.76-.79,5.48-.55,2.6.53,5.09-.6,7.41-.72,1.35-.54,3.28-1.19,4.91.54,2.13-1.8,3.53-1.5,5.58a26.22,26.22,0,0,0-3,6.49c-1.19.52-1.21,2.29-2.17,2.89-1.87,1.47-2.55,3.94-3.86,5.78a7.71,7.71,0,0,0-2.24,3.79l-.07,0c-1,1.6-3.26,1.84-3.58,4-3.92,2-7.33,7-12,8.3l0-.18c-.51.5-.54,1.33-1.26,1.43-1.29.57-3,1.23-4.25.81a1.65,1.65,0,0,1,1.58-1.72h0c.35.45.26-.25.26-.25,1.06-.65,1.81.88,2.7-.26-.18-1.92,1.73-.84,1.73-2.79,1.46.17,2.11-1.72,3.66-1.78a13.7,13.7,0,0,0,3.82-3.25c1.75-.16,1.61-3.68,3.86-4.08,2.53-2.18,4.46-5.32,6.66-7.78.23-2.62,2.56-3.51,3.12-6.11C238,97.81,238.52,95,240,93c-.5-2.21,1.71-3.23,1.37-5.2a34.2,34.2,0,0,0,1.91-13.64c1.1-1.73-.3-3.31.23-5.08a15.36,15.36,0,0,0-.67-4.2c1.29-4.22-2-6.27-1.67-10.13-.42-3.2-2.75-5.52-2.74-8.73-1.71-1.18-1.74-3.06-3.45-4.24,0-1.43-1.29-1.88-1.76-3.22l.08-.23a.86.86,0,0,0,.78-.07c.3-1.59-2.64-1.16-2-3.13-.69.53-1.86,1.22-2.23-.17-.73.17-.9-1.08-1.55-1.39-2-1.28-3-3.64-5.37-4.3-.94-2.18-3.67-1.86-4.33-4.11-1.52-.27-1.62-2.42-3.42-2.11-2.79-2-6.4-2.55-8.88-4.67-3.24-.44-6.57-2.77-9.91-2.65-5.12-1.35-10-1.24-15.3-2-2.39.79-4.78-.37-7,1-1.56,1.58-3.94-.6-5.65.93-1.42.69-4.17.34-5.58,1.71a33.81,33.81,0,0,0-12.29,5.49c-1.62,0-1.82,1.58-3.06,2a65.28,65.28,0,0,1-5.72,5.56c.08,2-2.29.48-2.33,2.33-1.57.39-1.26,2.69-2.68,3.39-.36,2.24-2.78,2.17-3.06,4.44-.93,0-.83,1.66-1.31,1.83-1.41,1.88-2,5.07-3.25,6.49a49.13,49.13,0,0,0-3.32,10.87c-2.12,4.43-.84,8.33-1.34,12.73.09,3.42.69,6.33.58,9.84,1,.7.23,2.28,1.06,3.08-.57,3.35,1.48,6,2.56,9a46.88,46.88,0,0,0,5.24,9.08l-.13.38c-2.74-1.37-4.17-4.57-5.89-6.69.06-1.67-1-2.47-1.4-4-.92-2.51-1.47-5.32-2.71-7.61.5-1.44-.1-2.66-.42-4,.42-1.21-1.24-1.78-.62-3.1A34.63,34.63,0,0,1,123,67.92c-.32-.54.32-1.42-.2-2.1a33.12,33.12,0,0,0,.67-4.43c.45-2,.67-3.66,1.27-5.65-.35-.46.24-1.18.35-1.74.77-.5.1-2,1.06-2.34,1.11-1.48.92-3.41,1.42-4.84,1-.5.69-1.54,1.39-2.32A91.05,91.05,0,0,0,134.09,35c2.52-1.67,4.43-4.73,6.5-7.06,2.27-1.67,4-3.43,6.42-4.89,3.77-2.34,6.55-5.27,11.32-6.34,3.31-2,6.77-2.23,10.25-3.74,3.95-.16,7.49-2.32,11.78-1.78,1.62,0,3.78-1.15,5.44-.07a27.66,27.66,0,0,1,6,.72c5.1,1.17,10.8,2.29,15.76,4.33C209.16,17.51,211.59,17.33,213.14,18.46Z" transform="translate(-13.12 -10.67)"/><path id="Trazado_10" data-name="Trazado 10" class="cls-1" d="M215,25.78c.53.44.07,1,0,1.52-.43,0-1.06-.11-1.27.49-.3-.1-.75-1-1.18-1.5-2.29-1-4-1.71-6-2.49-.81.14-.72,1.1-1,1.76.36,1.9,2.35,2.25,3.86,3,.35.45-.18,1-.26,1.51-2.29.48-3.89-3.46-5.69-.69-.26.76-.75,1.94,0,2.28,2.42.83,4.42,2.62,6.76,3.68,0,.61.55,1.12-.16,1.47l-1.07.39c-.66-2-3.9-1.68-5-3.59-1.44-.49-2.18.18-2.82-1.39-.76-2,1.88-2.74,1.29-4.72,1.18-2,1.94-4.91,3.65-6.69C209.46,22,211.84,24.69,215,25.78Z" transform="translate(-13.12 -10.67)"/><path id="Trazado_11" data-name="Trazado 11" class="cls-1" d="M198.39,22c0,2.45-1,5.83-2.83,7.23a2.51,2.51,0,0,0-2.29,1.49c-2.1,0-3.77-2.06-5.37-.41-1.59-.29-.41-1.75-.45-2.6-.39-1.32.89-3.08.22-4.33a3.93,3.93,0,0,0,.05-2.6l1.06-4c3.2.77,6.67.53,9.2,3Z" transform="translate(-13.12 -10.67)"/><path id="Trazado_12" data-name="Trazado 12" class="cls-2" d="M196.45,24.21a5.14,5.14,0,0,1-2,3c-1.65.11-4.14,1.19-5.18-.44a16.88,16.88,0,0,0,.55-5.3c.42-.7.33-1.92,1.27-2.19,1.36.47,2.95.51,4.26,1.38C195.25,22,197,22.87,196.45,24.21Z" transform="translate(-13.12 -10.67)"/><path id="Trazado_13" data-name="Trazado 13" class="cls-1" d="M221.63,31.87c-.32,1.67-2.47,1.52-2.33,2.83-1.35,1.23-3.48,1.77-4.36,3.83.22,3.29,3.85,4,4.91,6.85L219.13,47a64.29,64.29,0,0,0-5-6c-1.4.11-1.16-.82-1.68-1.76,1-4.14,5.4-4.4,7.33-7.54C220.07,31,222.23,30.13,221.63,31.87Z" transform="translate(-13.12 -10.67)"/><path id="Trazado_14" data-name="Trazado 14" class="cls-1" d="M180.07,23.13c-.22,1.11,1.07,1.81,1.44,2.7l1.16,2.51c-.06.66-.56.66-.9.88-1.23-.6-1.14-2.09-2.48-2.63l-.14-.56c-1.22.59-2.68.17-3.88.69-1.15.88-.75,4.39-3,3,.29-3.54,2.4-7.46,2.57-11.12.81-.15.77-1.26,1.65-1.13C178.59,19.07,178.39,21.37,180.07,23.13Z" transform="translate(-13.12 -10.67)"/><path id="Trazado_15" data-name="Trazado 15" class="cls-2" d="M235.68,40.18l-.41.2c0-.76-.9-.57-1.17-1C235.09,38.45,234.8,40,235.68,40.18Z" transform="translate(-13.12 -10.67)"/><path id="Trazado_16" data-name="Trazado 16" class="cls-2" d="M177.91,23.49c0,1.19-1,.6-1.62.79a1.34,1.34,0,0,1,.05-1.9,1.21,1.21,0,0,1,.35-.24C177,22.75,177.9,22.8,177.91,23.49Z" transform="translate(-13.12 -10.67)"/><path id="Trazado_17" data-name="Trazado 17" class="cls-1" d="M232.87,45.64c.42,1.24,3,1.2,2,3.13,1.2,1.17.42,3.44-.18,4.93-.43.27-1.27.24-1.45,1-.15-.3-1.55.06-1.55.06l-.6-.46c.67-.7-.75-.51-1-1,.51-.5,1.54.19,2.28,0,.91-.44,2.39-.78,2.17-2.38-.29-1.37-.58-3-1.81-3.83a1.74,1.74,0,0,0-.89-1.58,6.22,6.22,0,0,0-3.66,1.53c-.21.61-1.23,1.61.08,2a.93.93,0,0,0-.15.46c.76,0,.44,1.16.74,1.78l-.39.62c-.62-.89-.93-3.45-3-3.65-.8,1.34-2.84.38-3.54,1.66a.48.48,0,0,0-.28.07c0-.35.16-.95-.39-1.06l.23-.68c1.78-.74,2.9-1.79,5.15-1.69.54-1.09,1.8-.31,2.22-1.53.38-.37.58.54,1.16.07-.65-.82.7-1,1.36-1.23C232.26,44,233.18,44.73,232.87,45.64Z" transform="translate(-13.12 -10.67)"/><path id="Trazado_18" data-name="Trazado 18" class="cls-1" d="M207.91,40.25c1.79.7,2.43,2.28,4.07,3.18,3,3.32,5,6.48,7.92,9.92,1.86,3.18,2.2,6.6,3,9.81a19.92,19.92,0,0,0,1.32,4.27c-.37,1.31.71,2.36.49,3.72.23.33.24,1.27-.16,1.47.36,1.14-.74,2.87.34,3.92l-.79,2.27-.45-.15c-.92,1,.58,2.23-.59,3.18a19,19,0,0,1-2.26,8.78c-.87.29-1,1.36-1.44,2-.2-.16-.35,0-.56.14,0,.43.56.36.2.92l-.31-.11a2.38,2.38,0,0,0-.52,2c-.43,0-.67.7-1,.09.1-.3.18-.53-.07-.78.43,0,.48-.43.59-.73-.43-.23-.33-.28-.15-.81l.23.08L220,87.91c.22.08,1.13.64,1.24-.17l.08-.22-.83-.29.28-.83.15,0c1-2.44.94-5.43,1.82-7.49.17-4.43.6-9.1-.9-13.34.45-2-.92-4-1.48-5.75,0-1.6-1.69-3-.84-4.69-.08-1.47-2.26-1.54-2.29-2.91-2-1-2.09-3.76-3.88-4.72a5.93,5.93,0,0,0-3.88-3.71c-.06-1.79-1.82-.87-2.26-2.29-1.55-.88-2.68-2.28-4.47-2.48-1-1.7-4-1.13-4.8-3-1.5.41-3.31-1-4.93-.69a2.54,2.54,0,0,0-2-.85c-.79.07-1.8-.45-2.66-.16-2-.85-3.47.25-5.3-.55-1.32.14-2.6,1.13-3.93.34-1.17.44-2.81.3-4,1.17-1.92-.57-4.36.62-5.93,1-.75,0-1.05,1.33-1.93.69l-.15.46c-1.53-1.21-1.69,1.19-2.75,1.33,0,1-.76.5-1.35.72-1.82.39-2.91,2.81-4.66,3.47-2.19,2-3.86,4.59-6,6.9L152,51.1l-.3-.1c-1.05,1.33-1.22,3.55-2.55,4.45-.85,4.19-4.78,7.74-3.46,11.75-1.34,2.92.49,5-.17,7.89-.07,3.62,1.32,6.71,2.4,10,1.94,5.66,5.76,12.48,11.09,16.42,1.76,3,5.83,3.71,8.69,5.71,4.68,2.62,10.38,3.24,15.33,4.1,3.32-.3,7-.06,10.25-1,6.35-2.21,13.51-5.32,18.19-10,1.21.41,1.61-1.73,2.65-.1-1.78,1.75-3.68,4.06-6.32,5.6-1.39-.39-1.71,1.27-2.6,1.64-1.82.14-3,1.67-4.75,2-.09,1.5-1.88.54-2.12,1.73-2.07-.38-3.52.65-5.22,1.41-1.62-1.91-3.84,1.56-5.9.42-2.28.74-4.58.28-6.58.44.08-.23-.17-.48-.19-.66-4.36.11-8.81-1.68-12.67-3-2.59-1.06-5.19-1.87-6.89-4.07-3.08-2.33-6.88-4.57-8.23-8.25-1.3-1.88-3.71-3.47-4-6-1.43-.75-.57-1.55-1.42-2.52-1.74-2.8-2.31-6.3-3.08-9.69.26-1-.31-1.8-.25-2.71-.59-2.49-.05-5.77-.63-8.25,1.37-3.25,1.16-6.54,2.65-9.66,1.25-.67,1-2.55,1.94-3.4-.75-1.27,1.42-.94.67-2.21a45.73,45.73,0,0,1,5.91-8.29c.58-.48,1.3-1.33,2-1.77,2.4-2,5-3.87,7.49-5.8,2,.45,2-2.5,4.24-1.75,2.94-2.37,7.63-1.77,11.11-3,2.45.51,4.79-.64,7.26,0,3-.4,5.64,1.77,8.69,1.3,4.44.6,8.54,3.2,12.08,5.68Z" transform="translate(-13.12 -10.67)"/><path id="Trazado_19" data-name="Trazado 19" class="cls-1" d="M160.17,33c3-.07,5.52-1.56,8.14-2.78.76.26-.11,1.06-.14,1.65-.36.3-1.25.67-1.28,1.5-2.57-.89-4.19,1.85-6.39,2.36-1.95-.5-2-3-3.71-4-1-2.13-2.29-3.92-2.67-6.25l.67-.7C157.45,26.92,157.78,30.59,160.17,33Z" transform="translate(-13.12 -10.67)"/><path id="Trazado_20" data-name="Trazado 20" class="cls-1" d="M230,52.69l-.68-.23.18-.53C229.9,52.31,230.15,52.06,230,52.69Z" transform="translate(-13.12 -10.67)"/><path id="Trazado_21" data-name="Trazado 21" class="cls-1" d="M238.76,60.44c-1,.25-2.49-.86-3,.51a2.65,2.65,0,0,0-1.7.51c-.39.88.88,1.15.39,2.08.26,1.19.07,2.47.9,3.52,1.81.63,3.73-1.25,5,.45-.73,1.87-3.43,1.86-5.23,1.92-2.43.18-4.76.56-6.91.67a7.56,7.56,0,0,1,.25-1.95c1.14-.62,2-1,3.26-.39,1.22-.35.68-1.46.78-2.27-.29-1.12.06-2.86-.84-3.68-2-.93-2.72.75-4.64.68a1.66,1.66,0,0,1-.46-1.85c1,.77,2-.66,3,0l.57-.9c2.86-.45,5.79-.62,8.56-1.28C239.87,58.71,238.77,59.68,238.76,60.44Z" transform="translate(-13.12 -10.67)"/><path id="Trazado_22" data-name="Trazado 22" class="cls-1" d="M152.89,32.54c.35,2.66,4.19,2.8,3.93,5.76-2.77,1.16-3.7-3.48-5.51-4.61-1-1.53-3.94-2.8-2.48-4.83A18,18,0,0,1,152.89,32.54Z" transform="translate(-13.12 -10.67)"/><path id="Trazado_23" data-name="Trazado 23" class="cls-1" d="M191.56,48.92l-.88,2.57c-.84.22-1.51,1.42-2,2-1.81,1.32,0,3.39-1.19,4.67-.84-1.73,1.55-5.73-1.76-5.94-1.78.74-2.11,3.42-2.81,5a1.28,1.28,0,0,1-.24-1c1.32-3.1,2.55-6.9,3.67-10.15C188.35,46.45,190.81,46.71,191.56,48.92Z" transform="translate(-13.12 -10.67)"/><path id="Trazado_24" data-name="Trazado 24" class="cls-1" d="M206,53.31l-.26.76a5.44,5.44,0,0,1-1.35-1.48l.33-.48C205.24,52.44,205.91,52.67,206,53.31Z" transform="translate(-13.12 -10.67)"/><path id="Trazado_25" data-name="Trazado 25" class="cls-1" d="M202.94,51.74c-.64.62-1.77.23-2.38,1C200,51.83,202,50.82,202.94,51.74Z" transform="translate(-13.12 -10.67)"/><path id="Trazado_26" data-name="Trazado 26" class="cls-1" d="M180.73,49.92c-.64.63.4.81-.09,1.49,1.3,1.38-.3,2.85-.45,4.5-.37-.38-.42-1.24-.94-1.68-1.11-.72-3-2.56-4.09-.65-.06.91-.72.86-1,1.33-.71-.41.06-1.16.19-1.79,1.38-1,1.5-3.37,3-4.37,1.15-.87,1.06-2.85,2.09-3.85.85.22.37-1.56,1.39-.61C181.89,45.83,179.84,48.09,180.73,49.92Z" transform="translate(-13.12 -10.67)"/><path id="Trazado_27" data-name="Trazado 27" class="cls-1" d="M211.47,55.94c-.31.66-.24,2-1.11,2a14.09,14.09,0,0,0,.77-3.2C212.19,54.59,210.89,55.66,211.47,55.94Z" transform="translate(-13.12 -10.67)"/><path id="Trazado_28" data-name="Trazado 28" class="cls-1" d="M175,42.6a34.14,34.14,0,0,0-2,7.77l.08,0c-1.75.66.15,2.75-1.55,3.27-.85-.72-.26-1.94,0-2.7a4.46,4.46,0,0,0,.54-3.79c-1.55.82-1.7,3.22-3.1,4.09-.11.81-.53.32-.61.55.47-1.87-.45-3.62,0-5.59l-.5-.76a1.49,1.49,0,0,0-1.05,1.58c.5.26-.09.73-.06,1.16-.64.12-.5,1.18-1,1.51a1,1,0,0,1,.11,1.14c-.32-.28-.74.42-.82.9a6.22,6.22,0,0,1,.39-3.33c1-.25,0-1.77,1.11-2.24-.37-.89.75-1.94.59-2.68l1-3c1.87,0,.64,1.58,1.16,2.52,0,1.77-.51,3.46-.15,4.86,1.53,1,1.81-1.32,2.83-2.07C173.09,44.83,173.33,41.7,175,42.6Z" transform="translate(-13.12 -10.67)"/><path id="Trazado_29" data-name="Trazado 29" class="cls-2" d="M190.11,49.94a2.27,2.27,0,0,1-2.37,1.72c-1.64.11-1.78-1.46-1.69-2.7.38.13.61-.3.67-.7l-.15-.3C187.41,47,190.39,48.17,190.11,49.94Z" transform="translate(-13.12 -10.67)"/><path id="Trazado_30" data-name="Trazado 30" class="cls-1" d="M152.9,41.85c-.26.25-.65.88-1.25.92-1.16-.82-1.75-2.3-3.39-2.44-1.6.22-2.22,2-3.27,2.85-.43,2.48,5.54,2.08,2.43,5.24-2.13.53-2.2-2.71-4.44-3.05-1.26-1.54-3.24-2.39-4.85-3.62a4.2,4.2,0,0,1,.43-2c2.1,0,4.6,4.55,6.38.85A2.94,2.94,0,0,0,146,38.79c-.84-1.72-4.27-2.57-2.2-5.15A33.79,33.79,0,0,1,152.9,41.85Z" transform="translate(-13.12 -10.67)"/><path id="Trazado_31" data-name="Trazado 31" class="cls-1" d="M204.63,57.39l-.3-.1.28-.83c.86.21.47-1.11,1.1-1C205.78,56,205.26,57.27,204.63,57.39Z" transform="translate(-13.12 -10.67)"/><path id="Trazado_32" data-name="Trazado 32" class="cls-2" d="M179.32,51.8c-.2.35-.59.73-1,.6-.33-.54-2-.28-1.28-1.2.53-.83,1.74-1.86,1.16-2.9,0-1,.94-.27,1.23-1.1C180.67,48.12,179.52,50.26,179.32,51.8Z" transform="translate(-13.12 -10.67)"/><path id="Trazado_33" data-name="Trazado 33" class="cls-1" d="M209.87,62.07c-1.2.78-.43,2.22-1,3.31-.76,0-.29-1.12-.36-1.65l1.74-5.07A6.94,6.94,0,0,1,209.87,62.07Z" transform="translate(-13.12 -10.67)"/><path id="Trazado_34" data-name="Trazado 34" class="cls-1" d="M203.13,58.06l-.38-.13c.06-.66.62-.55,1.05-.83C204.05,57.61,203.39,57.81,203.13,58.06Z" transform="translate(-13.12 -10.67)"/><path id="Trazado_35" data-name="Trazado 35" class="cls-1" d="M201.05,58.45c-.11,1.06-1.39.61-1.81,1.31-.89.88-2,1.75-.55,2.86l1.08.54c-1,.75-1.44-.24-2.42-.58a4.56,4.56,0,0,1,1.07-3.1C199.43,59.24,200,58.15,201.05,58.45Z" transform="translate(-13.12 -10.67)"/><path id="Trazado_36" data-name="Trazado 36" class="cls-1" d="M240.68,73.28c-.46.86-.38,2.58-1.46,2.54-2.42-1.08-4.81,0-7.23-1.13-1.11.29-2.6.45-3.43-.59-.42-.49.19-1,.2-1.54l11.07.26Z" transform="translate(-13.12 -10.67)"/><path id="Trazado_37" data-name="Trazado 37" class="cls-1" d="M201,63.51l-.13.37-.82-.42C200.23,63.38,201,62.81,201,63.51Z" transform="translate(-13.12 -10.67)"/><path id="Trazado_38" data-name="Trazado 38" class="cls-1" d="M238.18,86c-.06.66-.28,1.77-.86,2-2.22-.17-4.32,1.48-6.6.52-1.43.69-3.52-.11-4.72,1.42-1.34-.29-.41-2,0-2.79a3.75,3.75,0,0,1,1.7,0l.17.48c1.45-.77,3.12-1.21,3.25-3.28.64-3.08-4.73-3-2.8-6.12A76.11,76.11,0,0,1,238.18,86Z" transform="translate(-13.12 -10.67)"/><path id="Trazado_39" data-name="Trazado 39" class="cls-1" d="M140.42,50.57c0,2.13-2.32,4.28-1.43,6.36,1.23.6,2.72.43,3.65,1.43a2,2,0,0,1-.93,1.71c-.45-.41-.38.38-.76.5-.83-1.3-3.19-.34-3.65-2.19-2,.59-3.34-2.33-5.67-1.7-.63.12-.45-.66-.75-1,1.48-3.3,1.8-8.18,6-8.69C138.32,47.82,140.18,49.05,140.42,50.57Z" transform="translate(-13.12 -10.67)"/><path id="Trazado_40" data-name="Trazado 40" class="cls-1" d="M198,69.56c-.43-.23-.9-.81-1.45-1.17.2-.36.56-.66.94-.53C198.73,67.88,197.78,69.16,198,69.56Z" transform="translate(-13.12 -10.67)"/><path id="Trazado_41" data-name="Trazado 41" class="cls-1" d="M203.24,74.68c.75,1-1.07,3.09,1,3.22,2.08-1.14,2.31-3.77,4.4-5.17l.52.69c-1.06,2.85-.66,6.11-2.51,8.52.43.49-.16,1-.17,1.47l-.4.2c-.74-1.78.64-3.59.74-5.59-.24-1.26-1.52,0-1.8.31a3,3,0,0,1-1.95,2c-.92-1.51.25-4.4-1.13-5.56a10,10,0,0,1,.47-3.81l.66-.7C204.09,71.5,202.24,73.4,203.24,74.68Z" transform="translate(-13.12 -10.67)"/><path id="Trazado_42" data-name="Trazado 42" class="cls-1" d="M190.71,68.58l-.38.13c-.09-.71-.54-1.38-1.2-1.18-.15,1.64-2.31,3.52-1,5-.36.55-1,.34-1.47.08-.32-1.54.84-3.17,1.26-4.89l.46-.1a1.69,1.69,0,0,1,.62-1.81c.59,0,1.39.14,1.62.73C190.67,67.21,190.11,68.12,190.71,68.58Z" transform="translate(-13.12 -10.67)"/><path id="Trazado_43" data-name="Trazado 43" class="cls-1" d="M186,64.94c-.33,2.43-.42,6.37-3,7.33a2.22,2.22,0,0,1-1-2.13c.78-.07,1.18,1,1.9.14.31-1.16.46-2.8,1.55-3.52.18-1-1.11-.72-1.43-1.26l.59-1.23Z" transform="translate(-13.12 -10.67)"/><rect id="Rectángulo_1" data-name="Rectángulo 1" class="cls-1" x="194.63" y="67.9" width="0.64" height="0.56" transform="matrix(0.33, -0.95, 0.95, 0.33, 53.85, 219.61)"/><path id="Trazado_44" data-name="Trazado 44" class="cls-1" d="M175.81,62a22.25,22.25,0,0,1,0,2.45c.63.38-.6,1.23.21,1.6-.26.5-.09,1.49-1,1.53-.27,1.26-1.4,2.82-.93,3.91-.87.8-1.23,2.12-2.57,2.33l-2.53-1c1-.52,2.51.1,3.78-.39,1.16-2.39.45-5,1.84-7.07a5.07,5.07,0,0,0,.55-2.09c-.74-1.27-2.54-1.47-3.77-1.81a3.33,3.33,0,0,0-1.93,2.89c.65,1.07-1.1,1-.48,2.12-.88,2.07-1.28,4.21-.54,6-.38.12-1.07.39-1.11-.21-.52-1.2.46-3.31.2-4.5.23-.43.14-1.14.69-1.29.27-1.76.91-4.59,2.41-6C172.44,59.75,174.35,61.08,175.81,62Z" transform="translate(-13.12 -10.67)"/><path id="Trazado_45" data-name="Trazado 45" class="cls-1" d="M198.27,73.13c-1.17-1.5,0-2.19.29-3.54C199.16,70.56,198.82,71.8,198.27,73.13Z" transform="translate(-13.12 -10.67)"/><path id="Trazado_46" data-name="Trazado 46" class="cls-1" d="M165.7,60.39l-3.38,10.08c-1.29-.7.48-2.63.19-4s1.58-1.65.74-3.13L165,58.63C165.72,58.87,165.61,59.68,165.7,60.39Z" transform="translate(-13.12 -10.67)"/><path id="Trazado_47" data-name="Trazado 47" class="cls-2" d="M138.2,51.84c-.64,1.13-.66,3.16-1.86,3.42-.74-1-2.6.2-2.66-1.34a5.32,5.32,0,0,1,1.58-3.86c1.11.72,1.91-1.37,2.68.33C138.21,50.83,137.5,51.43,138.2,51.84Z" transform="translate(-13.12 -10.67)"/><path id="Trazado_48" data-name="Trazado 48" class="cls-1" d="M194.35,73.47c1.19.24,2.48.69,3.65,0-.26.75-.33,2.42-1.76,1.68-1.22-.17-2.58-.89-3.62.19a8.88,8.88,0,0,1-1.07,3.09c.15-1.89,1.28-4.21,1.43-6.35l-.08,0,1.27-2.44C194.53,70.75,192.79,72.6,194.35,73.47Z" transform="translate(-13.12 -10.67)"/><path id="Trazado_49" data-name="Trazado 49" class="cls-1" d="M189.77,71.3c-.51,0-.54.58-.46.86-1.59-.3.12-2.08.15-3.16l.54-.07A3.3,3.3,0,0,1,189.77,71.3Z" transform="translate(-13.12 -10.67)"/><path id="Trazado_50" data-name="Trazado 50" class="cls-2" d="M235,86.22c-.56.91-2.13,0-2.7-.25.31-.4.11-1.06.74-1.18C233.89,85.15,235.1,85.32,235,86.22Z" transform="translate(-13.12 -10.67)"/><path id="Trazado_51" data-name="Trazado 51" class="cls-1" d="M199.19,80.3a6.21,6.21,0,0,1,1.35-3.17C199.84,78.16,200.86,80.37,199.19,80.3Z" transform="translate(-13.12 -10.67)"/><path id="Trazado_52" data-name="Trazado 52" class="cls-1" d="M176.68,82.78c-.46,2.8-1.26,6.84-3.42,8.71l-1.61,1c-1.36-1-3.31-.21-4.41-1.69,0-.76-.74-2,.33-2.67.82,1,2.3,3.15,4.43,2.62A3,3,0,0,0,174,88c-1.55-1.89-5.88-1.35-5.16-4.91l.36-1.57c.82-.14.9-1.38,1.49-1.6C173.08,78.74,175.26,81.27,176.68,82.78Z" transform="translate(-13.12 -10.67)"/><path id="Trazado_53" data-name="Trazado 53" class="cls-1" d="M187.14,86c.11,1.65-1.07,3.1-1.59,4.62-.81.64-2.37-.23-3.55.47-.64.88-1.88.79-2,2,.89,1.58,4.6.65,4.58,2.68l-.87.8c-1.45-1.18-4.74-1.47-5.68-3.4.17-1.72,1.36-2,1.93-3.39,1.73-.59,4.23,0,5.75-1.23-.75-.52.14-1.14-.08-1.73A4.36,4.36,0,0,0,182.42,85c-.79.07-1.3,1.08-2,1a2.38,2.38,0,0,1,.61-2.24C183,82.84,186.28,83.89,187.14,86Z" transform="translate(-13.12 -10.67)"/><path id="Trazado_54" data-name="Trazado 54" class="cls-1" d="M166,80.27c-2.05,2.76-1.33,6.56-3.76,9.19-.83-2.49,1.48-5.75,1.88-8.66-.29-.6.32-1.41.48-2.11.86,0,.71-2,1.83-.9Z" transform="translate(-13.12 -10.67)"/><path id="Trazado_55" data-name="Trazado 55" class="cls-1" d="M197.9,90.68c-.68,2-1.23,3.81-3.31,4.19A6.43,6.43,0,0,0,190.4,96l-.58.72c.55,3.07,6.39.35,4.36,3.79a18.33,18.33,0,0,0-5.52-2.15c-.75-1,.38-2.33.62-3.51,2.14-1.55,5.24-1,6.91-3.37-.35-.46-.27-1.19-.38-1.83-1.62-.47-3.18-.84-4.71-.1-.62-.64.37-1.56.76-2.19A5,5,0,0,1,197.9,90.68Z" transform="translate(-13.12 -10.67)"/><path id="Trazado_56" data-name="Trazado 56" class="cls-1" d="M217,97.24c-.15,0-.36-.2-.51,0,0,.68-.73.17-1.14.37-.2-.66.41-1,.6-1.49l1.28.44Z" transform="translate(-13.12 -10.67)"/><path id="Trazado_57" data-name="Trazado 57" class="cls-2" d="M174.62,83.84a1.71,1.71,0,0,1-1.85,1.59,1.35,1.35,0,0,1-.36-.07,3.74,3.74,0,0,1-1.91-1.08,4.42,4.42,0,0,1,1.77-2.43A4.09,4.09,0,0,1,174.62,83.84Z" transform="translate(-13.12 -10.67)"/><path id="Trazado_58" data-name="Trazado 58" class="cls-1" d="M214.93,99.42a.77.77,0,0,1-.79.07c.31-.4-.17-.73-.24-1C215.11,97,215,98.36,214.93,99.42Z" transform="translate(-13.12 -10.67)"/><path id="Trazado_59" data-name="Trazado 59" class="cls-1" d="M212.49,125c-.3-.44.18-.84.62-.81l-.32.91Z" transform="translate(-13.12 -10.67)"/><path id="Trazado_60" data-name="Trazado 60" class="cls-1" d="M169.3,114.74c-.22,1.62-.25,3.21-1.78,4-.44.78-1.7.52-2.29,1.25-1.53-.7-3.46-.77-4.12-2.52-1.26-.77-1.55.56-2.41.86a5.31,5.31,0,0,1-2,2.53c-.67-1,.71-2,.8-3.28.23.08.68,0,.63-.37,1-2.27,2.6-4.1,3.61-6.54l.9-.88C164.73,111.56,168,112.28,169.3,114.74Z" transform="translate(-13.12 -10.67)"/><path id="Trazado_61" data-name="Trazado 61" class="cls-1" d="M178.48,120.53c-.47,1.61,1.46,2.62.43,4.38.34,1,1.19,1.94.27,3.14a2.34,2.34,0,0,1-1.31-.11,3.4,3.4,0,0,0-.2-2.87c-2.17-.32-4.71-2-6.37-.16-.71.09-.93,1.46-1.76,1.17.61-2.5,2.47-4,3.28-6.57.81.11.64-.87,1-1.35a10,10,0,0,1,2.81-3C178.09,116.5,177.05,118.77,178.48,120.53Z" transform="translate(-13.12 -10.67)"/><path id="Trazado_62" data-name="Trazado 62" class="cls-1" d="M209,127.66c-.93,0,.51,2-.92,1l.14-1.39Z" transform="translate(-13.12 -10.67)"/><path id="Trazado_63" data-name="Trazado 63" class="cls-1" d="M207.6,129a.58.58,0,0,0-.48.06l.38-1.11C208,128.09,207.63,128.53,207.6,129Z" transform="translate(-13.12 -10.67)"/><path id="Trazado_64" data-name="Trazado 64" class="cls-2" d="M167.47,116.14c-.07,1.92-1.88,1-3,1.51-1.54-.19-1.87-1.91-3-2.38a2.67,2.67,0,0,1,1.66-2.13C164.91,113.74,167.42,113.59,167.47,116.14Z" transform="translate(-13.12 -10.67)"/><path id="Trazado_65" data-name="Trazado 65" class="cls-1" d="M206,129.25c-.3.4-.79.57-.41,1.21,0,.18-.16.2-.18.28-.88-.39,0-1.12-.9-1.58C204.89,129,205.7,128.89,206,129.25Z" transform="translate(-13.12 -10.67)"/><path id="Trazado_66" data-name="Trazado 66" class="cls-1" d="M136.05,106.92a87.36,87.36,0,0,0,9.41,10c1.8,1.89,5.24,2.23,6.45,4.59a38.5,38.5,0,0,1,4.67,3.14c5.5,1.72,10.6,4.83,16.11,5.55,5.47,1.29,11.52.67,17.31.55,3.16.41,6.32-1.38,9.34-.59l.44-.53a2.22,2.22,0,0,1,1,1.27c-1.06,1.33-3.25.58-4.49,1.5-2.41-.4-4.48,1.93-6.84.69-.63-.39-1,.6-1.5.42a61.71,61.71,0,0,0-8.16-.11c-1.09-.29-2.07-.88-3.11-.31-2.47-1.44-5.19.07-7.27-1.74-1.68-1-3.74.31-4.92-1.7a56.16,56.16,0,0,1-14.24-7.27c-1.31.39-1.31-1.81-2.93-1.78-.22-.84-1.11-1-1.84-1.31-1.42-1.76-4-2.82-4.6-5-1.41-.82-2.15-2.6-3.25-3.83.15-1.89-2-1.89-2.16-3.53a5,5,0,0,1-1.45-2.45C135.52,104.54,135.4,106.1,136.05,106.92Z" transform="translate(-13.12 -10.67)"/><path id="Trazado_67" data-name="Trazado 67" class="cls-2" d="M176.72,121.44l-.44,1-2.5-.86.55-1.59c.81.11.57-.9,1.15-1.13C177,119.17,176.17,120.58,176.72,121.44Z" transform="translate(-13.12 -10.67)"/><path id="Trazado_68" data-name="Trazado 68" class="cls-1" d="M204.22,130c-.37-.13-.93.27-1.26-.26l.34-1C203.53,129.08,204.41,129.21,204.22,130Z" transform="translate(-13.12 -10.67)"/><path id="Trazado_69" data-name="Trazado 69" class="cls-1" d="M202.61,130.81l-.17.5c-.29-.38-1-.75-.49-1.41C202.12,130.23,202.61,130.4,202.61,130.81Z" transform="translate(-13.12 -10.67)"/><path id="Trazado_70" data-name="Trazado 70" class="cls-1" d="M183.73,128.59a1.39,1.39,0,0,1-1.14-.14c.26-.75-.79-1.62.1-2.25C183.83,125.59,185,127.52,183.73,128.59Z" transform="translate(-13.12 -10.67)"/></g><g id="Meet"><g id="MEET_OUR_TEAM" data-name="MEET OUR TEAM" class="cls-3"><g class="cls-3"><path class="cls-4" d="M15.15,60.21V22l-1-1.12a.51.51,0,0,1,.4-.88h8.64a.44.44,0,0,1,.4.24l8.08,10.88,7.36-10.88a.44.44,0,0,1,.4-.24h8.64c.48,0,.8.48.4.88l-1,1.12V60.21l1,1a.56.56,0,0,1-.4,1h-9.6a.58.58,0,0,1-.4-1l1-1V34.69l-7.36,10.4a.52.52,0,0,1-.88,0l-7.36-9.36V60.21l1,1a.62.62,0,0,1-.48,1H14.59a.57.57,0,0,1-.4-1Z" transform="translate(-13.12 -10.67)"/><path class="cls-4" d="M62.27,62.21a.57.57,0,0,1-.4-1l1-1V22l-1-1.12a.51.51,0,0,1,.4-.88H85.15a.53.53,0,0,1,.56.48v8c0,.48-.48,1-1,.48l-1-1H71.31v8.72h9.36l1-1a.55.55,0,0,1,1,.4v9.2a.58.58,0,0,1-1,.4l-1-.88H71.31v9.44H83.79l1-1c.4-.4,1-.08,1,.48v7.93a.6.6,0,0,1-.56.55Z" transform="translate(-13.12 -10.67)"/><path class="cls-4" d="M99.31,62.21a.57.57,0,0,1-.4-1l1-1V22l-1-1.12a.51.51,0,0,1,.4-.88h22.88a.53.53,0,0,1,.56.48v8c0,.48-.48,1-1,.48l-1-1H108.35v8.72h9.36l1-1a.55.55,0,0,1,1,.4v9.2a.58.58,0,0,1-1,.4l-1-.88h-9.36v9.44h12.48l1-1c.4-.4,1-.08,1,.48v7.93a.6.6,0,0,1-.56.55Z" transform="translate(-13.12 -10.67)"/><path class="cls-4" d="M136.75,28.93a.67.67,0,0,1-1-.48V20.61a.69.69,0,0,1,.64-.64h26.56a.59.59,0,0,1,.64.64v7.84c0,.48-.64.8-1,.48l-1-1h-7.68V60.21l1,1a.56.56,0,0,1-.4,1h-9.6a.58.58,0,0,1-.4-1l1-1V28h-7.68Z" transform="translate(-13.12 -10.67)"/></g><g class="cls-3"><path class="cls-4" d="M16.83,112C15,109.93,14,106.89,14,102.49V85.61c0-4.24,1-7.28,2.88-9.44,2.48-2.56,6.24-3.76,11.84-3.76s9.36,1.2,11.76,3.84c1.92,2.08,2.8,5.12,2.8,9.36v16.88c0,4.4-.88,7.44-2.8,9.52-2.48,2.57-6.24,3.84-11.76,3.84C23,115.85,19.23,114.58,16.83,112ZM29,81h-.8c-2.08,0-3.52.56-4.48,1.76a8.57,8.57,0,0,0-1.2,5v12.64c0,5.6,3,6.8,5.68,6.8H29c2.08,0,3.6-.56,4.56-1.83a9,9,0,0,0,1.2-5V87.77C34.75,82.09,31.71,81,29,81Z" transform="translate(-13.12 -10.67)"/><path class="cls-4" d="M56.35,73.85c-.32-.4-.16-.88.4-.88h9.52c.64,0,.8.56.48.88l-1,1.12v25.44c0,5.6,3.12,6.8,5.76,6.8h.8c3.92,0,5.76-2.72,5.76-6.8V75l-1-1.12a.53.53,0,0,1,.4-.88h9.68a.54.54,0,0,1,.4.88l-1,1.12v27.52c0,9.2-5,13.36-14.56,13.36-9,0-14.64-3.6-14.64-13.36V75Z" transform="translate(-13.12 -10.67)"/><path class="cls-4" d="M100.83,73.85a.51.51,0,0,1,.4-.88h13.52c7.12,0,11.44,4,11.44,11.52v8.08a13.47,13.47,0,0,1-1.2,5.92,8.13,8.13,0,0,1-3.92,4.08l4.8,10.56,1.12,1.12c.4.25.08,1-.48,1H116.43a.56.56,0,0,1-.4-1l.8-1-4.16-9.2h-2.48v9.2l1,1c.56.56.24,1-.32,1h-9.68a.57.57,0,0,1-.4-1l1-1V75Zm10.4,22.24c2.56,0,4.08-.4,5.12-1.28s1.44-2.08,1.44-4.24V86.41c0-2.24-.4-3.6-1.44-4.32S113.87,81,111.23,81h-1V96.09Z" transform="translate(-13.12 -10.67)"/></g><g class="cls-3"><path class="cls-4" d="M15,134.93a.67.67,0,0,1-1-.48v-7.84a.69.69,0,0,1,.64-.64H41.15a.59.59,0,0,1,.64.64v7.84c0,.48-.64.8-1,.48l-1-1H32.11v32.24l1,1a.56.56,0,0,1-.4,1h-9.6a.58.58,0,0,1-.4-1l1-1V134H16Z" transform="translate(-13.12 -10.67)"/><path class="cls-4" d="M55.23,168.21a.57.57,0,0,1-.4-1l1-1V128l-1-1.12a.51.51,0,0,1,.4-.88H78.11a.53.53,0,0,1,.56.48v8c0,.48-.48,1-1,.48l-1-1H64.27v8.72h9.36l1-1a.55.55,0,0,1,1,.4v9.2a.58.58,0,0,1-1,.4l-1-.88H64.27v9.44H76.75l1-1c.4-.4,1-.08,1,.48v7.93a.6.6,0,0,1-.56.55Z" transform="translate(-13.12 -10.67)"/><path class="cls-4" d="M91.87,167.25l1-1,10.32-38.32-.64-1c-.24-.4-.08-.88.56-.88h10a.57.57,0,0,1,.48.88l-.72,1,10.32,38.32,1.12,1a.62.62,0,0,1-.48,1h-9.68a.55.55,0,0,1-.32-1l1-1-2.08-7.44h-9.36l-2,7.44,1,1a.59.59,0,0,1-.48,1H92.27A.55.55,0,0,1,91.87,167.25Zm18.8-16.32L108,141.25l-2.56,9.68Z" transform="translate(-13.12 -10.67)"/><path class="cls-4" d="M138.51,166.21V128l-1-1.12a.51.51,0,0,1,.4-.88h8.64a.44.44,0,0,1,.4.24l8.08,10.88,7.36-10.88a.44.44,0,0,1,.4-.24h8.64c.48,0,.8.48.4.88l-1,1.12v38.24l1,1a.56.56,0,0,1-.4,1h-9.6a.58.58,0,0,1-.4-1l1-1V140.69l-7.36,10.4a.52.52,0,0,1-.88,0l-7.36-9.36v24.48l1,1a.62.62,0,0,1-.48,1H138a.57.57,0,0,1-.4-1Z" transform="translate(-13.12 -10.67)"/></g></g><g id="MEET_OUR_TEAM-2" data-name="MEET OUR TEAM-2" class="cls-3"><g class="cls-3"><path class="cls-5" d="M14.4,22.5c-.32-.4-1.2-.88-1.2-1.28a1.29,1.29,0,0,1,1-1c.56,0,1.2.16,1.76.16.24,0,.56-.08.8-.08s.56.08.8.08a3.28,3.28,0,0,0,.88-.08H18.4a1.78,1.78,0,0,1,.72-.08c.4,0,.8.16,1.12.16.88,0,1.52-.08,2.24-.08.56,0,1.52,1.28,1.84,1.6s.4,1.12.8,1.44a2.91,2.91,0,0,1,1,1.2,6.39,6.39,0,0,0,1.44,2.16l1.2,1.2h-.08c.56.56.48,1.28,1,1.68A5.88,5.88,0,0,1,31,31.14,12.69,12.69,0,0,0,32.4,29a14.15,14.15,0,0,1,1.36-1.92,6.54,6.54,0,0,0,.8-.88c.24-.24,0-.64.24-.88,1.36-1.36,1.6-2.32,2.8-3.84.56-.88.72-1.28,1.92-1.28.56,0,.72.32,1.28.32.32,0,.64-.24,1-.24.56,0,1-.08,1.52-.08,1.36,0,2.64.32,3.92.32a.29.29,0,0,1,.24-.08c.32,0,.48.48.48.72,0,.4-.56,1-.88,1.2v-.08l-.24.16c0,.64.08,1.2.08,1.84,0,.4-.16.72-.16,1.12a13,13,0,0,0,.24,3,4.06,4.06,0,0,0-.16.72,3,3,0,0,1-.08,1.44c.08.32.08.72.16,1v-.08a2.49,2.49,0,0,1,.08.88c0,.24-.16.48-.16.72s.16.48.16.72c0,.4-.16.72-.16,1.12.08.08.08.24.08.48,0,.56-.24.72-.24,1.28,0,2.48.16,4.72.16,7.2,0,1.36-.08,2.72-.08,4.08s.24,2.8.24,4.08c0,.56-.32.8-.32,1.2,0,1.2.16,2.4.16,3.6,0,.56-.08,1-.08,1.52,0,.32.16.64.16.88s-.16,1.2.08,1.44c.32.4,1.12.64,1.12,1.28,0,.32-1.36.88-1.68.88-.16,0-.24-.08-.32-.24v.08c-.08-.08-.16-.08-.4-.08s-.72.16-1.12.16-.8-.16-1.2-.16-.72.16-1.28.16-1.2-.16-1.76-.16c-.4,0-.72.16-1.12.16-.56,0-2.32-.08-2.32-.64,0-.88,1-1,1.28-1.68-.08-.08-.08-.16-.08-.32s-.08-.24-.08-.48.16-.48.16-.8-.08-.48-.08-.72a3.28,3.28,0,0,1-.08-.88c0-.56.24-1.12.24-1.68,0-.32-.24-.56-.24-.88s.16-.64.16-1c0-.56-.16-.8-.16-1.36S38,51.46,38,50.9s.24-1.12.24-1.76v-2.4c0-.32-.24-.72-.24-1s.24-.72.24-1.12c0-.64-.16-1.28-.16-1.92a1.78,1.78,0,0,1,.08-.72V42a11.62,11.62,0,0,0,.16-2.88c0-.88-.32-1.44-.32-2.32a3.52,3.52,0,0,1,.16-.8v.08l.08-.24V35.7l-.56.56h.08A4.94,4.94,0,0,0,36.56,38c-.24.72-1.12,1.12-1.52,2.16V40.1c-.08.32-.8,1-1,1.2h.08c-1,1.52-1.92,2.8-2.8,4.32a.79.79,0,0,1-.64.48c-.4,0-1.2-1.28-1.44-1.52h.08a12.42,12.42,0,0,1-1.84-2.16.25.25,0,0,0-.08-.16l-.16-.32c-.16-.16-.4-.48-.72-.88l-3.36-4.32a5.91,5.91,0,0,0-.16,1c0,.24.08.32.08.56v-.08a2,2,0,0,1,.08.8c0,1.2-.08,2.08-.08,3.28A5.18,5.18,0,0,1,23,44.18c0,.32.24.56.24,1,0,.56-.24,1-.24,1.6,0,1,.24,1.92.24,2.88,0,.56-.24.88-.24,1.28,0,.24,0,.4.08.48V51.3a4.06,4.06,0,0,1,.16.72c0,.48-.16,6.16-.16,6.32v-.08c-.08.08-.08.32-.08.56a12,12,0,0,0,.32,1.92c.32.4,1,.88,1,1.44a.94.94,0,0,1-.8.72c-.24,0-.4-.32-1-.32-.24,0-.24.08-.48.08s-.56-.16-.88-.16c-.88,0-1.52.32-2.4.32-.32,0-.64-.16-.88-.16s-.4.16-.72.16c-.56,0-.8-.24-1.36-.24-.32,0-.64.16-1,.16-.24,0-.32-.08-.56-.08-.08-.08-.24-.08-.48-.08s-.56.08-.56-.32c0-1,1.28-1.36,1.28-2.72,0-1-.16-1.84-.16-2.72,0-.4.24-.88.24-1.12,0-.08,0-.16-.08-.16-.08-.56-.16-1.84-.16-2.4,0-.24.16-.48.16-.72s-.16-.56-.16-.8c0-.4.24-.56.24-.88s-.08-.32-.08-.56v-.8a4.13,4.13,0,0,0,.16-.88c0-.72-.24-1.52-.24-2.24v-6.8a2.34,2.34,0,0,1-.16-.72c0-.56.32-.8.32-1.2,0-.56-.16-.88-.16-1.28,0-.56.08-.88.08-1.28,0-1.2.08-2.24.08-3.28,0-.56-.16-1-.16-1.6V28.18c0-.32-.08-.56-.08-.88s.08-.88.08-1.28c0-.24-.08-.24-.08-.48-.08-.08-.08-.32-.08-.64v-.32a.69.69,0,0,0,.24-.48Zm1.84,33v.16c0,.24.24.48.24.88s-.24.72-.24,1.12c0,.88-.08,1.44-.08,2.32a3.28,3.28,0,0,0,.08.88,3.3,3.3,0,0,0,1-.08h-.08a1.78,1.78,0,0,1,.72-.08,13.85,13.85,0,0,1,3.2.16c-.24-.56.08-1,.08-1.6,0-.88-.16-1.68-.16-2.56a1.78,1.78,0,0,1,.08-.72V56c0-.24.08-.4.08-.64,0-.56-.16-.8-.16-1.36A6.07,6.07,0,0,1,21,51.94V52a.6.6,0,0,0,.08-.4c0-.24-.08-.16-.08-.4-.08-.08-.08-.16-.08-.4,0-.56.24-1,.24-1.6,0-.32-.16-.56-.16-.88s.08-.48.08-.72c0-.56-.24-1-.24-1.52s.24-.88.24-1.44-.24-.88,0-1.44v.08c.08-.08.08-.24.08-.48,0-.4-.24-.72-.24-1.28,0-.88.16-1.6.16-2.48-.32-.64,0-1.92,0-2.64,0-.56-.16-.8-.16-1.36,0-1,.08-2,.08-3a.61.61,0,0,0-.16-.32l-.08-.16a.45.45,0,0,1,.48-.4.41.41,0,0,1,.4.32c.24.64.4.64,1,1.2h-.08c.24.24.16.32.4.56.32.88,1.2.88,1.76,2.16h-.08l.48.56a1.08,1.08,0,0,0,.48.56c.72.56.72,1.44,1.28,1.76H26.8a.61.61,0,0,0,.32.16c.32.32.32.32.32.88a10.61,10.61,0,0,0,2.08,2.16c0,.24-.08.56.24.8v-.16c.08,0,.16.08.24.16h-.08a.87.87,0,0,1,.4.32l.16.4v.24c0-.08,0-.08.08-.08l.08-.08c.64-1,.4-1,1.2-1.76h-.08c.56-.72,1.44-2.4,1.84-3a5.11,5.11,0,0,0,1-1.2h-.08c0-.16.08-.32.32-.56a14.15,14.15,0,0,0,1.36-1.92c.24-.32.56-.32.8-.72a5.21,5.21,0,0,1,1.2-2.16c.56-.24.24-.24.48-.8.08-.24.72-.56.8-.64l.24.16c.08-.08.48.08.56-.48,0,.32-.24.48-.24.72,0,2.56.24,5.12.24,7.68A9.8,9.8,0,0,1,40.16,40c0,.08.16.8.16.88,0,.4-.24.72-.24,1.12,0,.56.16,1.12.16,1.68,0,.4-.16.8-.16,1.2,0,.24.16.56.16.8s-.16.64-.16,1v5.12c0,1,.24,2,.24,3,0,.56-.24,1-.24,1.6s.24,1.12.24,1.68-.16,1.12-.16,1.76c0,.88.24,1,1,1,.56,0,.88-.24,1.44-.24.32,0,.64.16,1,.16s1.44,0,1.44-.4c0-1.52-.16-2.8-.16-4.32,0-.72.16-1.44.16-2.32s.08-1.44.08-2.32-.4-2.32-.4-2.88.4-1.12.4-1.68-.32-1-.32-1.6.24-1,.24-1.6-.16-1-.16-1.6.16-.8.16-1.36c0-.24,0-.48-.08-.56v.08a3.4,3.4,0,0,1-.16-.88c0-.4.24-.88.24-1.28s-.16-.56-.16-1,.16-.8.16-1.36c0-1.84-.16-3.68-.16-5.52,0-.56.24-1,.24-1.6,0-.32-.24-.64-.24-1,0-1.28.16-2.64.16-3.92a6.88,6.88,0,0,0-.08-1.28c-.24,0-.48.16-.72.16s-.56-.24-.8-.24-.48.24-.8.24a.6.6,0,0,1-.4-.08,7.05,7.05,0,0,0-2.64-.32c-.32,0-1,1.44-1.2,1.68-.56.88-1,1.76-1.52,2.64-1,1.52-2.32,2.64-3,4.32-.24.4-.64.64-.88,1a8,8,0,0,1-.88,1.6h.08c-.24.4-.48,1.12-1,1.12-.4,0-.72-.8-.8-1.12h.08A10.35,10.35,0,0,0,29.12,32a5.18,5.18,0,0,1-.64-.72v-.08h.08A29,29,0,0,0,25.2,27a4.05,4.05,0,0,0-.56-1.2h.08l-.4-.32v.08c-.24-.08-.4-.4-.48-.8v.08c-.24-.56-.72-.64-1-1.2-.72-1.28-1.44-1-2.72-1.28-.24,0-.32-.08-.56-.08-.4,0-.8.16-1.2.16-.56,0-.8-.16-1.36-.16l-.64.24c.24,1-.16,2-.16,3s.16,1.76.16,2.64c0,.4-.16.72-.16,1.12,0,.64.16,1.2.16,1.76-.08.08-.08.24-.08.48,0,.56.16.88.16,1.28s-.16.72-.16,1.12c0,.24.08.24.08.48v-.08c0,.24.08.24.08.48s-.16.48-.16.72c0,1-.08,2.16-.08,3.2,0,.24.24.48.24.8s-.16.72-.16,1.12c0,.56.16,1,.16,1.6,0,1.2-.24,2.08-.24,3.28v1c0,.64.32,1.2.32,1.84s-.4,1.52-.4,2.48.16,1.52.16,2.4c0,.32.16.64.16,1S16.16,55.22,16.24,55.46Z" transform="translate(-13.12 -10.67)"/><path class="cls-5" d="M65.52,62.66h-3c-.64,0-1.68.16-1.68-.72,0-.32.32-.48.56-.72v.08c.88-.88.48-1.28.72-2.24V58.9c0-.08,0-.08.08-.08,0-.16,0-.24-.08-.32,0-.24-.08-.24-.08-.48,0-1.2.08-2.4.08-3.6,0-.32-.16-.72-.16-1s.24-.64.24-1-.16-.56-.16-.88c0-.56.16-1,.16-1.36,0-.24-.08-.4-.08-.64v.08a2.13,2.13,0,0,1-.24-1c0-.72.32-1.44.32-2.16,0-.56-.16-.8-.16-1.36,0-.4.16-.72.16-1,0-.88-.24-1.76-.24-2.64v-1.2c0-.56.24-1,.24-1.52,0-.32-.16-.64-.16-.88a1.78,1.78,0,0,1,.08-.72c0-.24.08-.32.08-.56s-.08-.24-.08-.48c-.24-.24-.08-2-.08-2.56s.08-.8.08-1.36-.08-.8-.08-1.36a4.06,4.06,0,0,1,.16-.72c0-.4-.24-.8-.24-1.2,0-.24.08-.24.08-.48v.08c0-.24.08-.16.08-.4V22.9c0-.72-1-1-1-2,0-.56,1.36-.4,1.92-.64a.6.6,0,0,1,.4-.08c.24,0,.48.16.72.16.88,0,1.52-.16,2.4-.16.64,0,1.28.16,1.92.16.32,0,.64-.08,1-.08.56,0,.88.16,1.28.16.72,0,1.36.08,2.08.08.88,0,1.44-.24,2.32-.24.72,0,1.36.16,2.08.16.88,0,1.52-.16,2.4-.16a32.81,32.81,0,0,1,4.88.16,1.23,1.23,0,0,1,.88,1.28c0,.4-.16.72-.16,1.12,0,.56-.08.88-.08,1.2a2,2,0,0,0,.08.8v-.08a3.52,3.52,0,0,1,.16.8,1.88,1.88,0,0,1-.16.64V26.1a1.78,1.78,0,0,0-.08.72c0,.4.16.8.16,1.2A2.13,2.13,0,0,1,85,29c0,.4,0,.88-.56.88a.44.44,0,0,1-.48-.32H84l-.16-.16c-.56-.24-.88-.88-1.2-.88s-.48,0-.56.08H82a3.89,3.89,0,0,1-1,.08c-.4,0-.8-.16-1.2-.16-.88,0-1.6.08-2.48.08-1.2,0-2.4-.16-3.6-.16-.56,0-1,.24-1.52.24-.4,0-.72-.16-1.12-.16-.16,0-.24,0-.32.08,0,1-.08,2-.08,3a8.89,8.89,0,0,0,.08,2.08,6.65,6.65,0,0,1,.16,1c0,.32-.16.48-.16.8s.16.48.16.72a2.83,2.83,0,0,1-.08.48c0,.24.32.24.4.24.56,0,.88-.16,1.28-.16a.6.6,0,0,1,.4.08h-.08a6.24,6.24,0,0,0,1.76.24c.88,0,1.6-.48,2.24-.48s1.36.4,2.08.4c1.36,0,2.16-1.44,2.4-1.44s.24.08.24.32a.29.29,0,0,0,.08.24V36.1a2,2,0,0,1,.48,1.52c0,.56-.16,1.2-.16,1.76s.08,1.2.08,1.84c0,.4-.08.72-.08,1.28s.16,1.2.16,1.84,0,1.84-.88,1.84c-.72,0-1.12-1.2-1.68-.88-.72,0-1.52-.08-2.24-.08-1.28,0-2.64.08-4,.08-.72,0-1.44-.16-2.16-.16s-.56,1-.56,1.52v1.2c0,.64.32,1.28.32,2a.6.6,0,0,1-.08.4v-.08a4.66,4.66,0,0,0-.24,1.52c0,.56.32,1,.32,1.6,0,.4-.16.8-.16,1.2.24,0,.4,0,.48-.08a4.06,4.06,0,0,1,.72-.16c.64,0,1.28.24,1.92.24s1.12-.16,1.68-.16c.24,0,.16.08.4.08l.08.08a1.56,1.56,0,0,0,.64-.08c.24,0,.32-.08.56-.08s.48.16.8.16c.72,0,1.44-.32,2.16-.32.56,0,.8.24,1.2.24,2.4,0,2.08-1,3.12-1a.64.64,0,0,1,.72.72c0,.72-.24,1.28-.24,2,0,.32.24.64.24,1s-.08.32-.08.56c-.24.24,0,1.12,0,1.36,0,.64-.08,1.28-.08,1.92,0,1.28.08,1.84-1.52,1.84a15,15,0,0,1-3.28-.16,4.06,4.06,0,0,0-.72-.16.6.6,0,0,0-.4.08,8.16,8.16,0,0,1-2.4.24c-.72,0-1.36-.24-2.08-.24-.56,0-1,.24-1.68.24-1.52,0-3-.24-4.56-.24-.24,0-.4,0-.48.08a.29.29,0,0,0-.24.08.6.6,0,0,1-.4.08c-.32,0-.72-.16-1.12-.16Zm-1.44-7.28a1.56,1.56,0,0,0,.08.64v-.08a2,2,0,0,1,.08.8c0,.88-.32,1.68-.32,2.56A1.78,1.78,0,0,0,64,60v-.08c.08.24-.08.8.16.8s.24-.08.48-.08c.4,0,.64.16,1,.16h.08a13.57,13.57,0,0,1,1.76-.32c.56,0,1,.24,1.36.24H70c.88,0,1.6.08,2.48.08,1,0,1.92-.24,2.8-.24.4,0,.8.16,1.2.16s1.28.16,1.52-.08v.08a.69.69,0,0,1,.48-.24c.24,0,.48.16.8.16.56,0,3.28-.08,3.84-.08.08.08.08-.4.08-.48,0-.24-.08-.48-.08-.72A3.28,3.28,0,0,1,83,58.5V57c0-.4.24-.48.24-.56s-.08-.16-.24-.16c-1,0-1.84.32-2.8.32s-1.52-.24-2.24-.24c-.88,0-1.6.16-2.48.16s-1.92-.16-2.88-.16-1.52.24-2.08.24c-.24,0-.56-.16-.8-.16s-.4.16-.64.16c-.4,0-.4-2-.4-2.32,0-.64.24-1.28.24-1.84,0-.24,0-.48-.08-.56v.08a2.82,2.82,0,0,1-.24-1.12c0-.56.16-.8.16-1.2,0-.56-.16-1-.16-1.6s.24-1,.24-1.44a11.05,11.05,0,0,0-.24-2.8,1.63,1.63,0,0,1-.08-.4c0-.16.16-.24.4-.24.4,0,.8.16,1.12.16s.8-.24,1.36-.24c.4,0,.64.24,1,.24s.72-.16,1-.16a2,2,0,0,1,.8.08h-.08c.08.08.32.08.56.08.4,0,.8-.24,1.36-.24,1,0,1.76.24,2.64.24.32,0,.56-.16.88-.16a2,2,0,0,1,.56.16A3.9,3.9,0,0,1,80,42.18a10.2,10.2,0,0,0,.08-1.52,7.58,7.58,0,0,0-.16-1.76c-.08-.08-.32-.08-.56-.08-.72,0-1.52.16-2.24.16H71.84c-.24,0-.48-.16-.8-.16-.56,0-.8.32-1.36.32-.4,0-1-.16-1-.72,0-.4.16-.88.16-1.28V35.3a1.88,1.88,0,0,1-.16-.64c0-.32.16-.64.16-1,0-.64-.16-1.28-.16-1.92s.32-1.44.32-2.16a1.6,1.6,0,0,0-.16-.72h.08a.69.69,0,0,1-.24-.48c0-.24.08-.24.08-.48.08-.08.08-.32.08-.56,0-.64-.24-.8.64-.8.64,0,1.36-.08,2-.08,1.84,0,3.68.32,5.52.32a8.82,8.82,0,0,0,1.44-.16h-.08a2,2,0,0,1,.8-.08c.64,0,1.2.16,1.84.16h1.92c.08,0,.16,0,.16-.08v-.88c0-.24-.08-.32-.08-.56,0-.88.16-1.52.16-2.4v-.4c-.56,0-1.12.08-1.68.08s-1-.24-1.52-.24-1.2.24-1.76.24-.88-.32-1.28-.32-.72.24-1,.24c-.72,0-1.44.08-2.16.08-.88,0-1.6-.32-2.48-.32-1.2,0-1,.32-1.6.32a7.65,7.65,0,0,1-2.4-.24,1.24,1.24,0,0,1-.88.24c-.4,0-.48-.24-.8-.24h-.16c-.56,0-.88-.16-1.28.4a4.06,4.06,0,0,0-.16.72c0,.56.24,1,.24,1.6,0,.4-.08.8-.08,1.2V33c0,.4-.16.8-.16,1.36,0,.4.16.8.16,1.36,0,1.92.08,3.92.08,5.84v1c0,.32.08.56.08.88,0,.72-.24,1.36-.24,2.08v4.4c0,.08.16.32.16.4h-.08a.61.61,0,0,1,.16.4c0,.24-.08.32-.08.56A14.33,14.33,0,0,0,64,53.22c0,.4.16.88.16,1.28S64.08,55.14,64.08,55.38Z" transform="translate(-13.12 -10.67)"/><path class="cls-5" d="M102.56,62.66h-3c-.64,0-1.68.16-1.68-.72,0-.32.32-.48.56-.72v.08c.88-.88.48-1.28.72-2.24V58.9c0-.08,0-.08.08-.08,0-.16,0-.24-.08-.32,0-.24-.08-.24-.08-.48,0-1.2.08-2.4.08-3.6,0-.32-.16-.72-.16-1s.24-.64.24-1-.16-.56-.16-.88c0-.56.16-1,.16-1.36,0-.24-.08-.4-.08-.64v.08a2.13,2.13,0,0,1-.24-1c0-.72.32-1.44.32-2.16,0-.56-.16-.8-.16-1.36,0-.4.16-.72.16-1,0-.88-.24-1.76-.24-2.64v-1.2c0-.56.24-1,.24-1.52,0-.32-.16-.64-.16-.88a1.78,1.78,0,0,1,.08-.72c0-.24.08-.32.08-.56s-.08-.24-.08-.48c-.24-.24-.08-2-.08-2.56s.08-.8.08-1.36-.08-.8-.08-1.36a4.06,4.06,0,0,1,.16-.72c0-.4-.24-.8-.24-1.2,0-.24.08-.24.08-.48v.08c0-.24.08-.16.08-.4V22.9c0-.72-1-1-1-2,0-.56,1.36-.4,1.92-.64a.6.6,0,0,1,.4-.08c.24,0,.48.16.72.16.88,0,1.52-.16,2.4-.16.64,0,1.28.16,1.92.16.32,0,.64-.08,1-.08.56,0,.88.16,1.28.16.72,0,1.36.08,2.08.08.88,0,1.44-.24,2.32-.24.72,0,1.36.16,2.08.16.88,0,1.52-.16,2.4-.16a32.81,32.81,0,0,1,4.88.16,1.23,1.23,0,0,1,.88,1.28c0,.4-.16.72-.16,1.12,0,.56-.08.88-.08,1.2a2,2,0,0,0,.08.8v-.08a3.52,3.52,0,0,1,.16.8,1.88,1.88,0,0,1-.16.64V26.1a1.78,1.78,0,0,0-.08.72c0,.4.16.8.16,1.2a2.13,2.13,0,0,1-.24,1c0,.4,0,.88-.56.88a.44.44,0,0,1-.48-.32H121l-.16-.16c-.56-.24-.88-.88-1.2-.88s-.48,0-.56.08H119a3.89,3.89,0,0,1-1,.08c-.4,0-.8-.16-1.2-.16-.88,0-1.6.08-2.48.08-1.2,0-2.4-.16-3.6-.16-.56,0-1,.24-1.52.24-.4,0-.72-.16-1.12-.16-.16,0-.24,0-.32.08,0,1-.08,2-.08,3a8.89,8.89,0,0,0,.08,2.08,6.65,6.65,0,0,1,.16,1c0,.32-.16.48-.16.8s.16.48.16.72a2.83,2.83,0,0,1-.08.48c0,.24.32.24.4.24.56,0,.88-.16,1.28-.16a.6.6,0,0,1,.4.08h-.08a6.24,6.24,0,0,0,1.76.24c.88,0,1.6-.48,2.24-.48s1.36.4,2.08.4c1.36,0,2.16-1.44,2.4-1.44s.24.08.24.32a.29.29,0,0,0,.08.24V36.1a2,2,0,0,1,.48,1.52c0,.56-.16,1.2-.16,1.76s.08,1.2.08,1.84c0,.4-.08.72-.08,1.28s.16,1.2.16,1.84,0,1.84-.88,1.84c-.72,0-1.12-1.2-1.68-.88-.72,0-1.52-.08-2.24-.08-1.28,0-2.64.08-4,.08-.72,0-1.44-.16-2.16-.16s-.56,1-.56,1.52v1.2c0,.64.32,1.28.32,2a.6.6,0,0,1-.08.4v-.08a4.66,4.66,0,0,0-.24,1.52c0,.56.32,1,.32,1.6,0,.4-.16.8-.16,1.2.24,0,.4,0,.48-.08a4.06,4.06,0,0,1,.72-.16c.64,0,1.28.24,1.92.24s1.12-.16,1.68-.16c.24,0,.16.08.4.08l.08.08a1.56,1.56,0,0,0,.64-.08c.24,0,.32-.08.56-.08s.48.16.8.16c.72,0,1.44-.32,2.16-.32.56,0,.8.24,1.2.24,2.4,0,2.08-1,3.12-1a.64.64,0,0,1,.72.72c0,.72-.24,1.28-.24,2,0,.32.24.64.24,1s-.08.32-.08.56c-.24.24,0,1.12,0,1.36,0,.64-.08,1.28-.08,1.92,0,1.28.08,1.84-1.52,1.84a15,15,0,0,1-3.28-.16,4.06,4.06,0,0,0-.72-.16.6.6,0,0,0-.4.08,8.16,8.16,0,0,1-2.4.24c-.72,0-1.36-.24-2.08-.24-.56,0-1,.24-1.68.24-1.52,0-3-.24-4.56-.24-.24,0-.4,0-.48.08a.29.29,0,0,0-.24.08.6.6,0,0,1-.4.08c-.32,0-.72-.16-1.12-.16Zm-1.44-7.28a1.56,1.56,0,0,0,.08.64v-.08a2,2,0,0,1,.08.8c0,.88-.32,1.68-.32,2.56A1.78,1.78,0,0,0,101,60v-.08c.08.24-.08.8.16.8s.24-.08.48-.08c.4,0,.64.16,1,.16h.08a13.57,13.57,0,0,1,1.76-.32c.56,0,1,.24,1.36.24H107c.88,0,1.6.08,2.48.08,1,0,1.92-.24,2.8-.24.4,0,.8.16,1.2.16s1.28.16,1.52-.08v.08a.69.69,0,0,1,.48-.24c.24,0,.48.16.8.16.56,0,3.28-.08,3.84-.08.08.08.08-.4.08-.48,0-.24-.08-.48-.08-.72a3.28,3.28,0,0,1-.08-.88V57c0-.4.24-.48.24-.56s-.08-.16-.24-.16c-1,0-1.84.32-2.8.32s-1.52-.24-2.24-.24c-.88,0-1.6.16-2.48.16s-1.92-.16-2.88-.16-1.52.24-2.08.24c-.24,0-.56-.16-.8-.16s-.4.16-.64.16c-.4,0-.4-2-.4-2.32,0-.64.24-1.28.24-1.84,0-.24,0-.48-.08-.56v.08a2.82,2.82,0,0,1-.24-1.12c0-.56.16-.8.16-1.2,0-.56-.16-1-.16-1.6s.24-1,.24-1.44a11.05,11.05,0,0,0-.24-2.8,1.63,1.63,0,0,1-.08-.4c0-.16.16-.24.4-.24.4,0,.8.16,1.12.16s.8-.24,1.36-.24c.4,0,.64.24,1,.24s.72-.16,1-.16a2,2,0,0,1,.8.08h-.08c.08.08.32.08.56.08.4,0,.8-.24,1.36-.24,1,0,1.76.24,2.64.24.32,0,.56-.16.88-.16a2,2,0,0,1,.56.16,3.9,3.9,0,0,1-.24-1.12,10.2,10.2,0,0,0,.08-1.52A7.58,7.58,0,0,0,117,38.9c-.08-.08-.32-.08-.56-.08-.72,0-1.52.16-2.24.16h-5.28c-.24,0-.48-.16-.8-.16-.56,0-.8.32-1.36.32-.4,0-1-.16-1-.72,0-.4.16-.88.16-1.28V35.3a1.88,1.88,0,0,1-.16-.64c0-.32.16-.64.16-1,0-.64-.16-1.28-.16-1.92s.32-1.44.32-2.16a1.6,1.6,0,0,0-.16-.72h.08a.69.69,0,0,1-.24-.48c0-.24.08-.24.08-.48.08-.08.08-.32.08-.56,0-.64-.24-.8.64-.8.64,0,1.36-.08,2-.08,1.84,0,3.68.32,5.52.32a8.82,8.82,0,0,0,1.44-.16h-.08a2,2,0,0,1,.8-.08c.64,0,1.2.16,1.84.16h1.92c.08,0,.16,0,.16-.08v-.88c0-.24-.08-.32-.08-.56,0-.88.16-1.52.16-2.4v-.4c-.56,0-1.12.08-1.68.08s-1-.24-1.52-.24-1.2.24-1.76.24-.88-.32-1.28-.32-.72.24-1,.24c-.72,0-1.44.08-2.16.08-.88,0-1.6-.32-2.48-.32-1.2,0-1,.32-1.6.32a7.65,7.65,0,0,1-2.4-.24,1.24,1.24,0,0,1-.88.24c-.4,0-.48-.24-.8-.24h-.16c-.56,0-.88-.16-1.28.4a4.06,4.06,0,0,0-.16.72c0,.56.24,1,.24,1.6,0,.4-.08.8-.08,1.2V33c0,.4-.16.8-.16,1.36,0,.4.16.8.16,1.36,0,1.92.08,3.92.08,5.84v1c0,.32.08.56.08.88,0,.72-.24,1.36-.24,2.08v4.4c0,.08.16.32.16.4h-.08a.61.61,0,0,1,.16.4c0,.24-.08.32-.08.56a14.33,14.33,0,0,0-.16,1.92c0,.4.16.88.16,1.28S101.12,55.14,101.12,55.38Z" transform="translate(-13.12 -10.67)"/><path class="cls-5" d="M135,22.5c0-.4-.16-.72-.16-1.12s0-.88.56-1h-.08a11.05,11.05,0,0,1,2.8-.24c.24,0,.4.08.64.08.08.08.32.08.56.08s.8-.24,1.2-.24c.24,0,.48.16.72.16a1.63,1.63,0,0,0,.4-.08h-.08c.08-.08.24-.08.48-.08.4,0,.72.24,1.28.24,1,0,1.84-.16,2.72-.16.72,0,1.44.16,2.16.16.56,0,.8-.16,1.36-.16s.8.16,1.36.16,1.2-.16,1.84-.16c.24,0,.48.16.72.16s.48-.16.72-.16a.6.6,0,0,1,.4.08,4.36,4.36,0,0,0,1.76-.08,6.28,6.28,0,0,1,1.12-.16c.56,0,1.12.32,1.76.32s.8-.24,1.36-.24.88.24,1.44.24c.88,0,.72,1,.72,1.68v2.72c0,.4.24.8.24,1.36,0,.88.08,3-.48,3.6-.08,0-.08,0-.16.08-.88,0-1.2-1.44-1.76-1.44-.24,0-.24.08-.32.08h.08a1.56,1.56,0,0,1-.64.08c-.4,0-.88-.24-1.44-.24s-1.28.16-2,.16c-.88,0-1.84-.16-2.8-.16-.24,0-.32.08-.32.32s.16.64.16,1-.16.64-.16,1,.08.64.08,1-.08.72-.08,1c0,.88.16,1.6.16,2.48,0,.64-.16,1.2-.16,1.84,0,.32-.16,1.2.16,1.52a.25.25,0,0,0,.08.16v.16c0,.32-.16.64-.16,1v.08a3.44,3.44,0,0,1,.16,1c0,.32-.32.8-.32,1.2,0,.56.24,1,.24,1.52,0,1.52.08,3.12.08,4.64,0,.56-.24.88-.24,1.44s.32,1,.32,1.6c0,.32-.16.64-.16,1,0,1.2-.16,2.32-.16,3.52,0,.56.24,1,.24,1.6,0,.88-.16,1.52-.16,2.4a2.1,2.1,0,0,0,.72,1.52l.24.48v-.08a.48.48,0,0,1,.24.48c0,.4-.48.64-.88.64-.24,0-.32-.16-.56-.16s-.48.16-.8.16-.4,0-.48-.08c-1.2,0-2.08-.08-3.28-.08-.56,0-.8.16-1.36.16s-1.2-.08-1.84-.08-1.76.24-1.76-1c0-.56.32-.4.72-.64a2.76,2.76,0,0,0,.4-1.44c0-.88-.16-1.6-.16-2.32a4,4,0,0,1,.08-1.68,6.65,6.65,0,0,0,.16-1c0-.4-.24-1-.24-1.6,0-.4.16-.8.16-1.2,0-.88.08-1.68.08-2.56,0-.56-.32-1-.32-1.44s.24-.8.24-1.2c0-.56-.16-1.28-.16-1.84V42.74c0-.56.24-1,.24-1.6l-.16-.32h.08c-.32-.32-.08-.88-.08-1.28,0-.56-.08-1-.08-1.6s.24-1.2.24-1.84c-.24-.24-.16-.64-.16-.88,0-.4.08-.72.08-1s-.16-.56-.16-.88.08-.24.08-.48c0-.88-.08-1.76-.08-2.64a2,2,0,0,1,.08-.8v.08c0-.24.08-.24.08-.48,0-.4-.24-.64-.72-.64h-2.48c-.56,0-1.12.24-1.76.24s-1-.08-1.6-.08a2.45,2.45,0,0,0-1.36.32v-.08c-.24.24-.8.88-1,.88-.88-.56-.8-2.32-.8-3.2,0-.4.16-.72.16-1.12,0-.56-.16-1.12-.16-1.68C134.88,23.22,135,22.9,135,22.5Zm1.84,1.12c0,.32-.08,1,.16,1.2a.25.25,0,0,0,.08.16v.16c0,.56-.08.88-.08,1.28,0,.08.08.16.24.16a3.45,3.45,0,0,1,1.36-.24c.4,0,.8.16,1.2.16s.56-.24,1-.24c.56,0,.88.24,1.44.24a4.52,4.52,0,0,0,1,0l2.24-.08c.32,0,1.2-.08,1.2.48,0,.24-.16.32-.16.56s0,.4.08.48v-.08a9.71,9.71,0,0,1,0,2.64c0,.24.08.32.08.56,0,.56-.24,1-.24,1.6,0,.4.24.8.24,1.2s-.16.72-.16,1c0,.56-.08,1-.08,1.52,0,.24.08.24.08.48v-.08a5.16,5.16,0,0,1,.24,1.6c0,1.2-.32,2.56-.32,3.52a.68.68,0,0,0,.16.48.25.25,0,0,0,.08.16v.16c0,.56-.16,1-.16,1.6v1.44c.08.24-.08.4-.08.64s-.16.88.08,1.12a6.28,6.28,0,0,1,.16,1.12c0,.24-.24.4-.24.8,0,.24.16.56.16.8,0,1.2.08,2.24.08,3.44,0,.32,0,.56-.08.64v-.08c0,.24-.16.32-.16.56s.32.48.32.88c0,.56-.24.88-.24,1.44,0,.24.16.56.16.88,0,.56-.32,1-.32,1.6a.68.68,0,0,0,.16.48.25.25,0,0,0,.08.16v.16c0,.24.24.24.48.24s.56-.16.88-.16.56.16.88.16c.72,0,1.36-.16,2.24-.16.16,0,.24-.08.24-.32,0-.72.08-1.44.08-2.16v-1.6c0-.56-.24-1.2-.24-1.92,0-1,.24-2.16.24-3.2,0-.24-.08-.48-.08-.72a3.28,3.28,0,0,1-.08-.88c0-.72.16-1.36.16-2.08s-.24-1.44-.24-2.16c0-.56.24-.8.24-1.2s-.24-.88-.24-1.2c0-.64.16-1.28.16-1.92V37.22c0-.56-.24-1.12,0-1.68v.08a1.56,1.56,0,0,0,.08-.64c0-.24,0-.4-.08-.48a8.78,8.78,0,0,1-.16-2.08c0-.32.24-.64.24-.88V29.3a3.15,3.15,0,0,0-.16-.48h.08a.48.48,0,0,1-.24-.48,1.24,1.24,0,0,1,.24-.88.25.25,0,0,0-.08-.16v-.08a.6.6,0,0,1,.08-.4l-.08.08a.51.51,0,0,1,.48-.4c.24,0,.48.08.8.08a3.52,3.52,0,0,1,.8-.16c.4,0,.88.16,1.28.16.56,0,1-.24,1.6-.24s1,.16,1.6.16.8.08,1.36.08c.4,0,.8-.16,1.2-.16.16,0,.24,0,.32.08a2,2,0,0,1,.16-.56c.24-.32.16-1.2.16-1.6s-.24-.8-.24-1.2c0-.24.16-.48.16-.72,0-.08-.08-.16-.08-.24-.64,0-1.28.08-1.92.08-1.84,0-3.76-.16-5.6-.16-.4,0-.8.24-1.2.24a2,2,0,0,1-.56-.16c-.4,0-.64.16-1,.16-.64,0-1.2-.24-1.84-.24-.24,0-.48.08-.8.08-1,0-1.84.16-2.8.16-.4,0-.8-.16-1.2-.16-.56,0-.8.16-1.36.16s-.8-.24-1.36-.24-.88.16-1.28.16c-.88,0-1.84-.08-2.72-.08C136.88,22.18,136.88,23.3,136.88,23.62Z" transform="translate(-13.12 -10.67)"/></g><g class="cls-3"><path class="cls-5" d="M13.12,91.66c0-.4.16-.72.16-1s-.08-.56-.08-.8c0-1.28.16-2.64.16-3.92,0-.56-.16-.8-.16-1.36a2.72,2.72,0,0,1,.4-1.12c0-.24-.08-.48-.08-.72a1,1,0,0,1,.16-.64c.4-.56-.16-1.44.4-2.08.88-1.28,1.36-2.64,2.56-3.84.56-.56,1-.48,1.44-1a4,4,0,0,1,1.52-.8,3.81,3.81,0,0,1,2.32-.72c1.52-.24,2.56-.88,4.16-.88.32,0,.64.16.88.16,1,0,1.92-.08,2.8-.08A9.84,9.84,0,0,1,32.4,73h-.08l.72.16.24.08H33.2a2.88,2.88,0,0,1,1.6.32c.64.4,1.44.48,2.16.88.24.32.56.32.88.56,2.48,1.28,4.72,5.68,4.72,8.16v.88c0,.24.08.48.08.72s0,.4-.08.48c0,.24,0,.48.08.56s.08.32.08.56c0,.56-.24,1-.24,1.6,0,.72.16,1.44.16,2.32,0,1.84.08,3.44.08,5.28a2,2,0,0,1-.08.8V96.3c0,.24-.08.16-.08.4a.29.29,0,0,0,.08.24c0,.24.08.32.08.56,0,.88-.16,1.6-.16,2.48,0,.4.16.8.16,1.2,0,.56-.16,1.2-.16,1.76,0,.32.16.64.16,1,0,1.52-.72,3-.72,4.48,0,.4-.48.88-.48,1.12-.24.4-.32.8-.56,1.2-.72,1.68-2.48,2.32-3.68,3.52v-.08l-.56.48q.12-.12-.24,0l-.32.16-.72.24a10.57,10.57,0,0,0-2.4.8,1.29,1.29,0,0,1-.8.32c-.4,0-.72-.24-1.12-.24-.56,0-1,.32-1.6.32s-1-.16-1.6-.16c-.4.24-.4.32-.8.32-.56,0-.8-.32-1.2-.32s-.56.08-.88.08a17,17,0,0,1-4.32-1,2.74,2.74,0,0,1-.88-.08v.08c-.4-.24-.8-.48-1.12-.72v.08a10.86,10.86,0,0,1-3.44-3.44h.08l-.32-.24v.08c-.56-.24-.64-1-.88-1.52a9,9,0,0,0-.32-1.2l.08.08a2.74,2.74,0,0,1-.08-.88,2.12,2.12,0,0,1-.4-1.12c0-.56.08-.8.08-1.36,0-1.52-.32-3-.32-4.56,0-.88.24-1.52.24-2.4,0-.4-.32-.8-.32-1.2,0-1.2.32-2.4.32-3.6C13.44,92.62,13.12,92.22,13.12,91.66Zm2.24.72c0,.32-.24.64-.24,1,0,.64.16,1.2.16,1.6,0,1.36.16,2.64.16,3.92,0,.88-.32,1.52-.32,2.4,0,.32.16.72.16,1.12s-.08.56-.08.88.08.32.08.56.72,4.48.72,4.8h-.08a2.87,2.87,0,0,1,.56.8v-.08c.88,1.92.88.88,1.28,1.68h-.08c.24.4.48.48.72,1,.64.32,1.36.64,2,1,.88.56,1.28.16,1.68.4.72.4.56.56,1.44.56.24,0,.4-.08.64-.08.72-.08,2.72.48,3.92.48.64,0,1.12-.32,1.76-.32,1.92,0,5.76-.4,7-2.08a7.65,7.65,0,0,0,2.24-1.92A4.35,4.35,0,0,1,40,108.3a19.3,19.3,0,0,0,.64-3.36,12.89,12.89,0,0,1,.08-3,6.88,6.88,0,0,0,.08-1.28c0-.56-.24-.88-.24-1.44v-2c0-.32.16-.72.16-1,0-.56-.32-.72-.32-1.28,0-.72.4-1.36.4-2.08,0-.56-.16-.88-.16-1.44,0-.88.08-1.76.08-2.64,0-.4-.24-.8-.24-1.36,0-.32.16-.56.16-.88s-.08-.4-.08-.64c0-.4.16-.8.16-1.2a3.3,3.3,0,0,0-.32-1.2,3.18,3.18,0,0,0-.16-1.76v.08c-.4-.88-.16-1.92-1-2.64a4.54,4.54,0,0,1-1-1.44l-.4-.16a.48.48,0,0,1-.48-.24v.08a1,1,0,0,1-.4-.4H37l-.24-.32v.08a32,32,0,0,0-4-1.6h-.64c-.72,0-1.36-.16-2.08-.16A1.67,1.67,0,0,1,29,74.7a3.61,3.61,0,0,0-1,.08c-1.2.24-2.32,0-3.6.32l-3.52,1c-.24.08-1,.4-1.12.4l.08-.08V76.3c-.24.24-.48.56-.72.56l-.56.32a3.07,3.07,0,0,1-.88.88l-1,1.12h.08C15,81.26,15.28,86.3,15.28,88.7c0,1-.08,1.92-.08,2.88C15.2,91.82,15.36,92.06,15.36,92.38Zm4.4-1.12c0-.64.32-3.92.32-4.24a5.65,5.65,0,0,0,.48-1.92c0-1.92.48-2.08,1.76-3.44.08-.24.24-.24.32-.48.56-.72,1.12-.64,1.84-.88H24.4a5.51,5.51,0,0,1,2.32-.56h1.6c.32,0,.56-.08.88-.08a7.21,7.21,0,0,1,2.56.72c.88,0,1.2.4,1.76,1h-.08l.48.48v-.08a5.18,5.18,0,0,1,.64.72h-.08l.32.64c0,.72,1,1.12,1,2v.64c0,.72.24,1.36.24,2.08,0,.4-.08.8-.08,1.2v1.68c0,.32.16.56.16.8,0,.88-.32,1.36-.32,1.92,0,.32.16.56.16.88s-.08.48-.08.72c0,.56.16,1,.16,1.52,0,.24-.16.56-.16.8,0,1,.08,2,.08,3,0,.4.08.72.08,1.12,0,.56-.32,1-.32,1.6v.08a.29.29,0,0,0,.08.24v.4c-.08.08-.48.56-.48.8-.4.88-.32,1.84-1.28,2.48-1.68,1.28-1.28,1.28-3.52,2.16-.32.08-.48.16-.56.16a2,2,0,0,1-.56-.16c-.56,0-.64-.08-1,.24a10.84,10.84,0,0,1-3.28-.56h.08a4.55,4.55,0,0,1-2.72-1.44l-.64-.64A2,2,0,0,1,21,105.5c-.32-.56-.88-1.12-.88-1.76,0-.24.16-.48.16-.8,0-.56-.4-1.12-.4-1.76,0-.4.24-.88.24-1.28,0-.56-.24-.4-.24-.8S20,98.3,20,98c0-.88-.16-1.6-.16-2.32,0-.88.24-2.08.24-3C20.08,92.06,19.76,91.82,19.76,91.26ZM22,90.38a3.15,3.15,0,0,0-.16.48c0,.24.16.48.16.8s-.16.64-.16.88c0,.56.24.88.24,1.44,0,.4-.24.48-.24.8v2.64c0,.56.32,1,.32,1.6,0,.4-.32.8-.32,1.36s.32,1.12.32,1.84a6.08,6.08,0,0,0,.48,2,3.43,3.43,0,0,0,2.16,2.4,2.88,2.88,0,0,0,1.44.56,17.2,17.2,0,0,0,2.48.32,6.27,6.27,0,0,0,1.12-.4c2.08,0,1.6-1,2.32-1.2.24-.08.16-.08.4-.16.56-.4,1.52-3.68,1.52-4.48a3.31,3.31,0,0,0-.16-1.12V99c0-1.6.16-3.28.16-4.88,0-1.2-.32-2.16-.32-3.36,0-.56.24-1,.24-1.6,0-.24,0-.48-.08-.56v.08a2.74,2.74,0,0,1-.08-.88,8.71,8.71,0,0,0-.24-2.48v.08a4.84,4.84,0,0,0-2.32-3.12,7,7,0,0,0-2-.8c-.64,0-1.2.16-1.76.16-1.84,0-2.48.16-3.76,1.44A7.44,7.44,0,0,0,22,86.86Z" transform="translate(-13.12 -10.67)"/><path class="cls-5" d="M55.28,73.9a.77.77,0,0,1,.72-.72c.24,0,.48.08.8.08s.8-.16,1.2-.16c.64,0,1.36.16,2,.16,1,0,2.16-.16,3.2-.16.64,0,1.2.16,1.84.16.88,0,1.2-.24,1.2,1,0,.56-.8.88-1.2,1.12v.32c0,.4-.08,1.36.16,1.68.08.24.16.32.16.4,0,.32-.24.64-.24,1s.16.56.16.88-.16.8-.16,1.2c0,.24.08.56.08.8,0,.4-.16.88-.16,1.28,0,.88.16,1.44.16,2.32a1.78,1.78,0,0,1-.08.72c0,.24-.08.24-.08.48,0,1.6.24,3.28.24,4.88,0,1-.24,2.08-.24,3.12,0,.4.16.72.16,1.12v2.56c0,.88-.24,1.52-.24,2.4,0,.72.48,1.36.48,2.08,0,.24-.08.24-.08.32a4.85,4.85,0,0,0,1,2.16,4.27,4.27,0,0,0,1,1.52,11.28,11.28,0,0,0,3.84.88c2.32,0,2.8-.56,4.64-2.08.24-.08.8-1.6,1-1.92H76.8a1.06,1.06,0,0,0,.24-.64c0-.56-.08-1.12-.08-1.68s.24-.8.24-1.12-.08-.32-.08-.56.16-.64.16-1-.08-.24-.08-.48v.08a16.08,16.08,0,0,1-.08-3.44c0-1.36.08-2.64.08-4,0-.88-.24-1.52-.24-2.4s.16-1.52.16-2.4V84.14C77,84.06,77,84,77,83.82s-.08-.16-.08-.4.08-.56.08-.88c0-.56-.08-.8-.08-1.36a4.06,4.06,0,0,1,.16-.72v.08a9.92,9.92,0,0,0,.08-2.64c0-.88-.24-1.36-.24-2.24a1.15,1.15,0,0,0-.4-.88c-.32-.32-.48-.56-.48-.8,0-.56.32-.88,1-.88.32,0,.56.08.88.08h3l.08.08c.4,0,.72.08,1.12.08s1.12.16,1.52-.08a3.4,3.4,0,0,1,.88-.16c.56,0,.88.24,1.44.24.08-.08.16-.16.24-.16.24,0,.32.24.4.48,0,.08.08.08.08.32,0,1.2-1,1-1,1.68v.08c.08.08.08.32.08.56s-.08.48-.08.72c0,.56.16,1.12.16,1.68s-.24,1.2-.24,1.76.16,1.12.16,1.68c0,.24-.08.4-.08.64s.08.56.08.8-.16.64-.16,1c0,.56.24,1,.24,1.6a2,2,0,0,1-.08.8v-.08a1.78,1.78,0,0,0-.08.72c0,.56.16,1.12.16,1.68,0,1-.4,1.92-.4,2.88,0,.56.24.8.24,1.36,0,.4-.16.8-.16,1.2,0,1.28.4,2.48.4,3.76,0,.56-.24,1.12-.24,1.68s.16.88.16,1.44-.16,1-.16,1.52c0,.32.08.64.08,1s-.16.72-.16,1a4.31,4.31,0,0,1-.4,2.64,1.39,1.39,0,0,0-.24.56,1.79,1.79,0,0,1-.48,1c-.8.8-.08,1.6-2.24,3.36v-.08l-.24.32h.08a2.79,2.79,0,0,1-1.2,1,18.33,18.33,0,0,1-3.68,1.6,16.74,16.74,0,0,0-2.24.32,3.62,3.62,0,0,1-1.28.24c-1.2,0-2.24.16-3.44.16a3.3,3.3,0,0,1-1-.08h.08a2,2,0,0,0-.8-.08c-.32,0-.56.16-.88.16-1.2,0-2.08-.64-3.12-.64-.08-.08-.56-.48-.8-.48l-2-.72c-.4-.08-.88-.72-1.28-1a9.24,9.24,0,0,1-3.6-5.36,4,4,0,0,0-.16-1,7.85,7.85,0,0,1-.4-2.32v-.32a3.15,3.15,0,0,0,.16-.48c0-.88-.24-1.36-.24-2.24v-.24a.69.69,0,0,0,.24-.48c0-.08-.16-.32-.16-.4h.08a.61.61,0,0,1-.16-.4c0-1.36.08-2.72.08-4.08,0-.88.24-1.52.24-2.4s-.08-1.68-.08-2.56c0-.56-.24-.8-.24-1.2s.08-.8.08-1.2c0-.56-.16-1-.16-1.52,0-1.2.32-2.48.32-3.76,0-.88-.32-1.6-.32-2.48s.24-1.52.24-2.4.08-1.6.08-2.48C56.56,75.1,55.28,74.78,55.28,73.9Zm3.12,8.16a11.77,11.77,0,0,1-.08,2.88v-.08A3.94,3.94,0,0,0,58.24,86c0,.56.32,1,.32,1.6a2,2,0,0,1-.16.56c0,.4.16.64.16,1v2.16c0,.72-.24,1.36-.24,2.08,0,.56.16,1.12.16,1.68s-.16.88-.16,1.44a1.6,1.6,0,0,1,.16,1c0,2.32-.16,4.64-.16,7a1.55,1.55,0,0,0,.4.72c0,1,.64,5,1.84,5.44l.8.64a2.52,2.52,0,0,0,1.36,1h-.08c.4.16,2.56,1.28,2.72,1.28a2,2,0,0,0,.8-.08,18.9,18.9,0,0,0,4.88.72c1.2,0,2-.4,3.2-.4h.64c.64,0,1.2-.32,1.84-.32.88,0,1.36-.8,1.76-.8l.4-.16H78.8c.56-.32,1.12-.24,1.44-.56s1.12-.8,1.44-1.36a12.57,12.57,0,0,0,2.16-6.56v-5c0-1-.16-2-.16-3,0-.24-.16-.64.08-.88v.08c0-.08.08-.24.08-.32V91.5c0-.32.16-.64.16-1,0-.56-.32-1-.32-1.6s.24-1.2.24-1.76a7.74,7.74,0,0,0-.16-2.4v.08a1.88,1.88,0,0,1-.16-.64c0-.32.16-.72.16-1,0-.48-.24-3,0-3.2,0-.64.16-1.36.16-2.08s-.32-1.2-.32-1.76c0-.08.08-.32.16-.64.08-.08.08-.16.08-.32-.72,0-1.36.16-2.24.16-.64,0-1.28-.16-1.84-.16a2.09,2.09,0,0,0-.64.24c.24.56-.16.88-.16,1.44,0,.24.16.56.16.88s-.16.56-.16.8a.61.61,0,0,0,.16.4v1.52c0,.32-.16.72-.16,1.12s.16.56.16.88-.24.64-.24.88c0,.88.4,1.52.4,2.24,0,.56-.32.8-.32,1.36s.32.8.32,1.36c0,.4-.16.8-.16,1.2v3.6c0,.56-.16.88-.16,1.44s.24,1,.24,1.52S79,97,79,97.58c0,.88.16,1.52.16,2.4,0,.72-.16,1.44-.16,2.16,0,.24.08.32.08.56,0,.64-1,3.36-1.52,3.76a10.35,10.35,0,0,0-1.44,1.28v-.08l-.24.32H76c-.32.64-.8.48-1.36.72a3.92,3.92,0,0,1-1.52.56c-.24,0-.48-.08-.72-.08a3.15,3.15,0,0,0-.48.16,11.32,11.32,0,0,1-3.68-.4h.08a7,7,0,0,1-3.68-2.16,4.67,4.67,0,0,0-.72-1.84H64a2.23,2.23,0,0,1-.64-1.6c0-1-.4-1-.4-1.52,0-.24.08-.16.08-.4v-2c0-1.6.24-3.28.24-4.88,0-.4-.16-.88-.16-1.28,0-1.6-.08-3.12-.08-4.72,0-.64.16-1.2.16-1.84,0-1.84-.16-3.68-.16-5.52,0-.4.16-.8.16-1.2S63,79.1,63,78.7c0-.56.24-1,.24-1.52S63,76.3,63,75.74a.6.6,0,0,1,.08-.4c-1.28,0-2.64-.08-3.92-.08-.64,0-.8-.08-.8.56,0,.88.24,1.6.24,2.48,0,.72-.24,1.44-.24,2.16,0,.24.08.56.08.8Z" transform="translate(-13.12 -10.67)"/><path class="cls-5" d="M100.8,75c-.24-.24-1-.72-1-1.12,0-.56.72-.72,1.12-.72.56,0,1.12-.16,1.68-.16.4,0,.8.24,1.2.24.24,0,.32-.08.56-.08.64,0,1.2.08,1.84.08,1.2,0,2.08-.16,3.28-.16.24.08.32.16.56.24h.08c.56,0,1.6-.32,1.84-.32a3,3,0,0,1,.8.24,3.9,3.9,0,0,1,1.2-.16c1.36,0,2.8.48,4.16.56a9.17,9.17,0,0,1,4,1.84v-.08a12.33,12.33,0,0,1,1.84,2.32h-.08a24.77,24.77,0,0,1,1.28,2.4c0,1.6.64,3.28.64,4.88a2.74,2.74,0,0,1-.08.88v-.08a1.78,1.78,0,0,0-.08.72c0,.32.16.56.16.88s0,.4-.08.48a.61.61,0,0,0-.16.32c0,.32.16.64.16,1,0,.56-.16,1-.16,1.52,0,.32.08.64.08.88v.24c0,.24-.08.16-.08.4a2.34,2.34,0,0,1,.16.72c0,.4-.32.64-.32,1v.48a38.79,38.79,0,0,1-1.28,5,10.43,10.43,0,0,1-1.52,1.76h.08a5.46,5.46,0,0,1-2.16,1.6c1,1.52.56,1.52,1,2.24a1.66,1.66,0,0,1,.48.8l-.08-.08c.4.56.32,1.12.56,1.36.08.08.16.24.24.32v-.08a15.39,15.39,0,0,1,.88,2h-.08l.4.56c0,.24-.16.48.08.72a5.42,5.42,0,0,0,1,1.44c.24.24-.08.8.24,1a2,2,0,0,1,1.12,1.68c0,.72-2.64.72-3.28.72-1,0-2.08-.16-3.12-.16-.24,0-.16.08-.4.08-.08.08-.24.08-.48.08-.4,0-.64-.24-.88-.24-.64,0-1.36.16-2,.16-.24,0-1.28-.4-1.28-.72s.24-.32.32-.56v.08c0-.32.24-.56.64-.8a.61.61,0,0,0,.16-.32c0-.08,0-.08-.08-.16a5.17,5.17,0,0,1-.72-1.28v.08a5,5,0,0,0-.8-2h.08a12.31,12.31,0,0,1-1.36-2.48v.08a3.14,3.14,0,0,0-.32-.72c-.88-.88.24-2.56-2.24-2.56-.4,0-1,0-1,.56a15.41,15.41,0,0,1-.08,1.92v.16c0,.32.16.64.16,1,0,.64-.16,1.28-.16,1.92a17.47,17.47,0,0,0,.32,3.52,2.09,2.09,0,0,0,.56.8v-.08c.24.24.64.56.64.88,0,.88-3.76.72-4.64.72a12.92,12.92,0,0,1-3.12-.16,1.63,1.63,0,0,0-.4-.08c-.24,0-.56.16-.88.16a.6.6,0,0,1-.4-.08c-.56,0-1.76.24-1.76-.64,0-.64.48-1,.88-1.36v.08l.4-.24H101c0-.4-.08-.8-.08-1.12,0-.56.16-.88.16-1.28v-5.12c0-.56-.16-.8-.16-1.36v-1.92c0-.32-.16-.72-.16-1s.24-.72.24-1.12c0-.64-.24-1.28-.24-1.84s.24-.8.24-1.36c0-.24-.24-.48-.24-.72s.16-.64.16-1-.08-.72-.08-1c0-.64.16-1.2.16-1.84,0-.32-.08-.64-.08-1s.16-.72.16-1.28c0-.72-.16-1.44-.16-2.16V84.22c0-.56.16-1,.16-1.6,0-.24-.24-.56-.24-.88s.32-.48.32-1c0-.72-.32-1.52-.32-2.24A6.58,6.58,0,0,1,101,76.3,7.2,7.2,0,0,1,100.8,75Zm2.08,13.2c0,.4.24.8.24,1.2,0,.56-.32.88-.32,1.28s.24.64.24,1c0,.72-.16,1.6-.16,2.16,0,.32.16.8.16,1.2,0,.56-.16,1.12-.16,1.68a3.3,3.3,0,0,0,.08,1v-.08a.6.6,0,0,1,.08.4c0,.32-.16.72-.16,1,0,.56.24.8.24,1.36s-.24.72-.24,1.28c0,.72.24,1.36.24,2.24,0,.56-.16,1.2-.16,1.84,0,.88.08,1.84.08,2.72s-.16,1.84-.16,2.72c0,.72.24,1.36.24,2.08.24,0,.4.16.64.16h.16c.08-.08.24-.08.48-.08.56,0,1,.32,1.52.32s.8-.16,1.36-.16c.24,0,.48.08.48-.16a3.15,3.15,0,0,0-.16-.48v-.24c0-.56.24-.88.24-1.28,0-.88-.08-1.52-.08-2.24,0-.56.08-1,.08-1.6,0-1.2-.16-2.32-.16-3.6,0-.32-.16-.64-.16-1,0-.24.08-.64.48-.64.08,0,.16.08.24.08a.68.68,0,0,0,.48.16c1.2,0,2.4-.16,3.6-.16.72,0,1.12.24,1.28.8v-.08c.56,1.52,1.76,3.44,2,4.72v-.08a.48.48,0,0,0,.24.48c.24.24.32.32.32.56v.16a2.61,2.61,0,0,1,.32,1l-.08-.08a3.69,3.69,0,0,1,.72,1.2c.08.56.56.8.8,1.2s-.16,1.36.72,1.36h.08c1.28,0,2.56-.16,3.84-.16.24,0,.4.08.64.08h.08a5.85,5.85,0,0,1-.56-1.52h.08c-.24-.4-.72-.72-1-1.28a12.44,12.44,0,0,0-1.12-2.64h.08c-.64-.64-.24-.8-.48-1.36h.08c-.24-.24-.24-.32-.48-.56a1.68,1.68,0,0,1-.48-.64c-.24-.32-.64-2-1-2.24s-.64-.48-.64-.8c0-1,2.24-1.44,2.64-1.84v.08c1.84-2.08,1.84-2.24,2.64-4.88a7.35,7.35,0,0,0,.4-2.24c0-.24-.16-1.76.08-2V91.5c0-.32-.24-.56-.24-.88s.32-.64.32-1.2c0-1.2-.16-2.4-.16-3.6a2,2,0,0,1,.08-.8c0-.4-.16-.72-.16-1.12,0-.56.24-.56.24-.8-.24-.24-.08-.56-.16-.88a5.36,5.36,0,0,0-.56-1.44c-1.2-3.12-2.16-4.64-5.44-5-1-.08-2.16-.64-2.88-.64-.32,0-.64.08-1,.08s-.4-.16-.64-.16c-.08,0-.16.08-.24.08-1.2,0-2.16.24-3.36.24a1.24,1.24,0,0,1-.88-.24c-.64,0-1.36-.08-2-.08-1,0-1.92.32-2.8.32-.32,0-.72-.32-.72.24s.08,1,.08,1.6-.24.8-.24,1.36.32,1.28.32,2c0,.56-.24.88-.24,1.28,0,.56.16.8.16,1.36a3.52,3.52,0,0,1-.16.8v.88c0,.24.08.24.08.48C103,86.3,102.88,87.26,102.88,88.22Zm4.64-8.4c0-.4.24-.56.72-.56s1,.32,1.52.32.88-.16,1.28-.16c.64,0,1.12.24,1.76.24h.8c1.6,0,4.08,1.84,4.72,3.36.24.56.4.8.64,1.36,0,.4-.24.56-.24.88v.08c0,.08,0,.08.08.16l.08.08a6593348375906.24,6593348375906.24,0,0,0,.16.48v3.36c0,.32-.16.56-.16.88s.24.64,0,1c0,.08-.16.32-.16.4a7,7,0,0,1-.24,2.56v-.08a1.3,1.3,0,0,1-.4.72l-.56.88c-.56.88-.56.8-1.44,1.2a4.06,4.06,0,0,1-1.28.72,24.74,24.74,0,0,1-4.16.56c-.56,0-.8-.16-1.36-.16s-.8.16-1.36-.08l-.16-.16c0-.24-.08-.48-.08-.72,0-.56.16-1.12.16-1.68s-.16-1-.16-1.6c0-.88.16-1.6.16-2.32,0-1.2-.24-1.44-.24-2.32,0-.56.16-1.12.16-1.68,0-.4-.16-.72-.16-1,0-.56.24-.88.24-1.44a2.45,2.45,0,0,1-.24-1.36c0-.56.24-1,.24-1.52,0-.4-.16-.64-.16-1S107.52,80.22,107.52,79.82Zm2.08,2.48c0,.56.16,1.12.16,1.68s-.16,1.2-.16,1.76a1.56,1.56,0,0,0,.08.64V86.3a.6.6,0,0,1,.08.4c0,.4-.16.8-.16,1.2v3c0,.88.16,1.44.16,2.32,0,.72-.16,1.36-.16,2.08a.94.94,0,0,0,1,1,1,1,0,0,1,.8-.32c.56,0,.4.4,1,.16v.08c.4-.4,1.92-.48,2.48-.56l1-1.12c.56-.56.32-1.2.72-1.76.64-.64.48-6.32.48-6.64a6.76,6.76,0,0,0-.88-2.88v.08l-.48-.64a.49.49,0,0,1-.64-.4A.61.61,0,0,1,115,82a13.34,13.34,0,0,0-4-.4c-.24,0-.4-.16-.64-.16C109.84,81.42,109.6,81.74,109.6,82.3Z" transform="translate(-13.12 -10.67)"/></g><g class="cls-3"><path class="cls-5" d="M13.28,128.5c0-.4-.16-.72-.16-1.12s0-.88.56-1H13.6a11.05,11.05,0,0,1,2.8-.24c.24,0,.4.08.64.08.08.08.32.08.56.08s.8-.24,1.2-.24c.24,0,.48.16.72.16a1.63,1.63,0,0,0,.4-.08h-.08c.08-.08.24-.08.48-.08.4,0,.72.24,1.28.24,1,0,1.84-.16,2.72-.16.72,0,1.44.16,2.16.16.56,0,.8-.16,1.36-.16s.8.16,1.36.16,1.2-.16,1.84-.16c.24,0,.48.16.72.16s.48-.16.72-.16a.6.6,0,0,1,.4.08,4.36,4.36,0,0,0,1.76-.08,6.28,6.28,0,0,1,1.12-.16c.56,0,1.12.32,1.76.32s.8-.24,1.36-.24.88.24,1.44.24c.88,0,.72,1,.72,1.68v2.72c0,.4.24.8.24,1.36,0,.88.08,3-.48,3.6-.08,0-.08,0-.16.08-.88,0-1.2-1.44-1.76-1.44-.24,0-.24.08-.32.08h.08a1.56,1.56,0,0,1-.64.08c-.4,0-.88-.24-1.44-.24s-1.28.16-2,.16c-.88,0-1.84-.16-2.8-.16-.24,0-.32.08-.32.32s.16.64.16,1-.16.64-.16,1,.08.64.08,1-.08.72-.08,1c0,.88.16,1.6.16,2.48,0,.64-.16,1.2-.16,1.84,0,.32-.16,1.2.16,1.52a.25.25,0,0,0,.08.16v.16c0,.32-.16.64-.16,1v.08a3.44,3.44,0,0,1,.16,1c0,.32-.32.8-.32,1.2,0,.56.24,1,.24,1.52,0,1.52.08,3.12.08,4.64,0,.56-.24.88-.24,1.44s.32,1,.32,1.6c0,.32-.16.64-.16,1,0,1.2-.16,2.32-.16,3.52,0,.56.24,1,.24,1.6,0,.88-.16,1.52-.16,2.4a2.1,2.1,0,0,0,.72,1.52l.24.48v-.08a.48.48,0,0,1,.24.48c0,.4-.48.64-.88.64-.24,0-.32-.16-.56-.16s-.48.16-.8.16-.4,0-.48-.08c-1.2,0-2.08-.08-3.28-.08-.56,0-.8.16-1.36.16s-1.2-.08-1.84-.08-1.76.24-1.76-1c0-.56.32-.4.72-.64a2.76,2.76,0,0,0,.4-1.44c0-.88-.16-1.6-.16-2.32a4,4,0,0,1,.08-1.68,6.65,6.65,0,0,0,.16-1c0-.4-.24-1-.24-1.6,0-.4.16-.8.16-1.2,0-.88.08-1.68.08-2.56,0-.56-.32-1-.32-1.44s.24-.8.24-1.2c0-.56-.16-1.28-.16-1.84v-1.92c0-.56.24-1,.24-1.6l-.16-.32h.08c-.32-.32-.08-.88-.08-1.28,0-.56-.08-1-.08-1.6s.24-1.2.24-1.84c-.24-.24-.16-.64-.16-.88,0-.4.08-.72.08-1s-.16-.56-.16-.88.08-.24.08-.48c0-.88-.08-1.76-.08-2.64a2,2,0,0,1,.08-.8v.08c0-.24.08-.24.08-.48,0-.4-.24-.64-.72-.64H19.68c-.56,0-1.12.24-1.76.24s-1-.08-1.6-.08a2.45,2.45,0,0,0-1.36.32v-.08c-.24.24-.8.88-1,.88-.88-.56-.8-2.32-.8-3.2,0-.4.16-.72.16-1.12,0-.56-.16-1.12-.16-1.68C13.12,129.22,13.28,128.9,13.28,128.5Zm1.84,1.12c0,.32-.08,1,.16,1.2a.25.25,0,0,0,.08.16v.16c0,.56-.08.88-.08,1.28,0,.08.08.16.24.16a3.45,3.45,0,0,1,1.36-.24c.4,0,.8.16,1.2.16s.56-.24,1-.24c.56,0,.88.24,1.44.24a4.52,4.52,0,0,0,1,0l2.24-.08c.32,0,1.2-.08,1.2.48,0,.24-.16.32-.16.56s0,.4.08.48v-.08a9.71,9.71,0,0,1,0,2.64c0,.24.08.32.08.56,0,.56-.24,1-.24,1.6,0,.4.24.8.24,1.2s-.16.72-.16,1c0,.56-.08,1-.08,1.52,0,.24.08.24.08.48v-.08a5.16,5.16,0,0,1,.24,1.6c0,1.2-.32,2.56-.32,3.52a.68.68,0,0,0,.16.48.25.25,0,0,0,.08.16v.16c0,.56-.16,1-.16,1.6v1.44c.08.24-.08.4-.08.64s-.16.88.08,1.12a6.28,6.28,0,0,1,.16,1.12c0,.24-.24.4-.24.8,0,.24.16.56.16.8,0,1.2.08,2.24.08,3.44,0,.32,0,.56-.08.64v-.08c0,.24-.16.32-.16.56s.32.48.32.88c0,.56-.24.88-.24,1.44,0,.24.16.56.16.88,0,.56-.32,1-.32,1.6a.68.68,0,0,0,.16.48.25.25,0,0,0,.08.16v.16c0,.24.24.24.48.24s.56-.16.88-.16.56.16.88.16c.72,0,1.36-.16,2.24-.16.16,0,.24-.08.24-.32,0-.72.08-1.44.08-2.16v-1.6c0-.56-.24-1.2-.24-1.92,0-1,.24-2.16.24-3.2,0-.24-.08-.48-.08-.72a3.28,3.28,0,0,1-.08-.88c0-.72.16-1.36.16-2.08s-.24-1.44-.24-2.16c0-.56.24-.8.24-1.2s-.24-.88-.24-1.2c0-.64.16-1.28.16-1.92v-3.92c0-.56-.24-1.12,0-1.68v.08a1.56,1.56,0,0,0,.08-.64c0-.24,0-.4-.08-.48a8.78,8.78,0,0,1-.16-2.08c0-.32.24-.64.24-.88V135.3a3.15,3.15,0,0,0-.16-.48h.08a.48.48,0,0,1-.24-.48,1.24,1.24,0,0,1,.24-.88.25.25,0,0,0-.08-.16v-.08a.6.6,0,0,1,.08-.4l-.08.08a.51.51,0,0,1,.48-.4c.24,0,.48.08.8.08a3.52,3.52,0,0,1,.8-.16c.4,0,.88.16,1.28.16.56,0,1-.24,1.6-.24s1,.16,1.6.16.8.08,1.36.08c.4,0,.8-.16,1.2-.16.16,0,.24,0,.32.08a2,2,0,0,1,.16-.56c.24-.32.16-1.2.16-1.6s-.24-.8-.24-1.2c0-.24.16-.48.16-.72,0-.08-.08-.16-.08-.24-.64,0-1.28.08-1.92.08-1.84,0-3.76-.16-5.6-.16-.4,0-.8.24-1.2.24a2,2,0,0,1-.56-.16c-.4,0-.64.16-1,.16-.64,0-1.2-.24-1.84-.24-.24,0-.48.08-.8.08-1,0-1.84.16-2.8.16-.4,0-.8-.16-1.2-.16-.56,0-.8.16-1.36.16s-.8-.24-1.36-.24-.88.16-1.28.16c-.88,0-1.84-.08-2.72-.08C15.12,128.18,15.12,129.3,15.12,129.62Z" transform="translate(-13.12 -10.67)"/><path class="cls-5" d="M58.48,168.66h-3c-.64,0-1.68.16-1.68-.72,0-.32.32-.48.56-.72v.08c.88-.88.48-1.28.72-2.24v-.16c0-.08,0-.08.08-.08,0-.16,0-.24-.08-.32,0-.24-.08-.24-.08-.48,0-1.2.08-2.4.08-3.6,0-.32-.16-.72-.16-1s.24-.64.24-1-.16-.56-.16-.88c0-.56.16-1,.16-1.36,0-.24-.08-.4-.08-.64v.08a2.13,2.13,0,0,1-.24-1c0-.72.32-1.44.32-2.16,0-.56-.16-.8-.16-1.36,0-.4.16-.72.16-1,0-.88-.24-1.76-.24-2.64v-1.2c0-.56.24-1,.24-1.52,0-.32-.16-.64-.16-.88a1.78,1.78,0,0,1,.08-.72c0-.24.08-.32.08-.56s-.08-.24-.08-.48c-.24-.24-.08-2-.08-2.56s.08-.8.08-1.36-.08-.8-.08-1.36a4.06,4.06,0,0,1,.16-.72c0-.4-.24-.8-.24-1.2,0-.24.08-.24.08-.48v.08c0-.24.08-.16.08-.4v-5.2c0-.72-1-1-1-2,0-.56,1.36-.4,1.92-.64a.6.6,0,0,1,.4-.08c.24,0,.48.16.72.16.88,0,1.52-.16,2.4-.16.64,0,1.28.16,1.92.16.32,0,.64-.08,1-.08.56,0,.88.16,1.28.16.72,0,1.36.08,2.08.08.88,0,1.44-.24,2.32-.24.72,0,1.36.16,2.08.16.88,0,1.52-.16,2.4-.16a32.81,32.81,0,0,1,4.88.16,1.23,1.23,0,0,1,.88,1.28c0,.4-.16.72-.16,1.12,0,.56-.08.88-.08,1.2a2,2,0,0,0,.08.8v-.08a3.52,3.52,0,0,1,.16.8,1.88,1.88,0,0,1-.16.64v-.08a1.78,1.78,0,0,0-.08.72c0,.4.16.8.16,1.2a2.13,2.13,0,0,1-.24,1c0,.4,0,.88-.56.88a.44.44,0,0,1-.48-.32H77l-.16-.16c-.56-.24-.88-.88-1.2-.88s-.48,0-.56.08H75a3.89,3.89,0,0,1-1,.08c-.4,0-.8-.16-1.2-.16-.88,0-1.6.08-2.48.08-1.2,0-2.4-.16-3.6-.16-.56,0-1,.24-1.52.24-.4,0-.72-.16-1.12-.16-.16,0-.24,0-.32.08,0,1-.08,2-.08,3a8.89,8.89,0,0,0,.08,2.08,6.65,6.65,0,0,1,.16,1c0,.32-.16.48-.16.8s.16.48.16.72a2.83,2.83,0,0,1-.08.48c0,.24.32.24.4.24.56,0,.88-.16,1.28-.16a.6.6,0,0,1,.4.08h-.08a6.24,6.24,0,0,0,1.76.24c.88,0,1.6-.48,2.24-.48s1.36.4,2.08.4c1.36,0,2.16-1.44,2.4-1.44s.24.08.24.32a.29.29,0,0,0,.08.24v-.08a2,2,0,0,1,.48,1.52c0,.56-.16,1.2-.16,1.76s.08,1.2.08,1.84c0,.4-.08.72-.08,1.28s.16,1.2.16,1.84,0,1.84-.88,1.84c-.72,0-1.12-1.2-1.68-.88-.72,0-1.52-.08-2.24-.08-1.28,0-2.64.08-4,.08-.72,0-1.44-.16-2.16-.16s-.56,1-.56,1.52v1.2c0,.64.32,1.28.32,2a.6.6,0,0,1-.08.4v-.08a4.66,4.66,0,0,0-.24,1.52c0,.56.32,1,.32,1.6,0,.4-.16.8-.16,1.2.24,0,.4,0,.48-.08a4.06,4.06,0,0,1,.72-.16c.64,0,1.28.24,1.92.24s1.12-.16,1.68-.16c.24,0,.16.08.4.08l.08.08a1.56,1.56,0,0,0,.64-.08c.24,0,.32-.08.56-.08s.48.16.8.16c.72,0,1.44-.32,2.16-.32.56,0,.8.24,1.2.24,2.4,0,2.08-1,3.12-1a.64.64,0,0,1,.72.72c0,.72-.24,1.28-.24,2,0,.32.24.64.24,1s-.08.32-.08.56c-.24.24,0,1.12,0,1.36,0,.64-.08,1.28-.08,1.92,0,1.28.08,1.84-1.52,1.84a15,15,0,0,1-3.28-.16,4.06,4.06,0,0,0-.72-.16.6.6,0,0,0-.4.08,8.16,8.16,0,0,1-2.4.24c-.72,0-1.36-.24-2.08-.24-.56,0-1,.24-1.68.24-1.52,0-3-.24-4.56-.24-.24,0-.4,0-.48.08a.29.29,0,0,0-.24.08.6.6,0,0,1-.4.08c-.32,0-.72-.16-1.12-.16ZM57,161.38a1.56,1.56,0,0,0,.08.64v-.08a2,2,0,0,1,.08.8c0,.88-.32,1.68-.32,2.56A1.78,1.78,0,0,0,57,166v-.08c.08.24-.08.8.16.8s.24-.08.48-.08c.4,0,.64.16,1,.16h.08a13.57,13.57,0,0,1,1.76-.32c.56,0,1,.24,1.36.24H63c.88,0,1.6.08,2.48.08,1,0,1.92-.24,2.8-.24.4,0,.8.16,1.2.16s1.28.16,1.52-.08v.08a.69.69,0,0,1,.48-.24c.24,0,.48.16.8.16.56,0,3.28-.08,3.84-.08.08.08.08-.4.08-.48,0-.24-.08-.48-.08-.72a3.28,3.28,0,0,1-.08-.88V163c0-.4.24-.48.24-.56s-.08-.16-.24-.16c-1,0-1.84.32-2.8.32s-1.52-.24-2.24-.24c-.88,0-1.6.16-2.48.16s-1.92-.16-2.88-.16-1.52.24-2.08.24c-.24,0-.56-.16-.8-.16s-.4.16-.64.16c-.4,0-.4-2-.4-2.32,0-.64.24-1.28.24-1.84,0-.24,0-.48-.08-.56v.08a2.82,2.82,0,0,1-.24-1.12c0-.56.16-.8.16-1.2,0-.56-.16-1-.16-1.6s.24-1,.24-1.44a11.05,11.05,0,0,0-.24-2.8,1.63,1.63,0,0,1-.08-.4c0-.16.16-.24.4-.24.4,0,.8.16,1.12.16s.8-.24,1.36-.24c.4,0,.64.24,1,.24s.72-.16,1-.16a2,2,0,0,1,.8.08H67.2c.08.08.32.08.56.08.4,0,.8-.24,1.36-.24,1,0,1.76.24,2.64.24.32,0,.56-.16.88-.16a2,2,0,0,1,.56.16,3.9,3.9,0,0,1-.24-1.12,10.2,10.2,0,0,0,.08-1.52,7.58,7.58,0,0,0-.16-1.76c-.08-.08-.32-.08-.56-.08-.72,0-1.52.16-2.24.16H64.8c-.24,0-.48-.16-.8-.16-.56,0-.8.32-1.36.32-.4,0-1-.16-1-.72,0-.4.16-.88.16-1.28V141.3a1.88,1.88,0,0,1-.16-.64c0-.32.16-.64.16-1,0-.64-.16-1.28-.16-1.92s.32-1.44.32-2.16a1.6,1.6,0,0,0-.16-.72h.08a.69.69,0,0,1-.24-.48c0-.24.08-.24.08-.48.08-.08.08-.32.08-.56,0-.64-.24-.8.64-.8.64,0,1.36-.08,2-.08,1.84,0,3.68.32,5.52.32a8.82,8.82,0,0,0,1.44-.16h-.08a2,2,0,0,1,.8-.08c.64,0,1.2.16,1.84.16h1.92c.08,0,.16,0,.16-.08v-.88c0-.24-.08-.32-.08-.56,0-.88.16-1.52.16-2.4v-.4c-.56,0-1.12.08-1.68.08s-1-.24-1.52-.24-1.2.24-1.76.24-.88-.32-1.28-.32-.72.24-1,.24c-.72,0-1.44.08-2.16.08-.88,0-1.6-.32-2.48-.32-1.2,0-1,.32-1.6.32a7.65,7.65,0,0,1-2.4-.24,1.24,1.24,0,0,1-.88.24c-.4,0-.48-.24-.8-.24h-.16c-.56,0-.88-.16-1.28.4a4.06,4.06,0,0,0-.16.72c0,.56.24,1,.24,1.6,0,.4-.08.8-.08,1.2V139c0,.4-.16.8-.16,1.36,0,.4.16.8.16,1.36,0,1.92.08,3.92.08,5.84v1c0,.32.08.56.08.88,0,.72-.24,1.36-.24,2.08v4.4c0,.08.16.32.16.4H57a.61.61,0,0,1,.16.4c0,.24-.08.32-.08.56a14.33,14.33,0,0,0-.16,1.92c0,.4.16.88.16,1.28S57,161.14,57,161.38Z" transform="translate(-13.12 -10.67)"/><path class="cls-5" d="M91.68,168.74c-.24,0-.88-.08-.88-.4a2.6,2.6,0,0,1,.56-1.36l.72-.56v-.08a.48.48,0,0,0,.08-.32c.08-.24.16-.4.24-.64.24-.56.32-1.2.56-1.76a3.64,3.64,0,0,0,.4-1.6,1.76,1.76,0,0,1,.08-.64,9.17,9.17,0,0,0,.64-2.24c.4-1.2.56-2.48.88-3.68.08-.56.72-1.6.72-1.84a29.05,29.05,0,0,1,.8-3.6c.08-.24.24-.48.32-.72.24-1,.56-2.88.8-3.92a2.87,2.87,0,0,0,.56-.8l-.08.08c-.08-.08-.08-.16-.08-.32s-.08-.16-.08-.24,1-3.12,1.28-3.76v.08c.24-.88-.08-1.68.48-2.32.32-.56-.08-1,.48-1.52h-.08a1.29,1.29,0,0,0,.24-.88,9,9,0,0,1,.88-2.72,28.29,28.29,0,0,0,.8-3.92,3.61,3.61,0,0,0,.24-.88c0-.56-.72-.4-.72-1a.94.94,0,0,1,.8-.88c3.44,0,6.56-.08,10-.08l.08.24a.64.64,0,0,1,.48.72,1.14,1.14,0,0,1-.48,1v-.08c-.08.08-.08.16-.08.32,0,.88.64,1.44.72,2.32.24,1.2.64,2.4.88,3.44.24.56,0,.88.24,1.44l.64,1.28c.24.32.4,2.56.8,3.52a3.82,3.82,0,0,1,.32,1.44c.08.88,0,1.2.64,1.84,0,1.2.24,1.12.64,2.08,0,1,.64,1.92.64,2.88a2.83,2.83,0,0,0,.32,1.36c.24.24.24.72.32,1v-.08c.24.56-.08.64.32,1.2a73.79,73.79,0,0,0,2.08,7.76,3.21,3.21,0,0,1,.24,1.2c0,1,.56,1.84.64,2.8.08.56.48,1,.48,1.68,0,1.44,1.52,1.6,1.52,2.24s-.64.8-1,.8c-2.16,0-4.4.24-6.56.24-.56,0-1-.16-1.6-.16s-1.84.16-1.84-.72c0-.56,1-.8,1-1.52a8,8,0,0,0-.56-2.48c-.24-1-.72-4.72-1.92-4.72-.56,0-1,.16-1.52.16a12.86,12.86,0,0,1-2.48-.08c-.24,0-.4-.08-.64-.08s-.72.16-1.12.16a2.34,2.34,0,0,1-.72-.16c-.32,0-.64.16-1,.16s-1-.24-1,.32c0,1.2-.72,1.68-1,2.88a2,2,0,0,1-.08.8c0,.4-.32.4-.32.8,0,1.68-.56,1.68-.56,2.4.24.24.16.48.4.56a3,3,0,0,1,.48.4h-.08c.24.24.32.4.32.56,0,.56-1.52.48-1.92.48-1.92,0-3.92.08-5.84.08-.56,0-.8-.08-1.36-.08C92.4,168.58,92.08,168.74,91.68,168.74Zm4.88-11c-.08.24-.08.64-.16.88-.24.72-.4,1.44-.64,2.08s-.32,1.12-.56,1.68c-.56,1.6-.24,2.48-1.28,4.16a11,11,0,0,1,2.8.08c.08,0,.4.16.48.16s.16-.08.24-.08c.24,0,1.36.16,1.44-.08a2.37,2.37,0,0,0,.16-.8c0-.88.48-1.28.48-2.16v-.8c.24-.32.64-.72.64-1.12,0-.56.24-1,.24-1.52a2.21,2.21,0,0,0,.24-1c0-.4.32-1.92.88-1.92.24,0,.4.16.64.16a18,18,0,0,1,3.6,0c.4,0,.8-.16,1.2-.16h.72c.4.24,1-.08,1.6-.08.88,0,1.76.24,2.72.24.4,0,.72-.24,1.12-.24s.48.16.48.56c0,.56.4.88.4,1.2s-.08.24-.08.48a.42.42,0,0,0,.16.32c.08.08.24.4.32.48v.8c.24.56.56,2.32.8,2.88s0,.88.4,1.44v-.08c.4,1-.64,1.52,1.28,1.52.88,0,1.68-.24,2.56-.24.32,0,.72.16,1.12.16,0-1.68-1.44-4.32-1.44-4.72,0-.88.16-1.2-.4-1.84a11.31,11.31,0,0,1-1-3.76c0-.56,0-.4-.32-.72s-.24-1.36-.24-1.76a15.58,15.58,0,0,1-.48-1.84c-.24-.56-.4-.88-.64-1.44-.24-.32.08-1-.16-1.6H116c-.24-.24-.64-.72-.64-1s.16-.32.16-.56a5.22,5.22,0,0,1-.64-1.76,2.88,2.88,0,0,0-.32-1.6c-.24-.56-.16-1-.4-1.6h.08a1.28,1.28,0,0,1-.4-.88,10.44,10.44,0,0,1-.56-2.48,3.92,3.92,0,0,1-.56-1.52,8.17,8.17,0,0,0-.8-3,12.08,12.08,0,0,1-.88-3.44v.08c-.32-1-.64-2-.88-3-.56,0-1,.08-1.6.08a1.6,1.6,0,0,0-1-.16c-.56,0-.88.24-1.44.24-.4,0-.88-.16-1.28-.16-.56,0-.88,1-.88,1.6a9.34,9.34,0,0,1-.64,2.88,8.74,8.74,0,0,0-.4,1.36c-.24.56-.24,1.52-.64,1.92h.08l-.24.48c-.32.56-.16,1.44-.4,2a2.38,2.38,0,0,0-.4,1.2,13.86,13.86,0,0,1-.88,3c-.08.4.08.8-.16,1.2a11.66,11.66,0,0,0-.56,1.52,4.06,4.06,0,0,0-.16.72,26.71,26.71,0,0,1-.8,3.44A39.12,39.12,0,0,1,97,155.38v-.08a7.76,7.76,0,0,0-.08,1.36A3.15,3.15,0,0,0,96.56,157.78Zm10.4-4.72c-1.2,0-2.08.24-3.28.24-.24,0-.56-.08-1.12-.16l-.16-.16c0-.32.32-.4.32-.72a7.67,7.67,0,0,1,.56-2.24c.24-.48.56-3.36,1-3.76a33.12,33.12,0,0,0,1.2-5c0-.24.4-.48.48-.72h-.08a8.83,8.83,0,0,1,1.28-4.64,3.15,3.15,0,0,1-.16-.48.61.61,0,0,1,.16-.32H107c.16-.16.24-.24.32-.24.32,0,.4,1.44.48,1.84a7.67,7.67,0,0,0,.8,2.72,2.15,2.15,0,0,1,.32,1.44v.4c-.08.4.4.64.4,1.2v.24c.24.56.64,1,.64,1.52a2.47,2.47,0,0,0,.16,1.36,4.63,4.63,0,0,1,.56,1.68c0,.56.24.64.48,1.2,0,1.68.56,1.52.56,3,0,.4.56.64.56,1.6,0,.24-.08.32-.24.32s-.24-.08-.48-.08c-.08-.08-.16-.16-.24-.16-.88,0-1.52.16-2.4.16C108.32,153.22,107.6,153.06,107,153.06Zm0-9.68c-.4,2.24-1.36,5.76-2,7.92.32-.32.8-.24,1.2-.24s.8.24,1.36.24a4.06,4.06,0,0,1,.72-.16c.08,0,.32.08.64.16h-.08c.08,0,.24.08.32.08.4,0,.56-.08.64-.32l-.24-.4-.16-.16c0-.16,0-.24.08-.32v.08c0-.08.08-.24.08-.32a3.15,3.15,0,0,0-.16-.48h.08a3.38,3.38,0,0,1-.64-1.6c0-.64-.48-1-.48-1.6a1.06,1.06,0,0,0-.24-.8c-.32-.88-.08-1.68-.64-2.56h.08a.93.93,0,0,1-.16-.56c0-.08,0-.48-.08-.48C107,141.86,107,143.14,107,143.38Z" transform="translate(-13.12 -10.67)"/><path class="cls-5" d="M137.76,128.5c-.32-.4-1.2-.88-1.2-1.28a1.29,1.29,0,0,1,1-1c.56,0,1.2.16,1.76.16.24,0,.56-.08.8-.08s.56.08.8.08a3.28,3.28,0,0,0,.88-.08h-.08a1.78,1.78,0,0,1,.72-.08c.4,0,.8.16,1.12.16.88,0,1.52-.08,2.24-.08.56,0,1.52,1.28,1.84,1.6s.4,1.12.8,1.44a2.91,2.91,0,0,1,1,1.2,6.39,6.39,0,0,0,1.44,2.16l1.2,1.2H152c.56.56.48,1.28,1,1.68a5.88,5.88,0,0,1,1.28,1.52,12.69,12.69,0,0,0,1.44-2.16,14.15,14.15,0,0,1,1.36-1.92,6.54,6.54,0,0,0,.8-.88c.24-.24,0-.64.24-.88,1.36-1.36,1.6-2.32,2.8-3.84.56-.88.72-1.28,1.92-1.28.56,0,.72.32,1.28.32.32,0,.64-.24,1-.24.56,0,1-.08,1.52-.08,1.36,0,2.64.32,3.92.32a.29.29,0,0,1,.24-.08c.32,0,.48.48.48.72,0,.4-.56,1-.88,1.2v-.08l-.24.16c0,.64.08,1.2.08,1.84,0,.4-.16.72-.16,1.12a13,13,0,0,0,.24,3,4.06,4.06,0,0,0-.16.72,3,3,0,0,1-.08,1.44c.08.32.08.72.16,1v-.08a2.49,2.49,0,0,1,.08.88c0,.24-.16.48-.16.72s.16.48.16.72c0,.4-.16.72-.16,1.12.08.08.08.24.08.48,0,.56-.24.72-.24,1.28,0,2.48.16,4.72.16,7.2,0,1.36-.08,2.72-.08,4.08s.24,2.8.24,4.08c0,.56-.32.8-.32,1.2,0,1.2.16,2.4.16,3.6,0,.56-.08,1-.08,1.52,0,.32.16.64.16.88s-.16,1.2.08,1.44c.32.4,1.12.64,1.12,1.28,0,.32-1.36.88-1.68.88-.16,0-.24-.08-.32-.24v.08c-.08-.08-.16-.08-.4-.08s-.72.16-1.12.16-.8-.16-1.2-.16-.72.16-1.28.16-1.2-.16-1.76-.16c-.4,0-.72.16-1.12.16-.56,0-2.32-.08-2.32-.64,0-.88,1-1,1.28-1.68-.08-.08-.08-.16-.08-.32s-.08-.24-.08-.48.16-.48.16-.8-.08-.48-.08-.72a3.28,3.28,0,0,1-.08-.88c0-.56.24-1.12.24-1.68,0-.32-.24-.56-.24-.88s.16-.64.16-1c0-.56-.16-.8-.16-1.36s-.08-.88-.08-1.44.24-1.12.24-1.76v-2.4c0-.32-.24-.72-.24-1s.24-.72.24-1.12c0-.64-.16-1.28-.16-1.92a1.78,1.78,0,0,1,.08-.72V148a11.62,11.62,0,0,0,.16-2.88c0-.88-.32-1.44-.32-2.32a3.52,3.52,0,0,1,.16-.8v.08l.08-.24v-.16l-.56.56h.08a4.94,4.94,0,0,0-1.2,1.76c-.24.72-1.12,1.12-1.52,2.16v-.08c-.08.32-.8,1-1,1.2h.08c-1,1.52-1.92,2.8-2.8,4.32a.79.79,0,0,1-.64.48c-.4,0-1.2-1.28-1.44-1.52h.08a12.42,12.42,0,0,1-1.84-2.16.25.25,0,0,0-.08-.16l-.16-.32c-.16-.16-.4-.48-.72-.88l-3.36-4.32a5.91,5.91,0,0,0-.16,1c0,.24.08.32.08.56v-.08a2,2,0,0,1,.08.8c0,1.2-.08,2.08-.08,3.28a5.18,5.18,0,0,1-.08,1.92c0,.32.24.56.24,1,0,.56-.24,1-.24,1.6,0,1,.24,1.92.24,2.88,0,.56-.24.88-.24,1.28,0,.24,0,.4.08.48v-.08a4.06,4.06,0,0,1,.16.72c0,.48-.16,6.16-.16,6.32v-.08c-.08.08-.08.32-.08.56a12,12,0,0,0,.32,1.92c.32.4,1,.88,1,1.44a.94.94,0,0,1-.8.72c-.24,0-.4-.32-1-.32-.24,0-.24.08-.48.08s-.56-.16-.88-.16c-.88,0-1.52.32-2.4.32-.32,0-.64-.16-.88-.16s-.4.16-.72.16c-.56,0-.8-.24-1.36-.24-.32,0-.64.16-1,.16-.24,0-.32-.08-.56-.08-.08-.08-.24-.08-.48-.08s-.56.08-.56-.32c0-1,1.28-1.36,1.28-2.72,0-1-.16-1.84-.16-2.72,0-.4.24-.88.24-1.12,0-.08,0-.16-.08-.16-.08-.56-.16-1.84-.16-2.4,0-.24.16-.48.16-.72s-.16-.56-.16-.8c0-.4.24-.56.24-.88s-.08-.32-.08-.56v-.8a4.13,4.13,0,0,0,.16-.88c0-.72-.24-1.52-.24-2.24v-6.8a2.34,2.34,0,0,1-.16-.72c0-.56.32-.8.32-1.2,0-.56-.16-.88-.16-1.28,0-.56.08-.88.08-1.28,0-1.2.08-2.24.08-3.28,0-.56-.16-1-.16-1.6v-1.92c0-.32-.08-.56-.08-.88s.08-.88.08-1.28c0-.24-.08-.24-.08-.48-.08-.08-.08-.32-.08-.64v-.32a.69.69,0,0,0,.24-.48Zm1.84,33v.16c0,.24.24.48.24.88s-.24.72-.24,1.12c0,.88-.08,1.44-.08,2.32a3.28,3.28,0,0,0,.08.88,3.3,3.3,0,0,0,1-.08h-.08a1.78,1.78,0,0,1,.72-.08,13.85,13.85,0,0,1,3.2.16c-.24-.56.08-1,.08-1.6,0-.88-.16-1.68-.16-2.56a1.78,1.78,0,0,1,.08-.72V162c0-.24.08-.4.08-.64,0-.56-.16-.8-.16-1.36a6.07,6.07,0,0,1,.08-2.08V158a.6.6,0,0,0,.08-.4c0-.24-.08-.16-.08-.4-.08-.08-.08-.16-.08-.4,0-.56.24-1,.24-1.6,0-.32-.16-.56-.16-.88s.08-.48.08-.72c0-.56-.24-1-.24-1.52s.24-.88.24-1.44-.24-.88,0-1.44v.08c.08-.08.08-.24.08-.48,0-.4-.24-.72-.24-1.28,0-.88.16-1.6.16-2.48-.32-.64,0-1.92,0-2.64,0-.56-.16-.8-.16-1.36,0-1,.08-2,.08-3a.61.61,0,0,0-.16-.32l-.08-.16a.45.45,0,0,1,.48-.4.41.41,0,0,1,.4.32c.24.64.4.64,1,1.2h-.08c.24.24.16.32.4.56.32.88,1.2.88,1.76,2.16H148l.48.56a1.08,1.08,0,0,0,.48.56c.72.56.72,1.44,1.28,1.76h-.08a.61.61,0,0,0,.32.16c.32.32.32.32.32.88a10.61,10.61,0,0,0,2.08,2.16c0,.24-.08.56.24.8v-.16c.08,0,.16.08.24.16h-.08a.87.87,0,0,1,.4.32l.16.4v.24c0-.08,0-.08.08-.08l.08-.08c.64-1,.4-1,1.2-1.76h-.08c.56-.72,1.44-2.4,1.84-3a5.11,5.11,0,0,0,1-1.2h-.08c0-.16.08-.32.32-.56a14.15,14.15,0,0,0,1.36-1.92c.24-.32.56-.32.8-.72a5.21,5.21,0,0,1,1.2-2.16c.56-.24.24-.24.48-.8.08-.24.72-.56.8-.64l.24.16c.08-.08.48.08.56-.48,0,.32-.24.48-.24.72,0,2.56.24,5.12.24,7.68a9.8,9.8,0,0,1-.16,1.52c0,.08.16.8.16.88,0,.4-.24.72-.24,1.12,0,.56.16,1.12.16,1.68,0,.4-.16.8-.16,1.2,0,.24.16.56.16.8s-.16.64-.16,1v5.12c0,1,.24,2,.24,3,0,.56-.24,1-.24,1.6s.24,1.12.24,1.68-.16,1.12-.16,1.76c0,.88.24,1,1,1,.56,0,.88-.24,1.44-.24.32,0,.64.16,1,.16s1.44,0,1.44-.4c0-1.52-.16-2.8-.16-4.32,0-.72.16-1.44.16-2.32s.08-1.44.08-2.32-.4-2.32-.4-2.88.4-1.12.4-1.68-.32-1-.32-1.6.24-1,.24-1.6-.16-1-.16-1.6.16-.8.16-1.36c0-.24,0-.48-.08-.56v.08a3.4,3.4,0,0,1-.16-.88c0-.4.24-.88.24-1.28s-.16-.56-.16-1,.16-.8.16-1.36c0-1.84-.16-3.68-.16-5.52,0-.56.24-1,.24-1.6,0-.32-.24-.64-.24-1,0-1.28.16-2.64.16-3.92a6.88,6.88,0,0,0-.08-1.28c-.24,0-.48.16-.72.16s-.56-.24-.8-.24-.48.24-.8.24a.6.6,0,0,1-.4-.08,7.05,7.05,0,0,0-2.64-.32c-.32,0-1,1.44-1.2,1.68-.56.88-1,1.76-1.52,2.64-1,1.52-2.32,2.64-3,4.32-.24.4-.64.64-.88,1a8,8,0,0,1-.88,1.6h.08c-.24.4-.48,1.12-1,1.12-.4,0-.72-.8-.8-1.12h.08a10.35,10.35,0,0,0-1.2-1.36,5.18,5.18,0,0,1-.64-.72v-.08h.08a29,29,0,0,0-3.36-4.24,4.05,4.05,0,0,0-.56-1.2h.08l-.4-.32v.08c-.24-.08-.4-.4-.48-.8v.08c-.24-.56-.72-.64-1-1.2-.72-1.28-1.44-1-2.72-1.28-.24,0-.32-.08-.56-.08-.4,0-.8.16-1.2.16-.56,0-.8-.16-1.36-.16l-.64.24c.24,1-.16,2-.16,3s.16,1.76.16,2.64c0,.4-.16.72-.16,1.12,0,.64.16,1.2.16,1.76-.08.08-.08.24-.08.48,0,.56.16.88.16,1.28s-.16.72-.16,1.12c0,.24.08.24.08.48v-.08c0,.24.08.24.08.48s-.16.48-.16.72c0,1-.08,2.16-.08,3.2,0,.24.24.48.24.8s-.16.72-.16,1.12c0,.56.16,1,.16,1.6,0,1.2-.24,2.08-.24,3.28v1c0,.64.32,1.2.32,1.84s-.4,1.52-.4,2.48.16,1.52.16,2.4c0,.32.16.64.16,1S139.52,161.22,139.6,161.46Z" transform="translate(-13.12 -10.67)"/></g></g></g></g></svg>